<?xml version="1.0" encoding="utf-8"?>
<!-- Generated by IcoMoon.io -->
<!DOCTYPE svg PUBLIC "-//W3C//DTD SVG 1.1//EN" "http://www.w3.org/Graphics/SVG/1.1/DTD/svg11.dtd">
<svg version="1.1" xmlns="http://www.w3.org/2000/svg" xmlns:xlink="http://www.w3.org/1999/xlink" width="640" height="640" viewBox="0 0 640 640">
<g id="icomoon-ignore">
</g>
<path d="M459.168 420.864l-88.256-100.864 88.256-100.864c15.008-15.008 15.008-39.328 0-54.304s-39.328-14.976-54.304 0l-84.864 96.992-84.832-96.96c-15.008-15.008-39.328-15.008-54.304 0s-14.976 39.328 0 54.304l88.224 100.832-88.256 100.864c-14.976 15.008-14.976 39.264 0 54.24 15.008 15.008 39.328 15.008 54.304 0l84.864-96.928 84.832 96.928c15.008 15.008 39.328 15.008 54.304 0s15.008-39.232 0.032-54.24z"></path>
</svg>
