<?xml version="1.0" encoding="utf-8"?>
<!-- Generated by IcoMoon.io -->
<!DOCTYPE svg PUBLIC "-//W3C//DTD SVG 1.1//EN" "http://www.w3.org/Graphics/SVG/1.1/DTD/svg11.dtd">
<svg version="1.1" xmlns="http://www.w3.org/2000/svg" xmlns:xlink="http://www.w3.org/1999/xlink" width="512" height="512" viewBox="0 0 512 512">
<g id="icomoon-ignore">
</g>
<path d="M297.575 390.349v0 0 0zM505.651 204.8c0-9.625-6.349-9.625-9.625-9.625-3.175-3.174-278.425-99.225-287.949-102.4s-9.625-3.174-15.975-3.174-156.877 19.149-172.953 22.425-19.149 22.323-19.149 31.949 0 195.174 0 217.6 12.8 22.425 19.251 25.6c0 0 3.174 0 6.349 0 3.175 9.625 9.626 15.974 19.251 15.974 6.349 0 12.8-3.175 19.149-9.625 54.374 6.349 143.975 12.8 143.975 12.8s9.625 0 12.8 0c0 0 12.8-3.175 28.774-9.625 3.174 12.8 12.8 19.251 22.426 19.251 12.8 0 22.425-9.625 25.6-25.6v0 0 0 0 0-3.175c0 0 0 0 0-3.175 0-6.349-3.175-9.625-3.175-9.625l-3.175-3.175c-12.8-15.974-19.251-38.4-19.251-57.549 0-22.425 6.451-41.575 15.974-57.549 3.175-3.174 6.349-6.349 9.625-9.625 3.175-3.174 6.349-6.349 9.625-9.625 15.974-12.8 35.226-19.251 57.651-22.425h6.349c15.974 0 35.226 6.349 48.026 15.975 3.175 0 3.175 3.174 6.349 3.174 6.349 6.349 12.8 12.8 19.251 19.251 12.8 15.975 19.251 35.225 19.251 57.651 0 6.349 0 9.625 0 15.974-6.349 44.749-48.026 79.975-96.051 79.975h-3.175c-6.349 0-28.774 0-38.4-12.8-3.175-3.175-6.349-6.349-6.349-12.8 0-3.175 0-9.625 0-12.8v-6.349c3.175-3.175 3.175-6.349 6.349-9.625l6.349 6.349c3.175 0 6.349 0 6.349 0l6.349-6.349v-3.175c0-3.175 0-3.175 0-6.349v0l6.349-6.349c3.175-3.175 6.349-3.175 12.8 0 3.175 0 3.175 0 6.349 3.175 6.349 3.175 9.625 3.175 12.8 6.349 3.175 0 6.349 0 9.625 0l3.175-3.175c6.349-6.349 22.425-22.425 22.425-22.425s3.175-3.175 0-9.625l-3.175-3.175 19.251-19.251c3.175-3.175 3.175-3.175 0-6.349l-6.349-6.349c-3.175-3.175-3.175-3.175-6.349 0l-19.251 19.251c-3.175 0-6.451-6.349-9.625-6.349v0c0 0-6.349-6.349-12.8-12.8l19.149-19.251c3.175-3.174 3.175-3.174 0-6.349l-6.349-6.349c-3.175-3.174-3.175-3.174-6.349 0l-9.625 12.8-6.349 6.349-3.175-3.175c-6.349-6.349-9.625 0-9.625 0s-22.425 22.425-25.6 25.6c-3.175 3.175 0 9.625 3.175 19.251 0 3.175 3.175 3.175 3.175 6.349 3.175 6.349 3.175 9.625 0 12.8l-6.349 6.349c-3.175-3.175-6.349-3.175-6.349 0l-6.349 6.349c-3.175 3.175-3.175 6.349 0 6.349v0l6.349 6.349c0 0-3.175 3.175-3.175 6.349s-3.175 3.175-3.175 6.349-3.175 9.625-3.175 12.8 0 6.349 0 9.625c0 6.349 0 9.625 3.175 15.974 0 3.175 3.175 3.175 3.175 6.349 15.974 15.974 44.851 15.974 48.026 15.974h3.175c51.2 0 92.774-35.226 105.575-79.974 3.175 0 3.175 0 6.349 0 9.625 0 15.974-9.625 15.974-19.251 0-3.175 0-3.175 0-6.349 3.175 0 3.175 0 3.175 0l9.626-3.175c-3.175-3.175-3.175-6.349-3.175-9.625s-6.349-89.498-6.349-99.123zM60.825 355.226h-38.4v-22.425h38.4c0 0 0 22.425 0 22.425zM48.026 287.949v-9.625h102.4v9.625h-102.4zM131.174 307.2h-60.723v-9.625h60.825v9.625zM185.549 358.4h-38.4v-22.425h38.4v22.425zM188.826 256l-172.851-3.174v-105.575l172.851-19.251v128zM297.575 227.226c-9.625 9.625-15.974 19.251-22.425 28.774h-48.025v-128l70.451 22.425v76.8zM364.749 201.625c-22.425 0-41.575 6.349-57.651 19.251v-67.277l57.651 19.251v28.774zM419.226 214.425c-12.8-6.349-31.949-12.8-48.026-12.8v-25.6l48.026 15.975v22.425zM463.974 256h-3.175c-9.625-15.975-22.425-25.6-35.226-35.226v-28.774l38.4 12.8v51.2zM473.6 256v-48.025l28.774 9.625v38.4h-28.774z"></path>
</svg>
