<?xml version="1.0" encoding="utf-8"?>
<!-- Generated by IcoMoon.io -->
<!DOCTYPE svg PUBLIC "-//W3C//DTD SVG 1.1//EN" "http://www.w3.org/Graphics/SVG/1.1/DTD/svg11.dtd">
<svg version="1.1" xmlns="http://www.w3.org/2000/svg" xmlns:xlink="http://www.w3.org/1999/xlink" width="512" height="512" viewBox="0 0 512 512">
<g id="icomoon-ignore">
</g>
<path d="M505.651 297.575v0c0 0 3.175-31.949 0-35.226-3.175-3.175-3.175-6.349-3.175-12.8 0-6.349 0-22.425 0-25.6s-3.175-9.625-6.349-19.251c-3.175-9.625-22.425-48.025-28.774-54.375s-12.8-12.8-25.6-19.251c-12.8-3.174-83.149-25.6-214.425-6.451-15.975 6.451-44.851 12.8-108.851 67.174 0 0-9.626 3.174-12.8 6.349 0 0-67.174 0-102.4 76.8 0 0-3.175 3.175-3.175 6.349s0 12.8 0 12.8 0 3.175 0 6.349 0 25.6 6.349 31.949c0 0 0 12.8 22.425 19.251 0 0 6.349 0 12.8 3.175 6.349 6.349 12.8 12.8 25.6 15.974 15.975 3.175 25.6 0 31.949-3.175h3.174c6.349 0 60.825 6.349 108.851 6.349 9.625 15.974 28.774 25.6 48.026 25.6 28.774 0 51.2-19.251 54.375-48.026 3.175 15.974 9.625 28.774 19.251 41.575 3.175 3.175 3.175 3.175 6.349 3.175v0c3.175-3.175 3.175-6.349 0-9.625-9.625-9.625-12.8-22.425-15.974-35.226 0-6.349-3.175-12.8-3.175-19.251 0-51.2 41.575-89.6 89.6-89.6 41.575 0 76.8 25.6 86.425 64 3.175 9.625 3.175 15.974 3.175 25.6 0 51.2-41.575 89.6-89.6 89.6 0 0 0 0-3.175 0v0 0c-6.349 0-28.774 0-35.226-9.625-3.175-3.175-3.175-6.349-3.175-12.8 0-12.8 3.175-19.251 9.625-25.6l6.349 6.349c3.175 3.175 6.349 3.175 6.349 0l6.349-6.349c3.175-3.175 3.175-6.349 0-6.349v0l6.349-6.349c6.349-6.349 31.949 12.8 35.226 6.349 3.175-3.175 25.6-25.6 25.6-25.6s3.175-3.175 0-9.625l-3.175-3.175 19.149-19.149c0 0 0-3.175 0-6.349l-6.349-6.349c0 0-3.175 0-6.349 0l-19.149 19.251c-6.349-6.349-9.625-9.625-12.8-12.8v0c0 0-6.349-6.349-12.8-12.8l19.251-19.251c0 0 0-3.175 0-6.349l-6.349-6.349c0 0-3.175 0-6.349 0l-19.456 19.558-3.175-3.175c-3.175-3.175-9.625 0-9.625 0s-22.425 22.425-25.6 25.6c-3.175 3.175 9.625 22.425 6.349 31.949 0 3.175 0 3.175-3.175 3.175l-6.349 6.349c-3.175-3.175-6.349-3.175-6.349 0v9.625c-3.175 3.175-3.175 6.349 0 6.349l6.349 6.349c-6.349 6.349-12.8 15.974-12.8 35.226 0 6.349 0 9.625 3.175 15.974 0 3.175 3.175 3.175 3.175 3.175 12.8 12.8 41.575 12.8 44.851 12.8h3.175c57.549 0 102.4-44.851 102.4-102.4 0-9.421-3.175-22.221-6.349-31.846zM441.549 143.975c12.8 3.174 28.774 19.251 31.949 57.549h-44.749c0-19.149-9.625-51.2-15.974-64 9.625 3.277 22.425 3.277 28.774 6.451zM358.4 134.349c9.625 0 22.425 0 35.226 3.174 6.349 12.8 15.974 48.025 15.974 67.174h-35.226c3.175 0 3.175-3.174 3.175-3.174 3.175-6.349 0-12.8-3.175-15.975s-15.974-3.174-22.425-3.174h-3.175c-3.175-15.975-3.175-35.225-6.349-41.575 9.625-6.451 12.8-6.451 15.974-6.451zM335.974 147.251c3.175 12.8 6.349 48.025 6.349 54.374v0h-25.6v-22.425c0.103 0 6.451-19.251 19.251-31.949zM51.2 227.226c3.175 3.174-3.175 12.8-12.8 25.6-9.626 9.626-19.251 15.975-19.251 12.8-3.175-9.625 28.877-41.575 32.051-38.4zM156.774 352.051c-6.349 0-9.625-6.349-9.625-12.8 0-6.349 3.174-12.8 9.625-12.8s9.625 6.349 9.625 12.8c0 6.349-3.174 12.8-9.625 12.8zM214.425 287.949c-3.174 6.349-9.625 19.251-31.949 19.251s-48.025 0-54.375 0c-6.349 0-15.975 0-15.975 9.625s-3.174 22.425-3.174 22.425-3.174 9.625-12.8 6.349c-9.626 0-54.374-9.625-54.374-9.625s-9.626 0-12.8-12.8c-6.349-6.349-6.349-19.251-9.625-22.425-6.349-3.175-6.349-9.625-6.349-9.625 0-3.175 3.174-12.8 6.349-9.625 3.175 0 137.625 6.349 195.174 3.175-0.102 0.103 3.072 0.103-0.102 3.277zM156.774 227.226c15.975-9.625 31.949-12.8 38.4-3.174 6.349 9.625-3.174 22.425-15.975 31.949-15.975 9.625-31.949 12.8-38.4 3.175-6.451-6.349 3.174-19.149 15.975-31.949zM143.975 195.174c-6.349 0-3.174-6.349 0-6.349 15.975-12.8 54.374-41.575 70.451-44.851 19.149-3.174 25.6-6.349 108.749-9.625 0 0 6.349 0 0 3.174-6.349 6.349-25.6 31.949-28.774 38.4 0 6.349-3.175 12.8-22.425 15.975-19.149 0.102-121.549 3.277-128 3.277zM265.625 387.175c-19.149 0-35.226-19.251-35.226-41.575s15.975-41.575 35.226-41.575c19.251 0 35.226 19.251 35.226 41.575 0 22.425-16.077 41.575-35.226 41.575z"></path>
</svg>
