<?xml version='1.0' encoding='iso-8859-1'?>
<!DOCTYPE svg PUBLIC '-//W3C//DTD SVG 1.1//EN' 'http://www.w3.org/Graphics/SVG/1.1/DTD/svg11.dtd'>
<!-- Generator: Adobe Illustrator 18.0.0, SVG Export Plug-In . SVG Version: 6.00 Build 0)  -->
<svg width="239.2" x="0px" version="1.1" y="0px" xmlns="http://www.w3.org/2000/svg" height="359.14" xmlns:xlink="http://www.w3.org/1999/xlink" style="enable-background:new 0 0 359.145 359.145" id="Capa_1" xml:space="preserve" xmlns:atv="http://webmi.atvise.com/2007/svgext">
 <defs/>
 <metadata>
  <atv:gridconfig width="20" enabled="false" height="20" gridstyle="lines"/>
  <atv:snapconfig width="10" enabled="false" height="10"/>
 </metadata>
 <g id="id_19" atv:refpx="119.599" atv:refpy="179.572">
  <path fill="#647a8f" id="id_0" atv:refpx="173.737" atv:refpy="116.216" stroke-width="1" d="M235.423,145.391L187.889,10.03C185.779,4.021 180.105,0 173.736,0C167.367,0 161.693,4.021 159.584,10.03L112.05,145.39C104.933,165.657 107.975,187.331 120.396,204.857C132.816,222.381 152.257,232.432 173.737,232.432C195.217,232.432 214.66,222.381 227.08,204.856C239.499,187.332 242.54,165.657 235.423,145.391M202.603,187.51C195.881,196.993 185.361,202.433 173.737,202.433C162.114,202.433 151.593,196.995 144.872,187.511C138.151,178.027 136.505,166.297 140.355,155.329L173.737,60.27L207.119,155.329C210.969,166.298 209.323,178.026 202.603,187.51"/>
  <path fill="#647a8f" id="id_1" atv:refpx="75.967" atv:refpy="259.988" stroke-width="1" d="M90.118,170.863C88.009,164.853 82.334,160.833 75.966,160.833C69.598,160.833 63.923,164.853 61.814,170.863L22.293,283.408C16.19,300.783 18.905,320.126 29.553,335.15C40.201,350.174 57.552,359.144 75.967,359.144C94.382,359.144 111.733,350.174 122.381,335.15C133.028,320.126 135.742,300.782 129.639,283.407ZM97.903,317.804C92.795,325.01 84.799,329.145 75.965,329.145C67.131,329.145 59.136,325.01 54.027,317.804C48.92,310.597 47.669,301.683 50.595,293.347L75.964,221.105L101.333,293.347C104.262,301.683 103.011,310.597 97.903,317.804"/>
  <path fill="#647a8f" id="id_2" atv:refpx="45.836" atv:refpy="79.625" stroke-width="1" d="M83.238,137.256C91.819,125.149 94.007,109.561 89.09,95.559L59.988,12.688C57.879,6.679 52.204,2.658 45.836,2.658C39.468,2.658 33.793,6.679 31.684,12.688L2.582,95.559C-2.334,109.561 -0.146,125.149 8.434,137.256C17.014,149.363 30.997,156.591 45.836,156.591C60.675,156.591 74.658,149.363 83.238,137.256M58.763,119.908C55.753,124.156 51.041,126.591 45.836,126.591C40.631,126.591 35.919,124.155 32.909,119.908C29.899,115.662 29.162,110.408 30.887,105.497L45.836,62.93L60.785,105.498C62.51,110.408 61.772,115.662 58.763,119.908"/>
 </g>
</svg>
