<?xml version='1.0' encoding='utf-8'?>
<!DOCTYPE svg PUBLIC '-//W3C//DTD SVG 1.1//EN' 'http://www.w3.org/Graphics/SVG/1.1/DTD/svg11.dtd'>
<!-- Generated by IcoMoon.io -->
<svg width="512" version="1.1" xmlns="http://www.w3.org/2000/svg" height="512" xmlns:xlink="http://www.w3.org/1999/xlink" xmlns:atv="http://webmi.atvise.com/2007/svgext">
 <defs/>
 <metadata>
  <atv:gridconfig width="20" enabled="false" height="20" gridstyle="lines"/>
  <atv:snapconfig width="10" enabled="false" height="10"/>
 </metadata>
 <g fill="#ffffff" id="icomoon-ignore" atv:refpx="0" atv:refpy="0"/>
 <path fill="#ffffff" id="id_0" atv:refpx="265.6" atv:refpy="24" stroke-width="1" d="M195.2,48L336,48C339.2,48 342.4,44.8 342.4,41.6L342.4,6.399C342.4,3.199 339.2,0 336,0L195.2,0C188.799,0 188.799,3.199 188.799,6.399L188.799,41.6C188.799,44.8 188.799,48 195.2,48"/>
 <path fill="#ffffff" id="id_1" atv:refpx="264" atv:refpy="265.6" stroke-width="1" d="M451.2,22.4L371.2,22.4C368,22.4 364.8,25.599 364.8,28.799L364.8,67.199C364.8,70.399 361.6,73.6 358.4,73.6L166.4,73.6C163.2,73.6 160,70.399 160,67.199L160,25.599C160,22.399 156.8,19.199 153.6,19.199L76.8,19.199C73.6,19.199 70.4,22.399 70.4,25.599L70.4,505.599C70.4,508.799 73.6,511.999 76.8,511.999L451.2,511.999C454.4,511.999 457.599,508.799 457.599,505.599L457.599,25.599C457.599,22.399 454.4,22.399 451.2,22.4M396.8,444.8L134.4,444.8C128,444.8 121.6,438.4 121.6,432C121.6,425.599 128,419.2 134.4,419.2L396.8,419.2C403.2,419.2 409.6,425.599 409.6,432C409.6,438.4 403.2,444.8 396.8,444.8M396.8,377.6L134.4,377.6C128,377.6 121.6,371.2 121.6,364.8C121.6,358.4 128,352 134.4,352L396.8,352C403.2,352 409.6,358.4 409.6,364.8C409.6,374.4 403.2,377.6 396.8,377.6M396.8,313.6L134.4,313.6C128,313.6 121.6,307.2 121.6,300.8C121.6,294.4 128,288 134.4,288L396.8,288C403.2,288 409.6,294.4 409.6,300.8C409.6,307.2 403.2,313.6 396.8,313.6M396.8,246.4L134.4,246.4C128,246.4 121.6,240 121.6,233.6C121.6,227.2 128,220.799 134.4,220.799L396.8,220.799C403.2,220.799 409.6,227.2 409.6,233.6C409.6,240 403.2,246.4 396.8,246.4M396.8,179.2L134.4,179.2C128,179.2 121.6,172.799 121.6,166.399C121.6,159.999 128,153.599 134.4,153.599L396.8,153.599C403.2,153.599 409.6,159.999 409.6,166.399C409.6,172.799 403.2,179.2 396.8,179.2"/>
</svg>
