<?xml version="1.0" encoding="UTF-8"?>
<!-- Generated by IcoMoon.io -->
<svg xmlns:xlink="http://www.w3.org/1999/xlink" xmlns:atv="http://webmi.atvise.com/2007/svgext" width="512" version="1.1" height="243" visibility="hidden" atv:oe="2BD6F3BA9386L2KEE9ICI6H8M7O4P31F365AECD499I181IBLDHCP3HBN5KFQDC83" xmlns="http://www.w3.org/2000/svg">
 <defs/>
 <metadata/>
 <ellipse cx="275" cy="68" fill="#3a63c3" id="id_33" rx="34" ry="96" stroke="#e1676f" stroke-width="5"/>
 <ellipse cx="247" cy="176" fill="#172fb7" id="id_30" rx="190" ry="6" stroke="#9dccec" stroke-width="5"/>
 <rect fill="#209cf7" height="156" id="id_26" stroke="#627408" stroke-width="4" width="70" x="435" y="70"/>
 <line fill="#e20200" id="id_25" stroke="#ac54cd" stroke-width="2" x1="130" x2="346" y1="207" y2="155"/>
 <circle cx="74" cy="173" fill="#0d1cba" id="id_23" r="66" stroke="#e72b2f" stroke-width="1"/>
 <ellipse cx="459" cy="220" fill="#c737ec" id="id_19" rx="27" ry="108" stroke="#44e6d6" stroke-width="4"/>
 <g id="id_1" atv:refpx="255.991" atv:refpy="121.502" transform="matrix(0.9249,0,0,0.8036,19.2352,-60.8053)">
  <rect fill="#f8b9c5" height="53" id="id_32" stroke="#fcccee" stroke-width="3" width="2" x="508" y="119"/>
  <polygon fill="#2a342b" id="id_31" points="170,56 281,4 443,141 19,146 186,171 422,102 295,1 487,222 78,99 404,188 " stroke="#6692bf" stroke-width="1"/>
  <polyline fill="#30a8f4" id="id_29" points="159,209 120,13 459,181 504,234 60,110 51,12 194,181 32,33 298,55 69,93 428,140 183,146 144,89 " stroke="#a092f4" stroke-width="4"/>
  <rect fill="#5113d8" height="47" id="id_28" stroke="#a9baa3" stroke-width="5" width="21" x="491" y="34"/>
  <polygon fill="#e5e179" id="id_27" points="211,107 85,60 197,71 287,12 445,4 295,41 311,224 " stroke="#98b167" stroke-width="5"/>
  <polyline fill="#4cc77f" id="id_24" points="326,85 375,0 114,120 35,126 467,149 472,103 502,58 50,82 268,15 114,67 361,184 " stroke="#23670f" stroke-width="1"/>
  <polyline fill="#0180d3" id="id_22" points="317,100 97,164 385,116 217,216 494,97 161,144 203,218 248,98 316,70 433,212 331,241 " stroke="#5ef784" stroke-width="1"/>
  <ellipse cx="509" cy="106" fill="#1fcce4" id="id_21" rx="242" ry="94" stroke="#867696" stroke-width="5"/>
  <polyline fill="#c0af32" id="id_20" points="112,136 252,197 122,15 60,98 251,8 " stroke="#30da6e" stroke-width="4"/>
  <path fill="#647A8F" id="id_0" atv:refpx="256" atv:refpy="226.848" d="M115.616,91.008L101.856,105.344L116.064,110.88ZM33.28,126.656L13.824,122.656L24.736,139.264ZM77.984,85.44L71.776,104.32L86.976,103.136ZM150.912,158.016L166.176,145.28L146.368,143.456ZM147.072,112.384L128.448,119.328L138.848,130.464ZM57.44,108.768L41.664,96.704L44.288,116.416ZM76.96,170.176L143.04,170.176C143.007,165.248 143.04,167.872 142.976,167.232C140.512,134.976 112.32,110.271 80.032,112.768C47.744,115.264 23.616,143.168 26.08,175.456C27.68,196.032 39.744,214.24 56.608,223.424ZM19.264,153.248L0,158.079L17.024,168.32ZM471.36,180L86.24,180L45.056,293.792L52.544,312.096L97.568,312L97.568,362.336C97.568,362.336 98.4,368.256 104.96,368.256C111.616,368.256 112.32,362.336 112.32,362.336L112.32,311.968L456.352,311.328L456.352,362.304C456.352,362.304 457.183,368.224 463.744,368.224C470.4,368.224 471.104,362.304 471.104,362.304L471.104,311.36L508.671,311.36L511.999,289.376ZM478.784,243.904L423.424,243.904L416,219.328L470.816,219.328ZM461.216,194.752L465.984,209.504L412.544,209.504L408.416,194.752ZM401.12,194.752L405.28,209.504L337.184,209.504L335.008,194.752ZM230.048,194.752L327.904,194.752L330.08,209.504L228.384,209.504ZM227.008,219.328L331.872,219.328L335.776,243.904L224.032,243.904ZM156.896,194.752L223.04,194.752L221.376,209.504L153.472,209.504ZM96.64,194.752L149.76,194.752L146.304,209.504L92.192,209.504ZM87.712,219.328L143.456,219.328L137.28,243.904L80.32,243.904ZM66.912,288.128L77.312,253.727L135.584,253.727L127.584,288.128ZM212.288,288.128L134.688,288.128L142.752,253.727L216.16,253.727ZM144.448,243.904L150.624,219.328L219.968,219.328L216.992,243.904ZM219.264,288.128L223.2,253.727L336.896,253.727L341.984,288.128ZM338.976,219.328L408.704,219.328L416.16,243.904L342.912,243.904ZM348.992,288.128L343.936,253.727L418.144,253.727L427.744,288.128ZM435.168,288.128L425.44,253.727L481.952,253.727L493.12,288.128ZM22.016,228.928L40.64,221.984L30.24,210.816ZM18.208,183.296L2.911,196L22.72,197.856Z"/>
  <line fill="#019b13" id="id_18" stroke="#fb5274" stroke-width="3" x1="441" x2="435" y1="51" y2="167"/>
  <polyline fill="#6f4e77" id="id_17" points="472,233 91,85 212,44 394,103 437,73 " stroke="#3fb697" stroke-width="3"/>
  <line fill="#3a411d" id="id_16" stroke="#8fcf63" stroke-width="3" x1="162" x2="151" y1="67" y2="142"/>
  <rect fill="#ab23a2" height="60" id="id_15" stroke="#45472b" stroke-width="2" width="275" x="68" y="1"/>
  <ellipse cx="456" cy="64" fill="#dd804c" id="id_12" rx="65" ry="105" stroke="#5dc335" stroke-width="2"/>
  <line fill="#5ab139" id="id_9" stroke="#501d89" stroke-width="4" x1="291" x2="77" y1="7" y2="14"/>
  <polygon fill="#be8f83" id="id_8" points="385,21 47,83 387,14 109,131 410,81 110,182 152,137 181,118 " stroke="#33ebec" stroke-width="3"/>
  <line fill="#6719cb" id="id_7" stroke="#faca2c" stroke-width="2" x1="147" x2="483" y1="210" y2="98"/>
  <ellipse cx="331" cy="16" fill="#17f7df" id="id_4" rx="241" ry="120" stroke="#2dc640" stroke-width="5"/>
  <circle cx="404" cy="209" fill="#52474c" id="id_2" r="166" stroke="#bed1cd" stroke-width="4"/>
 </g>
 <script xlink:href="../../webmi.js" type="text/ecmascript"/>
 <script type="text/ecmascript"><![CDATA[webMI.proxy({"":[function(webMI,window,document,self){},{},{"Icon":""}]},window);]]></script>
</svg>
