<?xml version="1.0" encoding="UTF-8"?>
<!-- Generated by IcoMoon.io -->
<svg xmlns:xlink="http://www.w3.org/1999/xlink" xmlns:atv="http://webmi.atvise.com/2007/svgext" width="512" version="1.1" height="243" visibility="hidden" atv:oe="2BD6F3BA9386L2KEE9ICI6H8M7O4P31F365AECD499I181IBLDHCP3HBN5KFQDC83" xmlns="http://www.w3.org/2000/svg">
 <defs/>
 <metadata/>
 <circle cx="39" cy="130" fill="#5ba3a9" id="id_33" r="58" stroke="#1d145c" stroke-width="2"/>
 <circle cx="305" cy="233" fill="#461de8" id="id_32" r="131" stroke="#da9976" stroke-width="1"/>
 <rect fill="#d9285b" height="173" id="id_31" stroke="#5a962b" stroke-width="4" width="3" x="489" y="62"/>
 <rect fill="#bc4dba" height="4" id="id_30" stroke="#6a5c95" stroke-width="5" width="11" x="472" y="237"/>
 <ellipse cx="265" cy="5" fill="#f69f48" id="id_28" rx="148" ry="7" stroke="#9ff42f" stroke-width="4"/>
 <g id="icomoon-ignore" atv:refpx="0" atv:refpy="0"/>
 <ellipse cx="335" cy="89" fill="#af3d62" id="id_17" rx="226" ry="96" stroke="#a804e0" stroke-width="1"/>
 <circle cx="362" cy="45" fill="#a954e5" id="id_10" r="34" stroke="#166bf0" stroke-width="4"/>
 <polygon fill="#1a1c5b" id="id_6" points="221,46 239,109 121,20 473,64 0,66 " stroke="#757181" stroke-width="1"/>
 <circle cx="158" cy="151" fill="#9025ab" id="id_4" r="67" stroke="#d2da16" stroke-width="3"/>
 <rect fill="#4ee70e" height="57" id="id_2" stroke="#94364e" stroke-width="5" width="237" x="229" y="85"/>
 <polyline fill="#37bc7c" id="id_29" points="110,59 472,200 154,241 353,0 18,236 " stroke="#e1da9a" stroke-width="4"/>
 <ellipse cx="242" cy="70" fill="#026c4b" id="id_26" rx="48" ry="15" stroke="#c430e6" stroke-width="2"/>
 <line fill="#7c22ee" id="id_25" stroke="#fb772b" stroke-width="3" x1="172" x2="53" y1="151" y2="127"/>
 <polygon fill="#5f5f2e" id="id_16" points="296,173 257,52 501,242 318,60 88,152 313,23 401,195 62,157 25,210 284,162 490,204 304,207 " stroke="#ceee52" stroke-width="3"/>
 <g id="id_1" atv:refpx="256.003" atv:refpy="121.503" transform="matrix(0.6656,0,0,0.6656,85.5954,-53.2316)">
  <polyline fill="#a8cae1" id="id_27" points="164,230 474,110 506,174 427,141 185,43 46,213 39,221 261,237 109,141 137,188 141,160 382,128 330,173 155,79 " stroke="#4dbd1a" stroke-width="5"/>
  <line fill="#8c6296" id="id_24" stroke="#7c40fc" stroke-width="1" x1="17" x2="176" y1="202" y2="75"/>
  <ellipse cx="179" cy="171" fill="#f8568f" id="id_23" rx="139" ry="57" stroke="#53f7f7" stroke-width="2"/>
  <polygon fill="#4a2442" id="id_22" points="227,16 351,229 358,232 2,208 216,63 451,190 154,90 370,126 399,33 160,170 33,160 502,167 497,138 46,105 " stroke="#9c984a" stroke-width="2"/>
  <polygon fill="#180ff9" id="id_21" points="501,160 58,139 302,212 428,65 332,129 111,200 410,127 " stroke="#4bc78f" stroke-width="5"/>
  <ellipse cx="264" cy="131" fill="#c76297" id="id_20" rx="113" ry="105" stroke="#6e3dc5" stroke-width="1"/>
  <path fill="#647A8F" id="id_0" atv:refpx="256" atv:refpy="262.501" d="M297.575,96.051C294.4,92.877 294.4,92.877 291.226,92.877L220.877,92.877C220.877,92.877 217.703,92.877 217.703,96.051L150.529,160.051C150.529,160.051 147.355,163.225 147.355,166.399L147.355,188.825C147.355,191.999 150.529,195.173 153.703,195.173C156.878,195.173 166.504,191.999 166.504,188.825L166.504,176.024L217.704,176.024L217.704,185.649L150.53,252.823L150.53,278.424C150.53,284.772 153.704,288.049 156.879,288.049C160.053,288.049 163.227,284.873 163.227,281.7L163.227,265.726L211.253,265.726L176.027,422.5C176.027,425.675 179.201,432.125 182.375,432.125C182.375,432.125 182.375,432.125 185.549,432.125C188.724,432.125 191.898,428.95 191.898,425.776L191.898,419.427L255.898,374.678L316.724,419.427L316.724,425.776C316.724,428.951 323.073,432.125 326.349,432.125C329.525,432.125 332.698,425.776 332.698,422.5L300.749,265.726L348.775,265.726L348.775,278.526C348.775,284.875 351.95,288.151 355.124,288.151C358.298,288.151 361.473,284.976 361.473,281.802L361.473,253.028L297.473,189.028L297.473,176.228L348.673,176.228L348.673,189.028C348.673,192.202 351.848,195.377 355.022,195.377C358.196,195.377 361.371,192.203 361.371,189.028L361.371,166.603C361.371,163.429 361.371,163.429 358.196,160.254L297.575,96.049ZM294.4,307.2L268.799,287.949L284.773,271.975L294.398,307.201ZM271.974,176.025L255.999,198.45L243.198,176.025ZM240.025,159.949L256,143.974L275.251,159.949ZM281.6,188.826C281.6,192 281.6,192 281.6,188.826L281.6,230.401L265.626,211.15L281.6,188.827ZM278.425,249.651L236.85,249.651L256.101,224.051L278.424,249.651ZM268.8,265.625L256,275.25L246.375,265.625ZM281.6,147.251L268.8,134.451L281.6,121.651ZM271.974,108.749L255.999,121.652L243.198,108.852L271.974,108.852ZM230.4,118.374L246.375,134.347L230.4,150.424ZM230.4,188.826L246.375,211.251L230.4,233.574L230.4,188.825ZM227.226,271.974L246.477,287.948L217.703,310.373L227.226,271.973ZM172.851,159.949L214.426,118.374L214.426,159.949ZM172.851,249.651L214.426,208.076L214.426,249.651ZM198.451,399.974L211.251,342.425L243.2,364.85L198.451,399.973ZM256,355.226L217.6,329.626L256,297.676L294.4,329.626ZM300.851,342.425L313.651,396.8L268.902,364.851L300.851,342.426ZM339.149,249.651L297.574,249.651L297.574,208.076ZM297.575,159.949L297.575,115.098L342.426,159.949ZM137.625,224.051L3.174,271.974C3.174,271.974 0,271.974 3.174,275.149C3.174,275.149 3.174,275.149 6.349,275.149L140.698,236.749C140.698,236.749 140.698,236.749 140.698,233.575L137.626,224.052C140.8,227.226 137.626,227.226 137.626,224.052ZM3.175,259.175L128.001,195.175C128.001,195.175 128.001,195.175 128.001,192.001L128.001,182.376C128.001,182.376 128.001,182.376 128.001,179.202C128.001,179.202 128.001,179.202 124.827,179.202L0.001,256.002C0.001,256.002 0.001,256.002 3.176,259.177C0.001,259.177 0.001,259.177 3.176,259.177ZM128,271.974L6.349,287.948C6.349,287.948 3.174,287.948 3.174,291.123C3.174,291.123 3.174,294.298 6.349,294.298L128,284.673C128,284.673 131.174,284.673 131.174,281.498ZM128,271.974C131.174,275.251 131.174,275.251 128,271.974M512,256L387.174,182.375C387.174,182.375 387.174,182.375 383.998,182.375C383.998,182.375 383.998,182.375 383.998,185.549L383.998,192C383.998,192 383.998,192 383.998,195.174L508.823,259.173C511.998,259.173 511.998,259.173 511.998,255.999ZM505.651,287.949L384,271.975C384,271.975 384,271.975 380.825,271.975C380.825,271.975 380.825,271.975 380.825,275.15L380.825,281.499C380.825,281.499 380.825,284.674 384,284.674L505.651,291.023C505.651,291.228 508.826,291.228 505.651,287.951C508.826,287.951 508.826,287.951 505.651,287.951ZM508.825,271.974L374.476,223.948C374.476,223.948 374.476,223.948 371.301,223.948C371.301,223.948 371.301,223.948 371.301,227.123L371.301,236.646L505.65,275.046C508.825,275.251 508.825,275.251 508.825,271.974C512,271.974 508.825,271.974 508.825,271.974"/>
  <line fill="#1d8139" id="id_19" stroke="#4047f9" stroke-width="4" x1="277" x2="128" y1="106" y2="137"/>
  <polyline fill="#efd141" id="id_18" points="416,62 501,21 137,178 284,213 157,29 51,165 298,59 " stroke="#440ca0" stroke-width="4"/>
  <circle cx="472" cy="74" fill="#8c29d3" id="id_15" r="98" stroke="#3b2a86" stroke-width="1"/>
  <line fill="#877ada" id="id_14" stroke="#72aca0" stroke-width="4" x1="456" x2="16" y1="181" y2="49"/>
  <polygon fill="#a299f1" id="id_9" points="121,51 363,86 176,70 160,28 256,233 158,43 357,198 204,106 " stroke="#5e8da7" stroke-width="4"/>
  <polygon fill="#978a80" id="id_7" points="417,195 359,86 223,115 479,147 95,9 251,155 88,53 437,194 120,230 340,45 " stroke="#eb4666" stroke-width="2"/>
  <polygon fill="#82ab98" id="id_3" points="70,187 416,53 104,88 432,59 137,183 408,105 " stroke="#56bda3" stroke-width="3"/>
 </g>
 <script xlink:href="../../webmi.js" type="text/ecmascript"/>
 <script type="text/ecmascript"><![CDATA[webMI.proxy({"":[function(webMI,window,document,self){},{},{}]},window);]]></script>
</svg>
