<?xml version="1.0" encoding="UTF-8"?>
<svg xmlns:xlink="http://www.w3.org/1999/xlink" xmlns:atv="http://webmi.atvise.com/2007/svgext" width="20" version="1.0" height="20" id="Yes_check" visibility="hidden" atv:oe="2BC6E3BA9386L2KEE9ICI6H8M7O4P31F365AECD499I181IBLDHCP3HBN5KFQDC83" xmlns="http://www.w3.org/2000/svg">
 <defs id="defs1373">
  <linearGradient id="linearGradient2250">
   <stop offset="0" stop-color="#008700" stop-opacity="1"/>
   <stop offset="1" stop-color="#006f00" stop-opacity="1"/>
  </linearGradient>
 </defs>
 <metadata/>
 <rect fill="#c02f3e" height="12" id="id_33" stroke="#46983e" stroke-width="4" width="6" x="14" y="5"/>
 <circle cx="4" cy="11" fill="#284325" id="id_32" r="3" stroke="#ab6873" stroke-width="4"/>
 <rect fill="#150a7d" height="11" id="id_31" stroke="#b34e48" stroke-width="5" width="17" x="3" y="9"/>
 <polyline fill="#2631be" id="id_30" points="5,7 12,8 12,18 17,17 0,6 8,7 " stroke="#5d2025" stroke-width="1"/>
 <rect fill="#414f34" height="3" id="id_29" stroke="#a11436" stroke-width="3" width="5" x="15" y="16"/>
 <line fill="#81291b" id="id_28" stroke="#663455" stroke-width="3" x1="3" x2="16" y1="6" y2="10"/>
 <polyline fill="#4cfeb4" id="id_27" points="11,10 13,6 5,13 19,4 17,13 2,14 18,18 17,5 12,8 " stroke="#cfa20b" stroke-width="1"/>
 <rect fill="#fbc7ce" height="2" id="id_26" stroke="#10961d" stroke-width="5" width="11" x="6" y="11"/>
 <polyline fill="#97bbef" id="id_25" points="11,9 19,9 15,18 1,4 12,17 15,15 9,0 2,1 9,12 18,10 19,0 17,3 12,0 5,11 " stroke="#c6a893" stroke-width="4"/>
 <line fill="#3ba09f" id="id_24" stroke="#fd283a" stroke-width="1" x1="19" x2="7" y1="11" y2="9"/>
 <circle cx="10" cy="0" fill="#7f8161" id="id_23" r="7" stroke="#8a168e" stroke-width="4"/>
 <circle cx="11" cy="12" fill="#eea843" id="id_22" r="6" stroke="#7bb864" stroke-width="2"/>
 <polyline fill="#03b111" id="id_21" points="15,12 5,8 3,4 4,11 1,2 5,10 9,4 8,12 2,5 17,14 2,6 0,17 18,12 " stroke="#b74832" stroke-width="4"/>
 <ellipse cx="19" cy="16" fill="#ef1336" id="id_20" rx="5" ry="4" stroke="#2c2eb1" stroke-width="5"/>
 <rect fill="#74979f" height="6" id="id_19" stroke="#ed16b3" stroke-width="5" width="2" x="11" y="12"/>
 <circle cx="5" cy="15" fill="#a3a655" id="id_18" r="0" stroke="#19077c" stroke-width="5"/>
 <polygon points="2.661,10.134 1.306,11.529 7.773,19.274 18.693,1.654 17.338,0.725 7.231,13.233" fill="#000000" stroke="none" id="id_3" atv:refpx="10" stroke-width="1" atv:refpy="10"/>
 <polyline fill="#63eeb6" id="id_17" points="2,19 8,13 16,3 0,5 0,0 19,5 15,6 17,15 7,0 10,15 17,11 10,9 " stroke="#b50089" stroke-width="3"/>
 <polyline fill="#a61dfd" id="id_16" points="11,10 2,19 7,0 10,2 13,14 16,7 5,1 18,15 17,17 10,4 4,0 " stroke="#e3a2f5" stroke-width="1"/>
 <circle cx="14" cy="3" fill="#0a3509" id="id_15" r="5" stroke="#87890c" stroke-width="1"/>
 <polyline fill="#c61d45" id="id_14" points="9,13 6,19 4,10 15,14 17,11 10,2 3,5 " stroke="#9b3112" stroke-width="2"/>
 <polygon fill="#d87670" id="id_13" points="3,19 9,4 4,17 11,9 18,15 " stroke="#caac65" stroke-width="3"/>
 <polyline fill="#b09bf7" id="id_12" points="5,6 6,19 10,5 4,13 1,16 8,19 19,15 10,11 10,6 " stroke="#3e3c35" stroke-width="4"/>
 <circle cx="4" cy="10" fill="#559565" id="id_11" r="5" stroke="#743f36" stroke-width="3"/>
 <polyline fill="#a65dfe" id="id_10" points="17,4 16,15 14,18 11,10 4,8 13,12 18,1 15,13 6,15 " stroke="#48eef7" stroke-width="4"/>
 <circle cx="6" cy="12" fill="#495b0e" id="id_9" r="1" stroke="#afc9c2" stroke-width="3"/>
 <ellipse cx="4" cy="3" fill="#732475" id="id_8" rx="4" ry="1" stroke="#934047" stroke-width="4"/>
 <rect fill="#8e5f21" height="0" id="id_7" stroke="#fc55da" stroke-width="1" width="2" x="6" y="6"/>
 <polyline fill="#167a3a" id="id_6" points="9,9 19,0 12,1 15,2 1,6 14,10 2,8 7,17 16,6 17,4 0,2 9,8 14,15 " stroke="#f38904" stroke-width="1"/>
 <rect fill="#c02f3e" height="12" id="id_5" stroke="#46983e" stroke-width="4" width="6" x="14" y="5"/>
 <circle cx="4" cy="11" fill="#284325" id="id_4" r="3" stroke="#ab6873" stroke-width="4"/>
 <rect fill="#150a7d" height="11" id="id_2" stroke="#b34e48" stroke-width="5" width="17" x="3" y="9"/>
 <polyline fill="#2631be" id="id_1" points="5,7 12,8 12,18 17,17 0,6 8,7 " stroke="#5d2025" stroke-width="1"/>
 <script xlink:href="../../webmi.js" type="text/ecmascript"/>
 <script type="text/ecmascript"><![CDATA[webMI.proxy({"":[function(webMI,window,document,self){},{},{"symbolColor":"#000000"}]},window);]]></script>
</svg>
