<?xml version="1.0" encoding="UTF-8"?>
<!-- Generated by IcoMoon.io -->
<svg xmlns:xlink="http://www.w3.org/1999/xlink" xmlns:atv="http://webmi.atvise.com/2007/svgext" width="512" version="1.1" height="243.2" visibility="hidden" atv:oe="2BC6E3AA8376K2JED9HCH6G8L7N4O2GF264ADCC489H171HBKDGCO3GBM5JFPCR82" xmlns="http://www.w3.org/2000/svg">
 <defs/>
 <metadata/>
 <line fill="#9dddf8" id="id_32" stroke="#14a8dd" stroke-width="2" x1="174" x2="408" y1="208" y2="209"/>
 <ellipse cx="373" cy="132" fill="#2b97d8" id="id_28" rx="204" ry="102" stroke="#0ed844" stroke-width="5"/>
 <line fill="#855201" id="id_26" stroke="#aad1f4" stroke-width="5" x1="510" x2="9" y1="123" y2="86"/>
 <line fill="#451e6c" id="id_23" stroke="#ba1d04" stroke-width="2" x1="298" x2="38" y1="237" y2="117"/>
 <ellipse cx="251" cy="96" fill="#fece1a" id="id_22" rx="197" ry="70" stroke="#3f1eb4" stroke-width="3"/>
 <circle cx="292" cy="69" fill="#92b7a3" id="id_20" r="187" stroke="#17c9a0" stroke-width="2"/>
 <polygon fill="#17463f" id="id_19" points="436,171 508,230 42,98 55,4 189,172 60,32 " stroke="#389e6b" stroke-width="3"/>
 <g id="icomoon-ignore" atv:refpx="0" atv:refpy="0" transform="matrix(1,0,0,1,0,-124.8)"/>
 <polyline fill="#26e4d7" id="id_18" points="190,169 408,34 135,158 490,180 102,44 123,222 349,40 280,78 410,226 139,138 100,28 227,73 123,50 168,55 " stroke="#aa1055" stroke-width="4"/>
 <circle cx="211" cy="241" fill="#88a579" id="id_17" r="19" stroke="#b48498" stroke-width="2"/>
 <ellipse cx="353" cy="3" fill="#0853c7" id="id_16" rx="132" ry="8" stroke="#54cd4f" stroke-width="3"/>
 <polygon fill="#260498" id="id_12" points="12,7 402,130 285,152 462,69 452,128 42,101 " stroke="#632369" stroke-width="3"/>
 <ellipse cx="371" cy="109" fill="#ed0e8c" id="id_11" rx="196" ry="103" stroke="#7ae171" stroke-width="3"/>
 <circle cx="325" cy="47" fill="#4a5762" id="id_9" r="187" stroke="#f092af" stroke-width="3"/>
 <polygon fill="#25d96d" id="id_7" points="107,102 491,81 238,153 20,221 494,96 371,76 165,165 232,19 268,211 440,81 270,162 438,50 500,55 175,189 " stroke="#e2f399" stroke-width="2"/>
 <polyline fill="#475b48" id="id_3" points="508,144 297,224 332,190 248,238 1,1 68,93 94,195 99,47 362,231 481,18 " stroke="#d09493" stroke-width="2"/>
 <polygon fill="#c7b450" id="id_31" points="115,145 67,146 27,3 449,154 103,96 53,219 410,41 417,32 428,149 348,53 179,111 " stroke="#56bf80" stroke-width="3"/>
 <circle cx="435" cy="166" fill="#2720c3" id="id_30" r="17" stroke="#5e704c" stroke-width="1"/>
 <polygon fill="#559237" id="id_29" points="266,27 124,143 228,10 150,173 296,28 95,95 " stroke="#67969e" stroke-width="4"/>
 <line fill="#2ff3dc" id="id_27" stroke="#f47474" stroke-width="2" x1="114" x2="122" y1="88" y2="178"/>
 <ellipse cx="384" cy="148" fill="#f4bc28" id="id_25" rx="31" ry="87" stroke="#662942" stroke-width="5"/>
 <polygon fill="#3c7788" id="id_24" points="11,29 486,156 162,217 77,187 408,196 38,141 297,229 438,54 176,161 249,228 135,189 228,86 292,241 112,62 " stroke="#f2f85b" stroke-width="5"/>
 <polyline fill="#2c5b67" id="id_21" points="178,177 19,84 177,179 130,38 325,221 460,29 77,118 198,235 " stroke="#22fa03" stroke-width="5"/>
 <polyline fill="#1b5fc2" id="id_15" points="386,18 36,79 336,174 100,76 169,51 198,113 428,148 380,25 108,191 " stroke="#3b0fa6" stroke-width="4"/>
 <path fill="#647A8F" id="i_battery" atv:refpx="256.001" atv:refpy="121.6" stroke-width="1" d="M434.053,115.6C425.151,115.6 419.216,118.598 413.282,118.598L413.282,64.62L324.253,7.646L324.253,196.567L374.702,178.575C377.67,208.562 401.411,232.555 434.053,232.555C466.697,232.555 493.406,205.563 493.406,172.577C493.406,142.589 466.697,115.6 434.053,115.6M434.053,226.555C407.346,226.555 381.434,203.775 381.434,176.787C381.434,176.787 381.573,176.089 381.573,176.089C381.573,155.099 390.903,136.078 408.71,130.079C414.644,127.081 428.119,124.594 434.053,124.594C460.76,124.594 486.027,148.073 486.027,175.062C486.027,202.05 460.76,226.555 434.053,226.555M229.29,190.57L267.868,193.569L267.868,106.603L229.29,109.601ZM86.848,115.6C83.88,115.6 80.91,115.6 77.946,115.6C45.3,115.6 18.593,142.589 18.593,175.577C18.593,208.562 45.302,235.553 77.946,235.553C107.621,235.553 134.327,211.562 137.295,181.574L226.324,190.57L226.324,106.603L273.805,100.605L273.805,190.57L318.319,193.569L318.319,7.646L86.848,64.62ZM128.394,172.577C128.394,175.577 128.394,178.575 128.394,178.575C125.427,202.565 104.653,223.557 77.946,223.557C51.234,223.557 27.495,199.565 27.495,172.577C27.495,145.589 51.236,121.596 77.946,121.596C80.912,121.596 83.88,121.596 86.848,121.596C110.587,127.594 128.394,148.587 128.394,172.577M86.848,145.589L69.043,145.589L69.043,166.581L48.266,166.581L48.266,187.57L69.043,187.57L69.043,208.562L89.812,208.562L89.812,187.57L107.621,187.57L107.621,166.581L86.848,166.581ZM401.411,187.57L460.76,187.57L460.76,166.581L401.411,166.581Z"/>
 <line fill="#df48a8" id="id_14" stroke="#24be00" stroke-width="5" x1="268" x2="143" y1="52" y2="196"/>
 <circle cx="174" cy="210" fill="#eeb99e" id="id_13" r="178" stroke="#0ee114" stroke-width="5"/>
 <circle cx="73" cy="6" fill="#9cd80a" id="id_10" r="170" stroke="#200833" stroke-width="5"/>
 <polygon fill="#be9b67" id="id_8" points="457,198 100,79 265,216 237,146 430,217 19,100 174,189 204,28 286,21 435,71 349,218 276,203 4,89 113,62 " stroke="#0e5d82" stroke-width="1"/>
 <line fill="#a59835" id="id_6" stroke="#9dddf8" stroke-width="1" x1="247" x2="323" y1="203" y2="9"/>
 <rect fill="#feccc7" height="23" id="id_5" stroke="#2b97d8" stroke-width="5" width="2" x="477" y="131"/>
 <ellipse cx="324" cy="63" fill="#5009d0" id="id_4" rx="193" ry="17" stroke="#855201" stroke-width="2"/>
 <line fill="#8126b2" id="id_2" stroke="#451e6c" stroke-width="4" x1="500" x2="479" y1="94" y2="11"/>
 <circle cx="4" cy="126" fill="#fbaac5" id="id_1" r="182" stroke="#1bfece" stroke-width="2"/>
 <script xlink:href="../../webmi.js" type="text/ecmascript"/>
 <script type="text/ecmascript"><![CDATA[webMI.proxy({"":[function(webMI,window,document,self){},{},{"Color":"#647A8F","Height":"","Icon Battery":"","Width":""}]},window);]]></script>
</svg>
