<?xml version="1.0" encoding="utf-8"?>
<!-- Generator: Adobe Illustrator 17.1.0, SVG Export Plug-In . SVG Version: 6.00 Build 0)  -->
<!DOCTYPE svg PUBLIC "-//W3C//DTD SVG 1.1//EN" "http://www.w3.org/Graphics/SVG/1.1/DTD/svg11.dtd">
<svg version="1.1" id="Ebene_1" xmlns="http://www.w3.org/2000/svg" xmlns:xlink="http://www.w3.org/1999/xlink" x="0px" y="0px"
	 viewBox="0 0 320.3 80.6" enable-background="new 0 0 320.3 80.6" xml:space="preserve">
<g>
	<path fill="#DBD600" d="M0,0l18.7,40.2l8-17.7L19.9,7.6L0,0z M34.9,40.1l-8,17.7l0,0L34.9,40.1L34.9,40.1z"/>
	<g>
		<path fill="#00ABE5" d="M26.8,22.4L26.8,22.4l8.1,17.7l0,0L26.8,22.4z M18.7,40.2L0.5,80.6l19.8-7.8l6.7-14.9L18.7,40.2z"/>
		<polygon fill="#129939" points="26.8,22.5 18.7,40.2 26.9,57.9 34.9,40.1 		"/>
		<g>
			<path fill="#00ACE5" d="M69.9,26.9c-7.2,0-13,5.8-13,13c0,7.2,5.8,13,13,13c2.6,0,5.2-0.8,7.3-2.3c-2.1-2.1-3.2-3.2-3.8-3.8
				c-0.3-0.3-0.6-0.6-0.8-0.8c-0.9-0.9-0.9-2.4,0-3.3c0.9-0.9,2.5-0.9,3.4,0l4.5,4.6c1.5-2.2,2.3-4.7,2.3-7.4
				C82.9,32.8,77,26.9,69.9,26.9 M69.9,57.7c-9.8,0-17.8-8-17.8-17.8c0-9.8,8-17.8,17.8-17.8c9.8,0,17.8,8,17.8,17.8
				c0,3.9-1.3,7.7-3.6,10.8l2.9,2.9c0.9,0.9,0.9,2.4,0,3.4c-0.9,0.9-2.5,0.9-3.4,0l-2.9-2.9C77.5,56.5,73.8,57.7,69.9,57.7"/>
			<path fill="#00ACE5" d="M107.3,57.7c-1.3,0-2.4-1.1-2.4-2.4V24.5c0-1.3,1.1-2.4,2.4-2.4c1.3,0,2.4,1.1,2.4,2.4v30.8
				C109.7,56.7,108.7,57.7,107.3,57.7"/>
			<path fill="#00ACE5" d="M163.8,57.7c-1,0-1.6-0.6-1.8-0.8l-26.6-26.6v25c0,1.3-1.1,2.4-2.4,2.4c-1.3,0-2.4-1.1-2.4-2.4V24.5
				c0-1.3,1.1-2.4,2.4-2.4c0.7,0,1.2,0.3,1.8,0.8l26.6,26.6v-25c0-1.3,1.1-2.4,2.4-2.4c1.3,0,2.4,1.1,2.4,2.4v30.8
				C166.2,56.7,165.1,57.7,163.8,57.7"/>
			<path fill="#00ACE5" d="M202.3,26.9c-7.2,0-13,5.8-13,13c0,7.2,5.8,13,13,13c7.2,0,13-5.8,13-13
				C215.4,32.8,209.5,26.9,202.3,26.9 M202.3,57.7c-9.8,0-17.8-8-17.8-17.8c0-9.8,8-17.8,17.8-17.8c9.8,0,17.8,8,17.8,17.8
				C220.1,49.8,212.2,57.7,202.3,57.7"/>
			<path fill="#00ACE5" d="M254.5,57.7c-9.1,0-16.5-7.4-16.5-16.5V24.5c0-1.3,1.1-2.4,2.4-2.4c1.3,0,2.4,1.1,2.4,2.4v16.7
				c0,6.5,5.3,11.7,11.7,11.7c6.5,0,11.7-5.3,11.7-11.7V24.5c0-1.3,1.1-2.4,2.4-2.4c1.3,0,2.4,1.1,2.4,2.4v16.7
				C271,50.3,263.6,57.7,254.5,57.7"/>
			<path fill="#00ACE5" d="M305.3,57.7h-1.5c-4,0-8.7-0.9-11.8-2.2c-1.2-0.5-1.9-1.8-1.5-3c0.3-1,1.2-1.7,2.2-1.7
				c0.3,0,0.6,0.1,0.9,0.2c3.4,1.3,6.7,2,10.2,2h1.5c6.8,0,10.2-1.8,10.2-5.3c0-3.5-3.4-5.3-10.2-5.3c-9.4,0-15-3.8-15-10.1
				c0-6.1,5.9-10.1,15-10.1c3.9,0,8.7,0.9,11.7,2.2c1.2,0.4,1.9,1.8,1.5,3.1c-0.5,1.2-1.9,1.9-3.2,1.4c-2.5-1-5.5-1.9-10.1-1.9
				c-6.8,0-10.2,1.8-10.2,5.3c0,3.5,3.4,5.3,10.2,5.3c9.5,0,15,3.7,15,10.1C320.3,53.8,314.4,57.7,305.3,57.7"/>
		</g>
	</g>
</g>
</svg>
