<?xml version="1.0" encoding="utf-8"?>
<!-- Generated by IcoMoon.io -->
<!DOCTYPE svg PUBLIC "-//W3C//DTD SVG 1.1//EN" "http://www.w3.org/Graphics/SVG/1.1/DTD/svg11.dtd">
<svg version="1.1" xmlns="http://www.w3.org/2000/svg" xmlns:xlink="http://www.w3.org/1999/xlink" width="512" height="512" viewBox="0 0 512 512">
<g id="icomoon-ignore">
</g>
<path d="M69.792 303.68h-20.32v20.32h-20.32v20.352h20.32v20.32h20.32v-20.32h20.352v-20.352h-20.352z"></path>
<path d="M422.464 316.352h60.992v20.32h-60.992v-20.32z"></path>
<path d="M451.232 267.808c-11.040 0-23.68 2.976-28.768 8.096v-74.304l5.088 4.288v-19.36l-95.264-69.536-260.48 66.976v20.512l5.088 0.448v68.352c-5.088-0.928-10.112-1.408-14.496-1.408-33.952 0-62.4 27.616-62.4 61.568s27.232 61.568 61.152 61.568c30.912 0 56.288-22.912 60.64-52.64l206.432 20.032 61.792-17.824c6.784 26.592 30.88 46.368 59.584 46.368 33.952 0 62.368-27.616 62.368-61.568s-26.784-61.568-60.736-61.568zM112.352 341.472c-3.872 25.024-25.504 44.224-51.584 44.224-28.832 0-52.256-23.456-52.256-52.256s23.456-52.256 52.256-52.256c4.448 0 8.736 0.608 12.864 1.664 9.888 2.496 18.656 7.84 25.408 15.104 6.272 6.752 10.784 15.136 12.8 24.48 0.768 3.552 1.184 7.232 1.184 11.008 0 2.752-0.256 5.408-0.672 8.032zM137.856 324.128l-13.216-0.992c-2.56-15.232-12.192-28.576-22.368-37.824v-88.32l35.584-7.776v134.912zM219.168 330.752l-60.992-4.864v-141.824l60.992-14.24v160.928zM320.832 339.136l-71.136-5.728v-171.36l71.136-16.832v193.92zM402.144 190.368l10.176 7.488v83.424c-5.088 4.16-10.176 7.040-10.176 12.032v-102.944zM361.472 331.904l-25.408 6.72v-193.28l25.408 18.752v167.808zM391.968 325.184l-0.48 0.128-14.752 3.904v-157.632l15.232 11.264v142.336zM449.6 381.664c-24.448 0-44.992-16.896-50.656-39.648-1.024-4.064-1.6-8.288-1.6-12.64 0-4.288 0.576-8.448 1.568-12.416 1.856-7.616 5.376-14.592 10.176-20.512 2.944-3.616 6.368-6.816 10.176-9.536 8.576-6.144 19.040-9.824 30.4-9.824 28.832 0 52.256 23.456 52.256 52.256s-23.488 52.32-52.32 52.32z"></path>
</svg>
