<?xml version='1.0' encoding='utf-8'?>
<!DOCTYPE svg PUBLIC '-//W3C//DTD SVG 1.1//EN' 'http://www.w3.org/Graphics/SVG/1.1/DTD/svg11.dtd'>
<!-- Generated by IcoMoon.io -->
<svg width="512" version="1.1" xmlns="http://www.w3.org/2000/svg" height="512" xmlns:xlink="http://www.w3.org/1999/xlink" xmlns:atv="http://webmi.atvise.com/2007/svgext">
 <defs/>
 <metadata>
  <atv:gridconfig width="20" enabled="false" height="20" gridstyle="lines"/>
  <atv:snapconfig width="10" enabled="false" height="10"/>
 </metadata>
 <g id="icomoon-ignore" atv:refpx="0" atv:refpy="0"/>
 <path fill="#ffffff" id="id_0" atv:refpx="257.6" atv:refpy="251.825" d="M483.2,411.824L483.2,232.624C483.2,223.024 476.8,216.624 467.2,216.624L64,216.624L64,15.024C64,5.424 57.6,-0.975 48,-0.975C38.4,-0.975 32,5.424 32,15.024L32,411.824C12.8,418.224 0,437.424 0,456.624C0,482.224 22.4,504.624 48,504.624C73.6,504.624 96,482.224 96,456.624C96,437.424 83.2,418.224 64,411.824L64,248.624L240,248.624L240,411.824C220.8,418.224 208,434.224 208,456.624C208,482.224 230.4,504.624 256,504.624C281.6,504.624 304,482.224 304,456.624C304,437.424 291.2,418.224 275.2,411.824L275.2,248.624L451.2,248.624L451.2,411.824C432,418.224 419.2,434.224 419.2,456.624C419.2,482.224 441.599,504.624 467.2,504.624C492.8,504.624 515.2,482.224 515.2,456.624C512,437.424 499.2,421.424 483.2,411.824"/>
</svg>
