<?xml version="1.0" encoding="utf-8"?>
<!-- Generated by IcoMoon.io -->
<!DOCTYPE svg PUBLIC "-//W3C//DTD SVG 1.1//EN" "http://www.w3.org/Graphics/SVG/1.1/DTD/svg11.dtd">
<svg version="1.1" xmlns="http://www.w3.org/2000/svg" xmlns:xlink="http://www.w3.org/1999/xlink" width="512" height="512" viewBox="0 0 512 512">
<g id="icomoon-ignore">
</g>
<path d="M256 403.712c-10.432 0-18.88 8.448-18.88 18.88v70.56c0 10.4 8.48 18.848 18.88 18.848s18.88-8.448 18.88-18.88v-70.56c0-10.4-8.448-18.848-18.88-18.848zM256 106.432c10.432 0 18.88-8.448 18.88-18.88v-68.672c0-10.432-8.448-18.88-18.88-18.88s-18.88 8.448-18.88 18.88v68.704c0 10.4 8.48 18.848 18.88 18.848zM101.6 256c0-10.432-8.448-18.88-18.88-18.88h-63.84c-10.432 0-18.88 8.48-18.88 18.88s8.448 18.88 18.88 18.88h63.84c10.432 0 18.88-8.448 18.88-18.88zM493.12 237.12h-64.384c-10.432 0-18.88 8.448-18.88 18.88s8.448 18.88 18.88 18.88h64.384c10.432 0 18.88-8.448 18.88-18.88s-8.448-18.88-18.88-18.88zM122.272 363.040l-47.296 47.296c-7.36 7.36-7.36 19.328 0 26.688 3.68 3.68 8.512 5.536 13.344 5.536s9.664-1.856 13.344-5.536l47.296-47.296c7.36-7.36 7.36-19.328 0-26.688s-19.296-7.36-26.688 0zM375.488 155.392c4.832 0 9.664-1.856 13.344-5.536l48.192-48.192c7.36-7.36 7.36-19.328 0-26.688s-19.328-7.36-26.688 0l-48.192 48.224c-7.36 7.36-7.36 19.328 0 26.688 3.68 3.68 8.512 5.504 13.344 5.504zM122.912 149.6c3.68 3.68 8.512 5.536 13.344 5.536s9.664-1.856 13.344-5.536c7.36-7.36 7.36-19.328 0-26.688l-47.904-47.936c-7.36-7.36-19.328-7.36-26.688 0s-7.36 19.328 0 26.688l47.904 47.936zM389.472 362.784c-7.36-7.36-19.328-7.36-26.688 0s-7.36 19.328 0 26.688l47.552 47.552c3.68 3.68 8.512 5.536 13.344 5.536s9.664-1.856 13.344-5.536c7.36-7.36 7.36-19.328 0-26.688l-47.552-47.552zM256 128.8c-69.504 0-125.824 56.32-125.824 125.824s56.32 125.824 125.824 125.824c69.504 0 125.824-56.32 125.824-125.824 0-69.472-56.32-125.824-125.824-125.824z"></path>
</svg>
