<?xml version="1.0" encoding="utf-8"?>
<!-- Generated by IcoMoon.io -->
<!DOCTYPE svg PUBLIC "-//W3C//DTD SVG 1.1//EN" "http://www.w3.org/Graphics/SVG/1.1/DTD/svg11.dtd">
<svg version="1.1" xmlns="http://www.w3.org/2000/svg" xmlns:xlink="http://www.w3.org/1999/xlink" width="512" height="512" viewBox="0 0 512 512">
<g id="icomoon-ignore">
</g>
<path d="M352 86.4c-6.4 3.2-3.2 19.2-3.2 22.4 3.2 3.2 9.6 3.2 16 0s12.8-12.8 9.6-16c-3.2-6.4-16-12.8-22.4-6.4z"></path>
<path d="M508.8 57.6c-25.6-9.6-67.2 0-86.4 9.6-16 6.4-22.4 19.2-25.6 25.6 0 0-3.2 19.2 9.6 22.4 12.8 0 60.8-3.2 76.8-9.6 22.4-9.6 35.2-44.8 25.6-48z"></path>
<path d="M64 432l-64-35.2v28.8l64 35.2 412.8-64v-28.8z"></path>
<path d="M217.6 179.2c16 0 32-3.2 32-6.4s-28.8-12.8-32-12.8c-3.2 0-32 9.6-32 12.8 0 0 0 0 0 0 0 3.2 16 6.4 32 6.4z"></path>
<path d="M64 419.2l409.6-60.8-12.8-6.4v-9.6h6.4v-185.6l-60.8 6.4-25.6 19.2v-35.2c0-6.4-9.6-12.8-16-12.8s-16 6.4-16 12.8v22.4c-3.2 0-6.4 0-9.6 3.2-6.4 3.2-9.6 9.6-9.6 16h-28.8c-16 0-22.4 12.8-22.4 19.2v0 6.4h-22.4c-3.2-12.8-12.8-22.4-25.6-22.4v-9.6c0 0-6.4 0-12.8 0s-12.8 0-12.8 0v12.8h-28.8c-9.6 3.2-19.2 12.8-22.4 25.6h-25.6v-44.8h-41.6l-35.2 3.2v44.8h-6.4v51.2c-9.6 12.8-12.8 38.4-12.8 67.2 0 16 3.2 28.8 6.4 38.4l-38.4 6.4 64 32zM390.4 192l64-6.4v9.6l-51.2 6.4h-12.8v-9.6zM390.4 217.6l64-6.4v9.6l-51.2 6.4h-12.8v-9.6zM390.4 243.2l64-6.4v9.6l-51.2 6.4h-12.8v-9.6zM390.4 268.8l64-6.4v9.6l-51.2 6.4h-12.8v-9.6zM57.6 278.4c0 0 160-6.4 163.2-6.4 12.8 0 28.8 16 32 51.2 3.2 32-12.8 64-19.2 64 0 0-144 19.2-166.4 22.4 9.6-6.4 16-35.2 12.8-64-3.2-35.2-12.8-60.8-22.4-67.2v0z"></path>
</svg>
