<?xml version='1.0' encoding='utf-8'?>
<!DOCTYPE svg PUBLIC '-//W3C//DTD SVG 1.1//EN' 'http://www.w3.org/Graphics/SVG/1.1/DTD/svg11.dtd'>
<!-- Generated by IcoMoon.io -->
<svg width="514.1900000000001" version="1.1" xmlns="http://www.w3.org/2000/svg" height="499.2" xmlns:xlink="http://www.w3.org/1999/xlink" xmlns:atv="http://webmi.atvise.com/2007/svgext">
 <defs/>
 <metadata>
  <atv:gridconfig width="20" enabled="false" height="20" gridstyle="lines"/>
  <atv:snapconfig width="10" enabled="false" height="10"/>
 </metadata>
 <g id="id_2" atv:refpx="257.098" atv:refpy="249.602">
  <path fill="#647A8F" id="id_0" atv:refpx="256.148" atv:refpy="305.6" d="M81.748,272L81.748,480C81.748,486.4 88.148,492.8 91.348,496C94.548,499.2 100.948,499.2 104.148,499.2L196.948,499.2C200.148,499.2 203.348,499.2 206.548,496C209.748,492.8 209.748,489.6 209.748,486.4L209.748,387.2L302.548,387.2L302.548,486.4C302.548,489.6 302.548,492.799 305.748,496C308.948,499.2 312.148,499.2 315.348,499.2L408.148,499.2C414.548,499.2 417.748,499.2 420.948,496C424.148,492.8 430.548,489.6 430.548,480L430.548,272L257.748,112Z"/>
  <path fill="#647A8F" id="id_1" atv:refpx="257.096" atv:refpy="136" d="M504.148,214.4L280.148,9.6C267.348,-3.199 248.148,-3.199 235.348,9.6L11.348,214.4C-1.451,227.2 -4.651,246.4 8.148,262.4C17.748,268.8 27.348,272 33.748,272C40.148,272 49.748,268.8 56.148,262.4L257.748,80L459.348,262.4C472.148,275.2 494.548,275.2 507.348,259.2C516.948,249.6 516.948,227.2 504.148,214.4"/>
 </g>
</svg>
