<?xml version="1.0" encoding="iso-8859-1"?>
<!-- Generator: Adobe Illustrator 16.0.0, SVG Export Plug-In . SVG Version: 6.00 Build 0)  -->
<!DOCTYPE svg PUBLIC "-//W3C//DTD SVG 1.1//EN" "http://www.w3.org/Graphics/SVG/1.1/DTD/svg11.dtd">
<svg xmlns="http://www.w3.org/2000/svg" xmlns:xlink="http://www.w3.org/1999/xlink" version="1.1" id="Capa_1" x="0px" y="0px" width="512px" height="512px" viewBox="0 0 34.011 34.011" style="enable-background:new 0 0 34.011 34.011;" xml:space="preserve">
<g>
	<path d="M28.227,6.338C24.085,7.505,15.434,6.71,7.684,10.691c-7.749,3.981-8.015,11.147-7.537,13.535   c0.275,1.371,1.281,2.111,2.091,2.494c0.33-1.561,0.838-3.224,1.646-4.832c3.579-6.299,10.586-8.178,11.755-8.587   c0.625-0.203,1.763-0.498,3.106-0.788c1.365-0.266,2.83-0.603,4.265-1.114c2.839-0.941,5.283-2.078,5.279-2.078   c0.004,0-2.282,1.427-5.041,2.691c-1.347,0.661-2.923,1.201-4.224,1.575c-1.306,0.406-2.385,0.771-2.984,0.967   c-0.596,0.204-2.477,0.784-4.618,2.113c-1.084,0.677-2.162,1.5-3.328,2.566c-1.065,0.896-1.937,2.116-2.547,3.463   c-1.068,2.353-1.449,4.942-1.58,7.023c0.685,0.854,2.019,1.625,4.565,1.775c22.029-1.963,25.479-28.98,25.479-28.98   S32.367,5.171,28.227,6.338z" fill="#647a8f"/>
</g>
<g>
</g>
<g>
</g>
<g>
</g>
<g>
</g>
<g>
</g>
<g>
</g>
<g>
</g>
<g>
</g>
<g>
</g>
<g>
</g>
<g>
</g>
<g>
</g>
<g>
</g>
<g>
</g>
<g>
</g>
</svg>
