<?xml version="1.0" encoding="utf-8"?>
<!-- Generated by IcoMoon.io -->
<!DOCTYPE svg PUBLIC "-//W3C//DTD SVG 1.1//EN" "http://www.w3.org/Graphics/SVG/1.1/DTD/svg11.dtd">
<svg version="1.1" xmlns="http://www.w3.org/2000/svg" xmlns:xlink="http://www.w3.org/1999/xlink" width="512" height="512" viewBox="0 0 512 512">
<g id="icomoon-ignore">
</g>
<path d="M114.016 326.464c-11.552-7.424-25.248-11.776-39.936-11.776-40.832 0-74.080 33.216-74.080 74.048s33.248 74.080 74.080 74.080c28.704 0 53.632-16.48 65.888-40.416l29.056 4.256v-16.192l122.272 12.352v13.568l48.928 5.376v-392.576l-226.208 56.8v220.48zM217.952 392.448l-69.952-6.752c-0.224-5.76-1.12-11.328-2.592-16.64l72.544 4.32v19.072zM224.064 101.216l91.712-22.080v28.736l-91.712 18.528v-25.184zM224.064 136.512l91.712-18.496v37.312l-91.712 14.144v-32.96zM224.064 179.488l91.712-14.176v26.464l-91.712 10.848v-23.136zM224.064 212.576l91.712-10.816v28.832l-91.712 7.264v-25.28zM224.064 247.776l91.712-7.264v26.56l-91.712 3.936v-23.232zM224.064 280.928l91.712-3.904v24.16l-91.712 0.768v-21.024zM224.064 311.84l91.712-0.768v24.16l-91.712-2.336v-21.056zM224.064 342.784l91.712 2.336v24.128l-91.712-5.472v-20.992zM224.064 373.728l91.712 5.472v22.72l-91.712-8.864v-19.328zM138.464 121.856l79.488-19.136v24.928l-79.488 16.032v-21.824zM138.464 153.792l79.488-16.032v32.672l-79.488 12.256v-28.896zM138.464 192.704l79.488-12.288v22.88l-79.488 9.408v-20zM138.464 222.656l79.488-9.376v25.024l-79.488 6.304v-21.952zM138.464 254.56l79.488-6.304v23.008l-79.488 3.392v-20.096zM138.464 284.576l79.488-3.392v20.8l-79.488 0.672v-18.080zM138.464 312.576l79.488-0.672v20.8l-79.488-2.016v-18.112zM138.464 340.576l79.488 2.016v20.8l-76.128-4.544c-0.992-2.272-2.144-4.48-3.36-6.624v-11.648zM136.96 388.736c0 8.32-1.664 16.256-4.608 23.552-9.344 23.040-31.904 39.328-58.272 39.328-34.688 0-62.88-28.192-62.88-62.88s28.192-62.88 62.88-62.88c15.136 0 29.056 5.376 39.936 14.336 13.984 11.552 22.944 29.024 22.944 48.544z"></path>
<path d="M437.92 309.792c-13.312 0-25.76 3.584-36.544 9.728v-214.4l-55.040-53.248v388.8l18.336-8.128v-14.848l5.984-2.976c1.792 3.872 3.84 7.584 6.24 11.072l0.416 0.576c13.408 19.072 35.552 31.584 60.576 31.584 40.832 0 74.080-33.248 74.080-74.080s-33.216-74.080-74.048-74.080zM437.92 446.752c-19.776 0-37.408-9.184-48.96-23.52-8.704-10.784-13.92-24.48-13.92-39.392 0-21.024 10.432-39.648 26.336-51.072 10.304-7.392 22.912-11.808 36.544-11.808 34.688 0 62.88 28.192 62.88 62.88s-28.192 62.912-62.88 62.912z"></path>
<path d="M86.784 352.928h-24.48v24.48h-24.448v24.448h24.448v24.448h24.48v-24.448h24.448v-24.448h-24.448z"></path>
<path d="M401.376 371.264h73.376v24.448h-73.376v-24.448z"></path>
</svg>
