<?xml version="1.0" encoding="utf-8"?>
<!-- Generated by IcoMoon.io -->
<!DOCTYPE svg PUBLIC "-//W3C//DTD SVG 1.1//EN" "http://www.w3.org/Graphics/SVG/1.1/DTD/svg11.dtd">
<svg version="1.1" xmlns="http://www.w3.org/2000/svg" xmlns:xlink="http://www.w3.org/1999/xlink" width="512" height="512" viewBox="0 0 512 512">
<g id="icomoon-ignore">
</g>
<path d="M495.808 338.976c-5.504-3.424-12.672-2.368-16.928 2.528-36.128 41.504-88.256 65.344-142.976 65.344-104.576 0-189.664-85.088-189.664-189.664 0-92.96 69.344-173.472 161.312-187.296 6.4-0.96 11.168-6.432 11.232-12.928s-4.608-12.064-11.008-13.12c-15.296-2.592-29.312-3.84-42.784-3.84-141.152 0-256 114.848-256 256s114.848 256 256 256c103.264 0 195.904-61.504 236-156.704 2.528-5.952 0.32-12.896-5.184-16.32z"></path>
</svg>
