<?xml version="1.0" encoding="utf-8"?>
<!-- Generated by IcoMoon.io -->
<!DOCTYPE svg PUBLIC "-//W3C//DTD SVG 1.1//EN" "http://www.w3.org/Graphics/SVG/1.1/DTD/svg11.dtd">
<svg version="1.1" xmlns="http://www.w3.org/2000/svg" xmlns:xlink="http://www.w3.org/1999/xlink" width="512" height="512" viewBox="0 0 512 512">
<g id="icomoon-ignore">
</g>
<path d="M115.616 91.008l-13.76 14.336 14.208 5.536-0.448-19.872zM33.28 126.656l-19.456-4 10.912 16.608 8.544-12.608zM77.984 85.44l-6.208 18.88 15.2-1.184-8.992-17.696zM150.912 158.016l15.264-12.736-19.808-1.824 4.544 14.56zM147.072 112.384l-18.624 6.944 10.4 11.136 8.224-18.080zM57.44 108.768l-15.776-12.064 2.624 19.712 13.152-7.648zM76.96 170.176h66.080c-0.032-4.928 0-2.304-0.064-2.944-2.464-32.256-30.656-56.96-62.944-54.464s-56.416 30.4-53.952 62.688c1.6 20.576 13.664 38.784 30.528 47.968l20.352-53.248zM19.264 153.248l-19.264 4.832 17.024 10.24 2.24-15.072zM471.36 180h-385.12l-41.184 113.792 7.488 18.304 45.024-0.096v50.336c0 0 0.832 5.92 7.392 5.92 6.656 0 7.36-5.92 7.36-5.92v-50.368l344.032-0.64v50.976c0 0 0.832 5.92 7.392 5.92 6.656 0 7.36-5.92 7.36-5.92v-50.944h37.568l3.328-21.984-40.64-109.376zM478.784 243.904h-55.36l-7.424-24.576h54.816l7.968 24.576zM461.216 194.752l4.768 14.752h-53.44l-4.128-14.752h52.8zM401.12 194.752l4.16 14.752h-68.096l-2.176-14.752h66.112zM230.048 194.752h97.856l2.176 14.752h-101.696l1.664-14.752zM227.008 219.328h104.864l3.904 24.576h-111.744l2.976-24.576zM156.896 194.752h66.144l-1.664 14.752h-67.904l3.424-14.752zM96.64 194.752h53.12l-3.456 14.752h-54.112l4.448-14.752zM87.712 219.328h55.744l-6.176 24.576h-56.96l7.392-24.576zM66.912 288.128l10.4-34.4h58.272l-8 34.4h-60.672zM212.288 288.128h-77.6l8.064-34.4h73.408l-3.872 34.4zM144.448 243.904l6.176-24.576h69.344l-2.976 24.576h-72.544zM219.264 288.128l3.936-34.4h113.696l5.088 34.4h-122.72zM338.976 219.328h69.728l7.456 24.576h-73.248l-3.936-24.576zM348.992 288.128l-5.056-34.4h74.208l9.6 34.4h-78.752zM435.168 288.128l-9.728-34.4h56.512l11.168 34.4h-57.952zM22.016 228.928l18.624-6.944-10.4-11.168-8.224 18.112zM18.208 183.296l-15.296 12.704 19.808 1.856-4.512-14.56z"></path>
</svg>
