<?xml version="1.0" encoding="utf-8"?>
<!-- Generated by IcoMoon.io -->
<!DOCTYPE svg PUBLIC "-//W3C//DTD SVG 1.1//EN" "http://www.w3.org/Graphics/SVG/1.1/DTD/svg11.dtd">
<svg version="1.1" xmlns="http://www.w3.org/2000/svg" xmlns:xlink="http://www.w3.org/1999/xlink" width="512" height="512" viewBox="0 0 512 512">
<g id="icomoon-ignore">
</g>
<path d="M262.944 0c-57.44 0-104 35.552-104 113.76s48 142.24 104 142.24c56 0 104-64 104-142.24s-46.592-113.76-104-113.76v0zM142.016 307.392c38.304-13.92 82.464-19.392 120.928-19.392s82.592 5.472 120.928 19.392c33.6 12.224 62.912 30.976 81.376 58.368 3.584 5.184 5.728 11.456 5.728 18.24v96c0 17.664-14.336 32-32 32h-352c-17.664 0-32-14.336-32-32v-95.744c-0.064-6.176 1.696-12.448 5.376-17.984 18.4-27.648 47.872-46.592 81.664-58.88z"></path>
</svg>
