<?xml version='1.0' encoding='iso-8859-1'?>
<!DOCTYPE svg PUBLIC '-//W3C//DTD SVG 1.1//EN' 'http://www.w3.org/Graphics/SVG/1.1/DTD/svg11.dtd'>
<!-- Generator: Adobe Illustrator 18.0.0, SVG Export Plug-In . SVG Version: 6.00 Build 0)  -->
<svg width="370" x="0px" version="1.1" y="0px" xmlns="http://www.w3.org/2000/svg" height="193.78" xmlns:xlink="http://www.w3.org/1999/xlink" style="enable-background:new 0 0 370 370" id="Capa_1" xml:space="preserve" xmlns:atv="http://webmi.atvise.com/2007/svgext">
 <defs/>
 <metadata>
  <atv:gridconfig width="20" enabled="false" height="20" gridstyle="lines"/>
  <atv:snapconfig width="10" enabled="false" height="10"/>
 </metadata>
 <path fill="#647a8f" id="id_0" atv:refpx="185" atv:refpy="96.891" d="M273.107,0L96.894,0C43.467,0 0,43.464 0,96.891C0,150.317 43.467,193.782 96.894,193.782L273.107,193.782C326.534,193.782 370,150.317 370,96.891C370,43.464 326.534,0 273.107,0M155.409,96.891C155.409,125.671 131.993,149.089 103.21,149.089C74.425,149.089 51.01,125.671 51.01,96.891C51.01,68.111 74.426,44.693 103.21,44.693C131.993,44.693 155.409,68.111 155.409,96.891"/>
</svg>
