<svg version="1.1" xmlns="http://www.w3.org/2000/svg" xmlns:xlink="http://www.w3.org/1999/xlink" width="573" height="604"><defs/><g><g transform="translate(-158,-54) scale(1,1)"><rect fill="#C0C0C0" stroke="none" x="487" y="263" width="176" height="72" opacity="0.2"/></g><g transform="translate(-158,-54) scale(1,1)"><rect fill="#ffffff" stroke="none" x="480" y="256" width="176" height="72"/></g><g transform="translate(-158,-54) scale(1,1)"><path fill="none" stroke="#000000" d="M 480 256 L 656 256 L 656 328 L 480 328 L 480 256 Z Z" stroke-miterlimit="10"/></g><g transform="translate(-158,-54) scale(1,1)"><path fill="none" stroke="#000000" d="M 480 281 L 656 281" stroke-miterlimit="10"/></g><g transform="translate(-158,-54) scale(1,1)"><path fill="none" stroke="#000000" d="M 480 291 L 656 291" stroke-miterlimit="10"/></g><g transform="translate(-158,-54) scale(1,1)"><g><path fill="none" stroke="none"/><text fill="#000000" stroke="none" font-family="Arial" font-size="13px" font-style="normal" font-weight="bold" text-decoration="none" x="520" y="275.5">ComponentNode</text></g></g><g transform="translate(-158,-54) scale(1,1)"><rect fill="#C0C0C0" stroke="none" x="399" y="71" width="136" height="72" opacity="0.2"/></g><g transform="translate(-158,-54) scale(1,1)"><rect fill="#ffffff" stroke="none" x="392" y="64" width="136" height="72"/></g><g transform="translate(-158,-54) scale(1,1)"><path fill="none" stroke="#000000" d="M 392 64 L 528 64 L 528 136 L 392 136 L 392 64 Z Z" stroke-miterlimit="10"/></g><g transform="translate(-158,-54) scale(1,1)"><path fill="none" stroke="#000000" d="M 392 89 L 528 89" stroke-miterlimit="10"/></g><g transform="translate(-158,-54) scale(1,1)"><path fill="none" stroke="#000000" d="M 392 99 L 528 99" stroke-miterlimit="10"/></g><g transform="translate(-158,-54) scale(1,1)"><g><path fill="none" stroke="none"/><text fill="#000000" stroke="none" font-family="Arial" font-size="13px" font-style="normal" font-weight="bold" text-decoration="none" x="445.5" y="83.5">Task</text></g></g><g transform="translate(-158,-54) scale(1,1)"><path fill="none" stroke="#000000" d="M 481 137 L 547 255" stroke-miterlimit="10"/></g><g transform="translate(-158,-54) scale(1,1)"><path fill="#FFFFFF" stroke="none" d="M 538.3651702661588 248.1853308614746 L 547 255 L 545.7129521002036 244.0755545814156 L 536.260637037095 235.7993207632911"/></g><g transform="translate(-158,-54) scale(1,1)"><path fill="none" stroke="#000000" d="M 538.3651702661588 248.1853308614746 L 547 255 L 545.7129521002036 244.0755545814156 L 536.260637037095 235.7993207632911 L 538.3651702661588 248.1853308614746" stroke-miterlimit="10"/></g><g transform="translate(-158,-54) scale(1,1)"><g><path fill="none" stroke="none"/><text fill="#000000" stroke="none" font-family="Arial" font-size="13px" font-style="normal" font-weight="normal" text-decoration="none" x="504" y="170">+task</text></g></g><g transform="translate(-158,-54) scale(1,1)"><g><path fill="none" stroke="none"/><text fill="#000000" stroke="none" font-family="Arial" font-size="13px" font-style="normal" font-weight="normal" text-decoration="none" x="477" y="168">1</text></g></g><g transform="translate(-158,-54) scale(1,1)"><g><path fill="none" stroke="none"/><text fill="#000000" stroke="none" font-family="Arial" font-size="13px" font-style="normal" font-weight="normal" text-decoration="none" x="523" y="249">*</text></g></g><g transform="translate(-158,-54) scale(1,1)"><rect fill="#C0C0C0" stroke="none" x="271" y="423" width="151" height="72" opacity="0.2"/></g><g transform="translate(-158,-54) scale(1,1)"><rect fill="#ffffff" stroke="none" x="264" y="416" width="151" height="72"/></g><g transform="translate(-158,-54) scale(1,1)"><path fill="none" stroke="#000000" d="M 264 416 L 415 416 L 415 488 L 264 488 L 264 416 Z Z" stroke-miterlimit="10"/></g><g transform="translate(-158,-54) scale(1,1)"><path fill="none" stroke="#000000" d="M 264 441 L 415 441" stroke-miterlimit="10"/></g><g transform="translate(-158,-54) scale(1,1)"><path fill="none" stroke="#000000" d="M 264 451 L 415 451" stroke-miterlimit="10"/></g><g transform="translate(-158,-54) scale(1,1)"><g><path fill="none" stroke="none"/><text fill="#000000" stroke="none" font-family="Arial" font-size="13px" font-style="normal" font-weight="bold" text-decoration="none" x="304.5" y="435.5">CommonDP</text></g></g><g transform="translate(-158,-54) scale(1,1)"><path fill="none" stroke="#000000" d="M 480 296 L 336 296 L 336 416" stroke-miterlimit="10"/></g><g transform="translate(-158,-54) scale(1,1)"><path fill="#000000" stroke="none" d="M 469.83732514237585 300.209517756016 L 480 296 L 469.83732514237585 291.790482243984 L 458 296"/></g><g transform="translate(-158,-54) scale(1,1)"><path fill="none" stroke="#000000" d="M 469.83732514237585 300.209517756016 L 480 296 L 469.83732514237585 291.790482243984 L 458 296 L 469.83732514237585 300.209517756016" stroke-miterlimit="10"/></g><g transform="translate(-158,-54) scale(1,1)"><g><path fill="none" stroke="none"/><text fill="#000000" stroke="none" font-family="Arial" font-size="13px" font-style="normal" font-weight="normal" text-decoration="none" x="436" y="317">+node</text></g></g><g transform="translate(-158,-54) scale(1,1)"><g><path fill="none" stroke="none"/><text fill="#000000" stroke="none" font-family="Arial" font-size="13px" font-style="normal" font-weight="normal" text-decoration="none" x="455" y="290">1</text></g></g><g transform="translate(-158,-54) scale(1,1)"><g><path fill="none" stroke="none"/><text fill="#000000" stroke="none" font-family="Arial" font-size="13px" font-style="normal" font-weight="normal" text-decoration="none" x="343" y="405">+dp</text></g></g><g transform="translate(-158,-54) scale(1,1)"><g><path fill="none" stroke="none"/><text fill="#000000" stroke="none" font-family="Arial" font-size="13px" font-style="normal" font-weight="normal" text-decoration="none" x="320" y="404">1</text></g></g><g transform="translate(-158,-54) scale(1,1)"><rect fill="#C0C0C0" stroke="none" x="487" y="423" width="176" height="72" opacity="0.2"/></g><g transform="translate(-158,-54) scale(1,1)"><rect fill="#ffffff" stroke="none" x="480" y="416" width="176" height="72"/></g><g transform="translate(-158,-54) scale(1,1)"><path fill="none" stroke="#000000" d="M 480 416 L 656 416 L 656 488 L 480 488 L 480 416 Z Z" stroke-miterlimit="10"/></g><g transform="translate(-158,-54) scale(1,1)"><path fill="none" stroke="#000000" d="M 480 441 L 656 441" stroke-miterlimit="10"/></g><g transform="translate(-158,-54) scale(1,1)"><path fill="none" stroke="#000000" d="M 480 451 L 656 451" stroke-miterlimit="10"/></g><g transform="translate(-158,-54) scale(1,1)"><g><path fill="none" stroke="none"/><text fill="#000000" stroke="none" font-family="Arial" font-size="13px" font-style="normal" font-weight="bold" text-decoration="none" x="542" y="435.5">EventDP</text></g></g><g transform="translate(-158,-54) scale(1,1)"><path fill="none" stroke="#000000" d="M 568 415 L 568 329" stroke-miterlimit="10"/></g><g transform="translate(-158,-54) scale(1,1)"><path fill="#000000" stroke="none" d="M 572.209517756016 339.16267485762415 L 568 329 L 563.790482243984 339.16267485762415 L 568 351"/></g><g transform="translate(-158,-54) scale(1,1)"><path fill="none" stroke="#000000" d="M 572.209517756016 339.16267485762415 L 568 329 L 563.790482243984 339.16267485762415 L 568 351 L 572.209517756016 339.16267485762415" stroke-miterlimit="10"/></g><g transform="translate(-158,-54) scale(1,1)"><g><path fill="none" stroke="none"/><text fill="#000000" stroke="none" font-family="Arial" font-size="13px" font-style="normal" font-weight="normal" text-decoration="none" x="512" y="404">+events</text></g></g><g transform="translate(-158,-54) scale(1,1)"><g><path fill="none" stroke="none"/><text fill="#000000" stroke="none" font-family="Arial" font-size="13px" font-style="normal" font-weight="normal" text-decoration="none" x="578" y="400">*</text></g></g><g transform="translate(-158,-54) scale(1,1)"><g><path fill="none" stroke="none"/><text fill="#000000" stroke="none" font-family="Arial" font-size="13px" font-style="normal" font-weight="normal" text-decoration="none" x="511" y="357">+owner</text></g></g><g transform="translate(-158,-54) scale(1,1)"><g><path fill="none" stroke="none"/><text fill="#000000" stroke="none" font-family="Arial" font-size="13px" font-style="normal" font-weight="normal" text-decoration="none" x="577" y="357">1</text></g></g><g transform="translate(-158,-54) scale(1,1)"><rect fill="#C0C0C0" stroke="none" x="487" y="583" width="176" height="72" opacity="0.2"/></g><g transform="translate(-158,-54) scale(1,1)"><rect fill="#ffffff" stroke="none" x="480" y="576" width="176" height="72"/></g><g transform="translate(-158,-54) scale(1,1)"><path fill="none" stroke="#000000" d="M 480 576 L 656 576 L 656 648 L 480 648 L 480 576 Z Z" stroke-miterlimit="10"/></g><g transform="translate(-158,-54) scale(1,1)"><path fill="none" stroke="#000000" d="M 480 601 L 656 601" stroke-miterlimit="10"/></g><g transform="translate(-158,-54) scale(1,1)"><path fill="none" stroke="#000000" d="M 480 611 L 656 611" stroke-miterlimit="10"/></g><g transform="translate(-158,-54) scale(1,1)"><g><path fill="none" stroke="none"/><text fill="#000000" stroke="none" font-family="Arial" font-size="13px" font-style="normal" font-weight="bold" text-decoration="none" x="536.5" y="595.5">EventType</text></g></g><g transform="translate(-158,-54) scale(1,1)"><path fill="none" stroke="#000000" d="M 568 575 L 568 489" stroke-miterlimit="10"/></g><g transform="translate(-158,-54) scale(1,1)"><path fill="#FFFFFF" stroke="none" d="M 572.209517756016 499.16267485762415 L 568 489 L 563.790482243984 499.16267485762415 L 568 511"/></g><g transform="translate(-158,-54) scale(1,1)"><path fill="none" stroke="#000000" d="M 572.209517756016 499.16267485762415 L 568 489 L 563.790482243984 499.16267485762415 L 568 511 L 572.209517756016 499.16267485762415" stroke-miterlimit="10"/></g><g transform="translate(-158,-54) scale(1,1)"><g><path fill="none" stroke="none"/><text fill="#000000" stroke="none" font-family="Arial" font-size="13px" font-style="normal" font-weight="normal" text-decoration="none" x="519" y="564">+types</text></g></g><g transform="translate(-158,-54) scale(1,1)"><g><path fill="none" stroke="none"/><text fill="#000000" stroke="none" font-family="Arial" font-size="13px" font-style="normal" font-weight="normal" text-decoration="none" x="578" y="560">*</text></g></g><g transform="translate(-158,-54) scale(1,1)"><g><path fill="none" stroke="none"/><text fill="#000000" stroke="none" font-family="Arial" font-size="13px" font-style="normal" font-weight="normal" text-decoration="none" x="578" y="517">*</text></g></g><g transform="translate(-158,-54) scale(1,1)"><path fill="none" stroke="#000000" d="M 568 256 L 568 236 L 720 236 L 720 292 L 656 292" stroke-miterlimit="10"/></g><g transform="translate(-158,-54) scale(1,1)"><path fill="#000000" stroke="none" d="M 666.1626748576241 287.790482243984 L 656 292 L 666.1626748576241 296.209517756016 L 678 292"/></g><g transform="translate(-158,-54) scale(1,1)"><path fill="none" stroke="#000000" d="M 666.1626748576241 287.790482243984 L 656 292 L 666.1626748576241 296.209517756016 L 678 292 L 666.1626748576241 287.790482243984" stroke-miterlimit="10"/></g><g transform="translate(-158,-54) scale(1,1)"><g><path fill="none" stroke="none"/><text fill="#000000" stroke="none" font-family="Arial" font-size="13px" font-style="normal" font-weight="normal" text-decoration="none" x="582" y="226">+subComponents</text></g></g><g transform="translate(-158,-54) scale(1,1)"><g><path fill="none" stroke="none"/><text fill="#000000" stroke="none" font-family="Arial" font-size="13px" font-style="normal" font-weight="normal" text-decoration="none" x="567" y="228">*</text></g></g><g transform="translate(-158,-54) scale(1,1)"><g><path fill="none" stroke="none"/><text fill="#000000" stroke="none" font-family="Arial" font-size="13px" font-style="normal" font-weight="normal" text-decoration="none" x="671" y="312">+parent</text></g></g><g transform="translate(-158,-54) scale(1,1)"><g><path fill="none" stroke="none"/><text fill="#000000" stroke="none" font-family="Arial" font-size="13px" font-style="normal" font-weight="normal" text-decoration="none" x="674" y="286">1</text></g></g><g transform="translate(-158,-54) scale(1,1)"><g><path fill="none" stroke="none"/><text fill="#000000" stroke="none" font-family="Arial" font-size="13px" font-style="normal" font-weight="normal" text-decoration="none" x="173" y="82">Basic relations around</text><text fill="#000000" stroke="none" font-family="Arial" font-size="13px" font-style="normal" font-weight="normal" text-decoration="none" x="173" y="95">ComponentNode</text></g></g></g></svg>