<svg xmlns="http://www.w3.org/2000/svg" width="512" height="512" viewBox="0 0 512 512"><path d="M498 388.7L315 73.7c-32.3-55.6-85.3-55.6-117.6 0L14 388.6c-32.5 55.6-6.3 101 58 101h368c64.3 0 90.5-45.4 58-101zm-12.7 60c-6.6 11.4-23 18-45.3 18H72c-22.2 0-38.7-6.6-45.3-18-6.6-11.6-4-29.2 7-48.4l183.5-315C228.4 66 242.5 55 256 55s27.7 11 38.8 30.3l183.4 315c11 19.2 13.7 36.8 7 48.3z"/><path d="M50.2 435.4h411.5L256.4 82.2 50.2 435.4zm224.6-46.2c-4.7 2.7-11 4-19 4s-14.4-1.3-19-4c-2-3.5-3-8.5-3-15s1-11.6 3-15c4.6-2.6 11-4 19-4s14.3 1.4 19 4c2 2.8 3 7.7 3 14.8 0 7-1 12-3 15.2zm4-196.5L270 332.4c-3.8 1-8.6 1.7-14.4 1.7s-10.7-.4-14.5-1.6l-4.5-132c9.8-7 23-10.3 39.7-10.3l2.2 2.7z"/></svg>