<svg viewBox="0 0 84 68" xmlns="http://www.w3.org/2000/svg" fill-rule="evenodd" clip-rule="evenodd" stroke-linejoin="round" stroke-miterlimit="1.414"><path d="M22.4 55.54c0 1.36-.273 2.66-.756 3.85-1.528 3.768-5.22 6.434-9.53 6.434-5.672 0-10.285-4.613-10.285-10.285 0-5.68 4.61-10.29 10.28-10.29 2.48 0 4.75.88 6.53 2.34 2.29 1.88 3.75 4.74 3.75 7.94m.24-7.88l13 .33v3.4l-12.45-.74c-.17-.37-.35-.74-.55-1.09v-1.9zm0-4.59l13-.11v3.4l-13-.33v-2.96zm0-4.58l13-.558v3.403l-13 .11V38.5zm0-4.91l13-1.03v3.76l-13 .552v-3.28zm0-5.217l13-1.533v4.097l-13 1.03v-3.59zm0-4.9l13-2.007v3.75l-13 1.53v-3.26zm0-6.367l13-2.625v5.345l-13 2.01V17.1zm0-5.225l13-3.13v4.08l-13 2.62v-3.57zm14 41.194l15 .893v3.713l-15-1.45v-3.16zm0-5.06l15 .38v3.95l-15-.896V48zm0-5.06l15-.13v3.95l-15-.383v-3.44zm0-5.06l15-.64v3.95l-15 .13V37.9zm0-5.42l15-1.187v4.343l-15 .64v-3.79zm0-5.758l15-1.77v4.715l-15 1.186V26.7zm0-5.41l15-2.318v4.33l-15 1.77v-3.78zm0-7.034l15-3.026v6.103l-15 2.315v-5.39zm0-5.77l15-3.61V9.6l-15 3.028V8.51zm-1 47.63L24.2 55.03c-.04-.94-.18-1.85-.423-2.723l11.864.707v3.122zm-17-10.79c-1.89-1.21-4.13-1.925-6.53-1.925C5.43 43.425 0 48.86 0 55.54c0 6.678 5.436 12.114 12.115 12.114 4.697 0 8.77-2.693 10.78-6.61l4.75.698v-2.65l20 2.022v2.218l8 .88V0l-37 9.29v36.06zm52.98 19.68c-3.23 0-6.12-1.5-8.01-3.844-1.42-1.766-2.28-4.005-2.28-6.44 0-3.44 1.702-6.486 4.304-8.354 1.685-1.21 3.746-1.933 5.98-1.933 5.67 0 10.282 4.61 10.282 10.286C81.886 60.39 77.276 65 71.603 65m0-22.4c-2.177 0-4.215.584-5.98 1.59V9.15l-9-8.707v63.595l3-1.33v-2.43l.98-.488c.29.633.63 1.24 1.02 1.81l.07.092c2.193 3.12 5.814 5.167 9.91 5.167 6.68 0 12.114-5.44 12.114-12.12 0-6.68-5.438-12.12-12.118-12.12"/><path d="M14.19 49.68h-4v4h-4v4h4v4h4v-4h4v-4h-4v-4zm51.455 3h12v4h-12z"/></svg>