<svg viewBox="0 0 16 8" xmlns="http://www.w3.org/2000/svg" fill-rule="evenodd" clip-rule="evenodd" stroke-linejoin="round" stroke-miterlimit="1.4142"><path d="M12.924 5.957h1.985v-.662h-1.985v.662zM2.335 4.633h-.662v.662h-.661v.662h.662v.662h.662v-.662h.662v-.662h-.663v-.662zm1.371.886c0 .076-.007.15-.016.224-.11.833-.823 1.478-1.685 1.478-.938 0-1.702-.763-1.702-1.702 0-.938.763-1.702 1.702-1.702.113 0 .224.012.331.033.78.155 1.37.844 1.37 1.669M2.335 3.545c-.108-.018-.218-.03-.331-.03C.899 3.515 0 4.414 0 5.519s.899 2.004 2.004 2.004c1.02 0 1.864-.767 1.987-1.754l2.976.258V3.279l1.654-.151v3.04l1.489.12V.001L2.335 1.903v1.642zm4.798 2.496l1.324.113V3.309l-1.324.121v2.611zm6.863 1.213c-.911 0-1.655-.721-1.698-1.622-.001-.027-.004-.053-.004-.08 0-.672.393-1.253.961-1.529.224-.109.475-.172.741-.172.938 0 1.702.763 1.702 1.702s-.764 1.701-1.702 1.701m0-3.706c-.262 0-.512.052-.741.144V1.903L10.277 0v6.287L12 5.729c.09 1.023.95 1.828 1.995 1.828 1.105 0 2.004-.899 2.004-2.004.001-1.106-.898-2.005-2.003-2.005"/></svg>