<svg viewBox="0 0 82 34" xmlns="http://www.w3.org/2000/svg" fill-rule="evenodd" clip-rule="evenodd" stroke-linejoin="round" stroke-miterlimit="1.414"><path d="M61 0v33.867l8-.638V16.353l7 1.303v15.188l6-.345V8.157L61 0zM38 21.738l7-.622v7.07l-7 .036v-6.484zm0-11.375l7-1.612v7.266l-7 1.063v-6.716zm17 9.834v7.92l-7.57.053-.193-7.264 7.763-.71zm-8-11.96l8-1.93v8.167l-8 1.205V8.235zm-12 24.14l25 1.28V.312L35 7.58v24.798zM17 33.71l7-.585v-13.67l3 .405v12.914l5-.43V7.39L17 2.375V33.71zM2 22.315l4-.388v6.615l-4-.053v-6.176zm0-10.853l4.15-1.152-.11 6.972-4.04.7v-6.52zM8 9.69l5-1.556v7.846l-5 .932V9.69zm6 18.958l-6-.07v-6.835l6-.578v7.483zM0 32.345l16 1.365V2.376L0 8.246v24.1z"/></svg>