<svg xmlns="http://www.w3.org/2000/svg" width="512" height="512" viewBox="0 0 512 512"><path d="M352 86.4c-6.4 3.2-3.2 19.2-3.2 22.4 3.2 3.2 9.6 3.2 16 0s12.8-12.8 9.6-16c-3.2-6.4-16-12.8-22.4-6.4zm156.8-28.8c-25.6-9.6-67.2 0-86.4 9.6-16 6.4-22.4 19.2-25.6 25.6 0 0-3.2 19.2 9.6 22.4 12.8 0 60.8-3.2 76.8-9.6 22.4-9.6 35.2-44.8 25.6-48zM64 432L0 396.8v28.8l64 35.2 412.8-64V368zm153.6-252.8c16 0 32-3.2 32-6.4s-28.8-12.8-32-12.8c-3.2 0-32 9.6-32 12.8 0 3.2 16 6.4 32 6.4z"/><path d="M64 419.2l409.6-60.8-12.8-6.4v-9.6h6.4V156.8l-60.8 6.4-25.6 19.2v-35.2c0-6.4-9.6-12.8-16-12.8s-16 6.4-16 12.8v22.4c-3.2 0-6.4 0-9.6 3.2-6.4 3.2-9.6 9.6-9.6 16h-28.8c-16 0-22.4 12.8-22.4 19.2v6.4H256c-3.2-12.8-12.8-22.4-25.6-22.4v-9.6h-25.6v12.8H176c-9.6 3.2-19.2 12.8-22.4 25.6H128V176H86.4l-35.2 3.2V224h-6.4v51.2C35.2 288 32 313.6 32 342.4c0 16 3.2 28.8 6.4 38.4L0 387.2l64 32zM390.4 192l64-6.4v9.6l-51.2 6.4h-12.8V192zm0 25.6l64-6.4v9.6l-51.2 6.4h-12.8v-9.6zm0 25.6l64-6.4v9.6l-51.2 6.4h-12.8v-9.6zm0 25.6l64-6.4v9.6l-51.2 6.4h-12.8v-9.6zm-332.8 9.6s160-6.4 163.2-6.4c12.8 0 28.8 16 32 51.2 3.2 32-12.8 64-19.2 64 0 0-144 19.2-166.4 22.4 9.6-6.4 16-35.2 12.8-64-3.2-35.2-12.8-60.8-22.4-67.2z"/></svg>