<svg viewBox="0 0 16 13" xmlns="http://www.w3.org/2000/svg" fill-rule="evenodd" clip-rule="evenodd" stroke-linejoin="round" stroke-miterlimit="1.4142"><path d="M11.037.938c-.159.107-.124.598-.069.721.055.123.33.112.531.011.2-.101.381-.388.258-.532-.121-.147-.562-.306-.72-.2M15.88.103c-.751-.254-2.1.01-2.711.266-.535.22-.717.605-.778.76 0 0-.112.614.333.665.442.05 1.913-.144 2.396-.299.686-.221 1.097-1.275.76-1.392M1.957 11.794L0 10.694v.886l1.957 1.1 12.9-1.97v-.886l-12.9 1.97zm4.858-7.907c.485 0 1-.138.996-.198-.004-.088-.905-.371-1.031-.371-.147 0-1.013.255-1.013.36v.001c-.001.079.501.208 1.048.208"/><path d="M1.795 7s5.048-.203 5.059-.204c.387-.024.938.541 1.014 1.58.076 1.038-.364 1.958-.577 1.983-.009.001-4.539.647-5.22.682.306-.212.491-1.054.424-2.045-.067-1.002-.369-1.817-.706-1.973L1.795 7zm10.452-.273l2.008-.224v.332l-1.606.213-.402.009v-.33m0-.876l2.008-.224v.332l-1.606.213-.402.009v-.33m0-.767l2.008-.224v.332l-1.606.213-.402.009v-.33zm0-.767l2.008-.224v.332l-1.606.213-.402.009v-.33M2 11.427L14.818 9.49l-.376-.202-.002-.324.158-.019-.02-5.803-1.929.229v.013l-.803.561V2.87c0-.205-.297-.371-.502-.371-.205 0-.502.166-.502.371v.671c-.117.011-.228.03-.329.072-.2.083-.315.254-.339.473l-.299.086h-.523c-.475 0-.676.404-.715.635L8.633 4.8v.17l-.29.006h-.352c-.114-.379-.436-.66-.763-.685v-.285s-.182.028-.42.028-.383-.028-.383-.028v.427l-.904.003c-.365.06-.649.363-.686.74h-.82V3.771H2.682l-1.076.142v1.425l-.201.022V7c-.267.27-.422 1.075-.36 1.995.032.471.116.901.231 1.24l-1.17.176L2 11.427z"/></svg>