<svg xmlns="http://www.w3.org/2000/svg" width="512" height="512" viewBox="0 0 512 512"><path d="M297.57 96.05c-3.17-3.17-3.17-3.17-6.34-3.17h-70.35s-3.18 0-3.18 3.17l-67.17 64s-3.18 3.17-3.18 6.35v22.42c0 3.18 3.18 6.35 6.35 6.35s12.8-3.17 12.8-6.35v-12.8h51.2v9.63l-67.17 67.17v25.6c0 6.35 3.17 9.63 6.35 9.63s6.35-3.18 6.35-6.35v-15.97h48.02L176.03 422.5c0 3.17 3.17 9.63 6.35 9.63h3.17s6.35-3.18 6.35-6.35v-6.35l64-44.75 60.82 44.75v6.35c0 3.17 6.35 6.35 9.63 6.35 3.17 0 6.35-6.35 6.35-9.63l-31.95-156.77h48.03v12.8c0 6.35 3.17 9.62 6.34 9.62s6.35-3.17 6.35-6.35v-28.77l-64-64v-12.8h51.2v12.8c0 3.17 3.18 6.35 6.35 6.35s6.35-3.18 6.35-6.35V166.6c0-3.17 0-3.17-3.17-6.35l-60.62-64.2zM294.4 307.2l-25.6-19.25 15.97-15.97 9.63 35.22zm-22.43-131.17L256 198.43l-12.8-22.4h28.77zm-31.95-16.08L256 143.97l19.25 15.98h-35.23zm41.58 28.88c0 3.17 0 3.17 0 0v41.57l-15.97-19.25 15.97-22.32zm-3.18 60.82h-41.57l19.25-25.6 22.32 25.6zm-9.62 15.97l-12.8 9.63-9.63-9.63h22.43zm12.8-118.37l-12.8-12.8 12.8-12.8v25.6zm-9.63-38.5L256 121.65l-12.8-12.8h28.77zm-41.57 9.62l15.97 15.98-15.97 16.07v-32.05zm0 70.46l15.97 22.42-15.97 22.32v-44.74zm-3.17 83.14l19.25 15.98-28.78 22.42 9.53-38.4zm-54.38-112.02l41.58-41.58v41.58h-41.58zm0 89.7l41.58-41.57v41.57h-41.58zm25.6 150.32l12.8-57.55 31.95 22.43-44.75 35.12zM256 355.23l-38.4-25.6 38.4-31.95 38.4 31.95-38.4 25.6zm44.85-12.8l12.8 54.37-44.75-31.95 31.95-22.42zm38.3-92.78h-41.58v-41.57l41.58 41.57zm-41.57-89.7V115.1l44.85 44.85h-44.86zm-159.95 64.1L3.16 271.97s-3.17 0 0 3.18h3.18l134.35-38.4v-3.18l-3.1-9.52c3.17 3.18 0 3.18 0 0zM3.18 259.18l124.82-64V179.2h-3.17L0 256l3.18 3.18c-3.18 0-3.18 0 0 0zM128 271.98L6.35 287.94s-3.18 0-3.18 3.17c0 0 0 3.2 3.18 3.2L128 284.68s3.17 0 3.17-3.17l-3.17-9.54c3.17 3.28 3.17 3.28 0 0zM512 256l-124.83-73.63H384v12.8l124.82 64c3.18 0 3.18 0 3.18-3.17zm-6.35 31.95L384 271.98h-3.17v9.52s0 3.17 3.17 3.17l121.65 6.35c0 .2 3.18.2 0-3.07 3.18 0 3.18 0 0 0zm3.18-15.98l-134.35-48.02h-3.18v12.7l134.35 38.4c3.17.2 3.17.2 3.17-3.08 3.18 0 0 0 0 0z"/></svg>