<svg viewBox="0 0 129 85" xmlns="http://www.w3.org/2000/svg" fill-rule="evenodd" clip-rule="evenodd" stroke-linejoin="round" stroke-miterlimit="1.41"><path d="M127.3 44.64L93.93 33.3c-.16-.04-.34 0-.5.1-.13.1-.2.25-.2.43l-.02 1.86c.1.2.2.4.4.5l33.4 9.5h.2c.26 0 .48-.2.5-.4.1-.3-.02-.6-.3-.7m-.73 4.1l-30.44-3.5c-.15-.03-.3.02-.42.12s-.17.24-.17.4v1.86c0 .27.2.5.5.52l30.4 1.6h.05c.3 0 .55-.2.57-.5.03-.3-.2-.54-.5-.6m1.2-8l-31.2-18.2c-.17-.1-.37-.1-.54 0-.2.1-.3.27-.3.46v2.23c0 .2.1.3.3.4l31.2 16.1c.1 0 .18.03.27.03.2 0 .4-.1.5-.28.13-.27.04-.6-.2-.74m-95.9 4.6L1.5 48.73c-.3.06-.5.3-.47.6.03.3.27.5.55.5h.02l30.4-1.6c.28-.02.5-.25.5-.54v-1.9c0-.2-.06-.3-.17-.4-.12-.1-.26-.2-.42-.17M.8 41.7l31.15-16.13c.18-.1.3-.28.3-.48v-2.3c0-.2-.1-.4-.28-.5-.17-.1-.38-.1-.54 0L.27 40.73c-.26.14-.34.46-.2.72.1.18.28.28.47.28.1 0 .17-.02.25-.06m33.3-8.4L.7 44.6c-.28.1-.43.4-.34.68.07.24.3.4.5.4h.16l33.36-9.5c.23-.05.4-.26.4-.5v-1.86c0-.18-.1-.34-.23-.44-.14-.1-.33-.12-.5-.1m40.3-16V6.1l11.2 11.2H74.4zm10.4 22.38H74.4v-10.4l10.4 10.4zM75.4 62.64l3.1 13.64-10.9-7.98 7.85-5.7zM64.4 66l-9.26-6.7 9.25-8.12 9.2 8.1L64.4 66zM49.74 76.62L53 62.42l8.15 5.92-11.4 8.28zm-6.2-36.95L54 29.24v10.44H43.55zM43.2 17.3L54 6.5v10.8H43.2zm13.83 27.43l4.47 3.93-6.7 5.88 2.23-9.8zm.76-20.97l4.2 5.8-4.3 5.83V23.7zm0-17.3l3.9 3.9-3.9 3.9v-7.8zM68.2 3.8l-3.9 3.88-3.9-3.88h7.8zm2.33 10.08L67 10.36l3.53-3.52v7.04zm-3.2 29.6l-3.03 2.65-3.02-2.66h6.06zm2-3.8h-10l5.02-6.9 5 6.9zm1.2-15.4v10.6l-3.87-5.3 3.87-5.3zm-10.5-7l4.28-4.24 4.28 4.25h-8.5zm8.1 3.8l-3.82 5.27-3.83-5.27h7.7zm5.3 33.05l-6.24-5.48L71.4 45l2.08 9.14zM74.2.56c-.4-.4-.94-.57-1.47-.54L72.5 0H55.9c-.24 0-.47.05-.68.13h-.04c-.23.1-.44.25-.6.43L37.98 17.1c-.36.36-.56.84-.56 1.35v5.82c0 1.05.85 1.9 1.9 1.9 1.05 0 1.9-.85 1.9-1.9v-3.2H54v2.8L37.43 40.42v6.6c0 1.06.85 1.9 1.9 1.9 1.05 0 1.9-.84 1.9-1.9v-3.55H53.4l-8.94 39.2c-.23 1.03.4 2.05 1.43 2.28.1.03.2.05.4.05.8 0 1.6-.6 1.8-1.48l.3-1.34c.1-.05.2-.07.23-.13L64.4 70.7l15.44 11.2.37 1.6c.3 1.02 1.3 1.67 2.3 1.43 1-.23 1.7-1.25 1.5-2.27l-9-39.2h12.1V47c0 1.06.86 1.9 1.9 1.9 1.06 0 1.9-.84 1.9-1.9v-6.6L74.43 23.9v-2.8h13.1v3.17c0 1.05.86 1.9 1.9 1.9 1.06 0 1.9-.85 1.9-1.9v-5.82c0-.5-.2-1-.54-1.34L74.23.6z"/></svg>