<svg viewBox="0 0 17 16" xmlns="http://www.w3.org/2000/svg" fill-rule="evenodd" clip-rule="evenodd" stroke-linejoin="round" stroke-miterlimit="1.414"><path d="M15.664 6.645L8.698.27c-.397-.36-1-.36-1.397 0L.34 6.646c-.42.385-.45 1.04-.066 1.46v.002c.206.222.485.336.765.336.25 0 .49-.09.7-.272L8 2.44l6.267 5.733c.42.387 1.077.358 1.462-.063.38-.422.35-1.077-.07-1.462M2.48 8.433v6.483c.006.247.164.402.29.475.14.08.286.12.44.12h2.94c.1 0 .2-.04.27-.11.075-.07.115-.17.115-.27V12h2.927v3.12c0 .1.042.2.114.27.07.073.17.114.27.114h2.938c.158 0 .305-.034.44-.113.13-.07.287-.22.292-.47V8.44L8 3.388l-5.518 5.05z"/></svg>