<svg viewBox="0 0 16 16" xmlns="http://www.w3.org/2000/svg" fill-rule="evenodd" clip-rule="evenodd" stroke-linejoin="round" stroke-miterlimit="1.414"><path d="M12.072 11.198c-1.03 1.297-2.57 2.04-4.223 2.04-2.975 0-5.393-2.418-5.393-5.39 0-2.972 2.418-5.39 5.39-5.39 1.484 0 2.86.605 3.86 1.632l-1.477.828L16 9.178l-.61-7.152-1.498.84C12.42 1.076 10.23 0 7.85 0 3.52 0 0 3.52 0 7.848c0 4.327 3.52 7.848 7.85 7.848 2.407 0 4.648-1.08 6.148-2.97.422-.53.333-1.303-.198-1.726-.532-.42-1.305-.333-1.728.198" fill-rule="nonzero"/></svg>