<svg width="512" xmlns="http://www.w3.org/2000/svg" height="512" xmlns:atv="http://webmi.atvise.com/2007/svgext"><g atv:refpx="256" atv:refpy="256"><path atv:refpx="170.1" atv:refpy="256" d="M114 326.5c-11.5-7.5-25.2-11.8-40-11.8-40.8 0-74 33.2-74 74 0 41 33.2 74 74 74 28.8 0 53.7-16.4 66-40.3l29 4.3v-16.2l122.3 12.3v13.6l49 5.4V49.2L114 106zm104 66l-70-6.8c-.2-5.8-1-11.3-2.6-16.6l72.6 4.7zm6-291.3l91.8-22V108L224 126.2zm0 35.3l92-18.5v37.3l-92 14.2zm0 43l91.8-14.2v26.5L224 202.6zm0 33l92-10.5v28.8l-92 7.2zm0 35.3l91.8-7.3V267l-91.7 4zm0 33l92-3.8v24.2l-91.7.8zm0 31l91.8-.7v24.5L224 333zm0 31l92 2.2v24.2l-91.7-5.4zm0 31l92 5.2v23l-91.7-9zm-85.5-252l79.5-19v24.8l-79.5 16zm0 32l79.5-16v32.6l-79.5 12.3zm0 39l79.5-12.4v23l-79.5 9.3zm0 30l79.5-9.5v25l-79.5 6.3zm0 31.8l79.5-6.3v23l-79.5 3.4zm0 30l79.5-3.4V302l-79.5.7zm0 28l79.5-.7v20.4l-79.5-2zm0 28l79.5 2v20.8l-76.2-4.6c-1-2.2-2-4.4-3.3-6.6zm-1.5 48c0 8.5-1.7 16.4-4.6 23.7-9.4 23-32 39.3-58.3 39.3-34.3 0-62.5-28.2-62.5-63 0-34.6 28.2-62.7 63-62.7 15 0 29 5 39.8 14 14 11.4 23 29 23 48.4"/><path atv:refpx="429.2" atv:refpy="254.9" d="M438 309.8c-13.4 0-25.8 3.6-36.6 9.7V105l-55-53v388.7l18.3-8.2v-14.8l6-3c1.7 4 3.8 7.6 6.2 11v.7c13.4 19 35.6 31.6 60.6 31.6 40.7 0 74-33.3 74-74 0-41-33.2-74.2-74-74.2m0 137c-20 0-37.5-9.2-49-23.6-8.7-10.8-14-24.4-14-39.4 0-21 10.5-39.6 26.4-51 10.4-7.4 23-11.8 36.6-11.8 34.6 0 62.8 28.2 62.8 62.8 0 34.7-28.2 63-63 63"/><path atv:refpx="74.5" atv:refpy="389.6" d="M86.8 353H62.3v24.4H38V402h24.3v24.3h24.5V402h24.4v-24.6H86.8z"/><path atv:refpx="438.1" atv:refpy="383.5" d="M401.4 371.3h73.4v24.4h-73.4z"/></g></svg>