<svg xmlns="http://www.w3.org/2000/svg" width="512" height="512" viewBox="0 0 512 512"><path d="M115.6 91L102 105.3l14 5.6-.4-20zm-82.3 35.7l-19.5-4 11 16.6 8.5-12.6zM78 85.4l-6.2 19L87 103l-9-17.6zm73 72.6l15.2-12.7-19.8-1.8L151 158zm-4-45.6l-18.6 7 10.4 11 8.3-18zm-89.6-3.6l-15.7-12 2.6 19.6 13-7.6zM77 170.2h66v-3c-2.5-32.2-30.7-57-63-54.4s-56.4 30.4-54 62.7c1.7 20.5 13.7 38.7 30.6 48L77 170zm-57.7-17l-19.3 5 17 10 2.3-15zm452 26.8h-385L45 293.8l7.5 18.3h45v50.7s1 6 7.5 6c6.6 0 7.3-6 7.3-6V312l344-.7v51s1 6 7.4 6c6.7 0 7.4-6 7.4-6v-51h38l3.5-22-41-109.3zm7.5 64h-55.4l-7.4-24.7h54.8l8 24.6zm-17.6-49.2l4.8 14.7h-53.5l-4-14.7H461zm-60 0l4 14.7h-68l-2.2-14.7h66zm-171.2 0h98l2 14.7H228.5l1.6-14.7zm-3 24.5h105l3.8 24.6H224l3-25zm-70-24.5h66l-1.6 14.7h-68l3.5-14.7zm-60.4 0h53.2l-3.5 14.7h-54l4.3-14.7zm-9 24.5h56l-6.3 24.6h-57l7.4-25zM67 288l10.3-34.3h58.3l-8 34.4H67zm145.3 0h-77.6l8-34.3h73.5l-4 34.4zm-68-44l6.3-24.7H220l-3 24.6h-72.6zm75 44l4-34.3H337l5 34.4H219.2zM339 219.4h69.7l7.5 24.6H343l-4-24.7zm10 68.8l-5-34.3h74l9.7 34H349zm86.2 0l-9.8-34.3H482l11 34h-57.8zM22 229l18.6-7-10.4-11.2-8.2 18zm-3.8-45.7L3 196l19.7 2-4.5-14.7z"/></svg>