<svg viewBox="0 0 105 58" xmlns="http://www.w3.org/2000/svg" fill-rule="evenodd" clip-rule="evenodd" stroke-linejoin="round" stroke-miterlimit="1.4"><path d="M3.7 20l-3 2.5 4 .4-1-3zm.8 9.2l3.8-1.4-2-2.3-1.8 3.7zm84 12l-2-7H98l2.4 7h-12zm-17.5 0l-1-7h15l2 7H71zm-2-14h14.2l1.5 5h-15l-.7-5zm-24.4 14l.8-7h23l1.2 7h-25zm-15.2-9l1.3-5h14l-.5 5H29.4zm13.8 9H27.4l1.6-7h15l-.8 7zm-29.6 0l2-7h12l-1.6 7H13.6zm4.2-14h11.4l-1.3 5H16l1.5-5zm2-5h10.7l-.7 3h-11l1-3zm12 0h13.6l-.4 3H31.2l.7-3zm14.4 5h21.3l.8 5H45.6l.6-5zm.6-5h20l.4 3H46.5l.3-3zm34.8 0l1 3h-14l-.4-3h13.4zm12.2 0l1 3h-11l-.7-3h11zm3.6 10H86.2l-1.6-5h11.2l1.6 5zm-1.5-13H17L9 42.4l1.4 3.7H20v11s0 1.5 1.4 1.5c1.3 0 1.5-1.3 1.5-1.3V46h70v10.3s0 1.2 1 1.2 1-1.2 1-1.2V46h7.5l.7-4.5-8-22.3zM4 13.8l-4 1 3.5 2 .4-3zm11.7 3.4H29v-.6C28.7 10 23 5 16.4 5.6c-6.6.5-11.5 6-11 12.7.3 4.2 2.8 8 6.2 9.8l4.2-10zm-4-12.4L8.5 2.3l.5 4 2.7-1.5zm18.2.7L26 7l2.4 2L30 5.5zm0 9.3l3-2.6-4-.4 1 3zM16 0l-1.4 3.8 3-.2L16 0zM6.7 8.4l-4-.8L5 11l1.8-2.6zM23.5 1l-2.8 3 3 1.2-.2-4z"/></svg>