<?xml version='1.0' encoding='UTF-8' standalone='no'?>
<svg width="200" version="1.2" xmlns="http://www.w3.org/2000/svg" height="50" xmlns:xlink="http://www.w3.org/1999/xlink" xmlns:atv="http://webmi.atvise.com/2007/svgext">
 <defs>
  <linearGradient id="linear_0" y1="0" x1="0" y2="1.05455" gradientUnits="objectBoundingBox" x2="0.0181818">
   <stop offset="0" stop-color="#6d6d6d"/>
   <stop offset="1" stop-color="#3c3c3c"/>
  </linearGradient>
 </defs>
 <metadata>
  <atv:gridconfig width="20" enabled="false" height="20" gridstyle="lines"/>
  <atv:snapconfig width="10" enabled="false" height="10"/>
 </metadata>
 <rect width="200" x="0" y="0" fill="url(#linear_0)" height="50" stroke="none" id="id_0" atv:refpx="0" stroke-width="0" atv:refpy="0"/>
 <rect width="200" x="0" y="0" fill="#383838" height="50" stroke="none" id="selectedIndicator" atv:refpx="100" stroke-width="0" atv:refpy="25"/>
 <text x="53.5" y="29" fill="#ffffff" font-family="Arial" id="id_1" font-weight="bold" atv:refpx="77.072" atv:refpy="24.5" font-size="10">$NAME$</text>
 <path fill="#ffffff" stroke="none" id="expandedIndicator" atv:refpx="33.906" stroke-width="0" atv:refpy="17.507" d="M8,21.5C8,21.5 11.5,28.5 11.5,28.5C11.5,28.5 15,21.5 15,21.5Z"/>
 <path fill="#ffffff" stroke="none" id="collapsedIndicator" atv:refpx="11.5" stroke-width="0" atv:refpy="25" d="M8,28.5C8,28.5 15,25 15,25C15,25 8,21.5 8,21.5Z"/>
 <rect width="0.5" x="0" y="0" fill="#000000" height="50" stroke="none" id="id_2" atv:refpx="0.25" stroke-width="0" atv:refpy="25.001"/>
 <rect width="0.5" x="22" y="0" fill="#000000" height="50" stroke="none" id="id_3" atv:refpx="22.25" stroke-width="0" atv:refpy="25.001"/>
 <circle fill="#ffffff" cx="38.281" cy="25" stroke="none" r="8.281" id="icon" atv:refpx="38.281" stroke-width="0" atv:refpy="25"/>
 <rect width="1" x="129" y="6" fill="#ffffff" height="38" stroke="none" id="id_5" atv:refpx="129.5" stroke-width="0" atv:refpy="25"/>
 <text x="136" y="12" fill="#ffffff" font-family="Arial" id="id_6" font-weight="bold" atv:refpx="156.5" atv:refpy="7.5" font-size="8">Pot. kW</text>
 <text x="194" y="12" fill="#ffffff" font-family="Arial" text-anchor="end" id="id_7" font-weight="bold" atv:refpx="185.38" atv:refpy="7.5" font-size="8">$MaxValue$</text>
 <text x="135.802" y="24.783" fill="#ffffff" font-family="Arial" id="id_8" font-weight="bold" atv:refpx="155.56" atv:refpy="20.283" font-size="8">Akt. kW</text>
 <text x="194" y="24.981" fill="#ffffff" font-family="Arial" text-anchor="end" id="id_9" font-weight="bold" atv:refpx="182.135" atv:refpy="20.481" font-size="8">$CurrentValue$</text>
 <rect width="22.5" x="0" y="0" fill="#0cff00" height="50" stroke="none" fill-opacity="0" id="expandClickarea" atv:refpx="11.25" stroke-width="0" atv:refpy="24.999"/>
 <rect width="200" x="0" y="49.5" fill="#000000" height="0.5" stroke="none" id="id_11" atv:refpx="100" stroke-width="0" atv:refpy="49.75"/>
 <rect width="200" x="0" y="0" fill="#000000" height="0.5" stroke="none" id="id_12" atv:refpx="100" stroke-width="0" atv:refpy="0.25"/>
 <rect width="0.5" x="199.5" y="0" fill="#000000" height="50" stroke="none" id="id_13" atv:refpx="199.75" stroke-width="0" atv:refpy="25.001"/>
 <rect width="60" x="135" y="35" fill="#000000" height="9" stroke="none" id="id_4" atv:refpx="165" stroke-width="0" atv:refpy="39.501"/>
 <rect width="40" x="135" y="35" fill="#ffffff" height="9" stroke="none" id="indicator" atv:refpx="155" stroke-width="0" atv:refpy="39.501"/>
</svg>
