<?xml version="1.0" encoding="UTF-8"?>
<!-- Generated by IcoMoon.io -->
<svg xmlns:xlink="http://www.w3.org/1999/xlink" xmlns:atv="http://webmi.atvise.com/2007/svgext" width="512" version="1.1" height="243" visibility="hidden" atv:oe="2BH6K3GAE3D6Q2PEJ9ND7769B8D5E36F86AAJCI4E9N1D1NBQDMDE46CC69GFDH88" xmlns="http://www.w3.org/2000/svg">
 <defs/>
 <metadata/>
 <rect fill="#ce585c" height="51" id="id_37" stroke="#ca916e" stroke-width="1" width="195" x="301" y="178"/>
 <rect fill="#d4667a" height="89" id="id_28" stroke="#58cd49" stroke-width="1" width="400" x="75" y="30"/>
 <g id="id_5" atv:refpx="256.014" atv:refpy="121.501" transform="matrix(0.9133,0,0,0.5768,22.1845,9.2622)">
  <rect fill="#8ab439" height="51" id="id_38" stroke="#46a160" stroke-width="2" width="2" x="399" y="135"/>
  <ellipse cx="399" cy="100" fill="#994eb9" id="id_33" rx="113" ry="78" stroke="#7ad69b" stroke-width="4"/>
  <polygon fill="#422e55" id="id_21" points="468,233 141,34 432,238 396,144 56,180 250,122 309,116 318,224 362,63 376,146 496,127 59,81 80,92 427,113 " stroke="#4f48c4" stroke-width="4"/>
  <g id="id_7" atv:refpx="430.012" atv:refpy="12.786">
   <circle cx="57" cy="193" fill="#a41cf6" id="id_30" r="45" stroke="#b42c11" stroke-width="3"/>
   <path fill="#647A8F" id="id_0" atv:refpx="361.626" atv:refpy="97.475" stroke-width="1" d="M352,32.774C345.6,35.974 348.8,51.974 348.8,55.174C352,58.374 358.4,58.374 364.8,55.174C371.2,51.974 377.6,42.374 374.4,39.174C371.2,32.774 358.4,26.374 352,32.774"/>
   <polyline fill="#d09464" id="id_8" points="415,146 247,21 356,92 101,145 187,183 10,72 201,213 155,81 368,235 " stroke="#dec606" stroke-width="2"/>
   <line fill="#c299b0" id="id_6" stroke="#8dcc36" stroke-width="3" x1="116" x2="24" y1="147" y2="224"/>
   <polygon fill="#1bf6d4" id="id_36" points="151,82 209,62 224,113 449,180 397,33 117,235 33,27 460,66 " stroke="#c22448" stroke-width="4"/>
   <circle cx="482" cy="115" fill="#55a720" id="id_35" r="89" stroke="#a947e5" stroke-width="5"/>
   <polyline fill="#244777" id="id_26" points="224,55 286,145 52,154 362,235 147,58 187,103 287,208 " stroke="#7261e0" stroke-width="4"/>
   <path fill="#647A8F" id="id_1" atv:refpx="454.235" atv:refpy="84.412" stroke-width="1" d="M508.8,3.974C483.2,-5.625 441.6,3.974 422.4,13.574C406.4,19.974 400,32.774 396.8,39.174C396.8,39.174 393.6,58.374 406.4,61.574C419.2,61.574 467.2,58.374 483.2,51.974C505.6,42.374 518.4,7.174 508.8,3.974"/>
   <polygon fill="#5e6ff9" id="id_23" points="298,206 288,172 464,237 41,147 212,225 235,37 321,75 435,84 381,220 333,219 33,126 144,95 454,210 153,231 " stroke="#2413a8" stroke-width="4"/>
   <rect fill="#fb0419" height="30" id="id_15" stroke="#c30763" stroke-width="1" width="84" x="202" y="45"/>
   <line fill="#98ea3b" id="id_14" stroke="#f774e3" stroke-width="3" x1="284" x2="482" y1="22" y2="23"/>
  </g>
  <polygon fill="#76bd33" id="id_31" points="29,111 180,73 274,167 237,20 481,237 346,28 61,159 322,242 " stroke="#4014d1" stroke-width="5"/>
  <circle cx="495" cy="187" fill="#e73265" id="id_29" r="119" stroke="#269ebd" stroke-width="2"/>
  <polygon fill="#824dc1" id="id_25" points="401,44 469,130 65,63 185,227 172,238 453,165 19,240 79,109 93,242 187,194 73,52 302,90 " stroke="#92da6c" stroke-width="5"/>
  <path fill="#647A8F" id="id_2" atv:refpx="238.4" atv:refpy="396.4" stroke-width="1" d="M64,360.374L0,325.174L0,353.974L64,389.174L476.8,325.174L476.8,296.374Z"/>
  <rect fill="#8218ec" height="74" id="id_20" stroke="#8408a9" stroke-width="4" width="36" x="321" y="166"/>
  <line fill="#b1afcf" id="id_19" stroke="#818fd0" stroke-width="5" x1="342" x2="213" y1="22" y2="18"/>
  <rect fill="#04d7bb" height="107" id="id_17" stroke="#297058" stroke-width="4" width="211" x="286" y="89"/>
  <polyline fill="#4e70c1" id="id_34" points="151,126 166,200 185,150 403,183 362,13 171,100 191,71 393,127 331,99 348,35 491,197 36,54 432,163 " stroke="#54d669" stroke-width="4"/>
  <ellipse cx="291" cy="152" fill="#3b7777" id="id_32" rx="193" ry="106" stroke="#738237" stroke-width="3"/>
  <path fill="#647A8F" id="id_3" atv:refpx="217.6" atv:refpy="151.6" stroke-width="1" d="M217.6,107.574C233.6,107.574 249.6,104.374 249.6,101.174C249.6,97.974 220.8,88.374 217.6,88.374C214.4,88.374 185.6,97.974 185.6,101.174C185.6,104.374 201.6,107.574 217.6,107.574"/>
  <ellipse cx="510" cy="142" fill="#e97ef2" id="id_27" rx="152" ry="53" stroke="#843da5" stroke-width="3"/>
  <rect fill="#bd700a" height="152" id="id_16" stroke="#a86940" stroke-width="5" width="126" x="348" y="11"/>
  <polygon fill="#7a0535" id="id_12" points="58,59 224,81 415,136 415,85 483,24 138,159 260,211 " stroke="#c11dfe" stroke-width="5"/>
  <ellipse cx="309" cy="139" fill="#1018bb" id="id_22" rx="1" ry="115" stroke="#379866" stroke-width="4"/>
  <path fill="#647A8F" id="id_4" atv:refpx="236.8" atv:refpy="258.8" stroke-width="1" d="M64,347.574L473.6,286.774L460.8,280.374L460.8,270.774L467.2,270.774L467.2,85.174L406.4,91.574L380.8,110.774L380.8,75.574C380.8,69.174 371.2,62.774 364.8,62.774C358.4,62.774 348.8,69.174 348.8,75.574L348.8,97.974C345.6,97.974 342.4,97.974 339.2,101.174C332.8,104.374 329.6,110.774 329.6,117.174L300.8,117.174C284.8,117.174 278.4,129.973 278.4,136.374L278.4,142.773L256,142.773C252.8,129.973 243.2,120.374 230.4,120.374L230.4,110.774C230.4,110.774 224,110.774 217.6,110.774C211.2,110.774 204.8,110.774 204.8,110.774L204.8,123.574L176,123.574C166.4,126.774 156.8,136.374 153.6,149.174L128,149.174L128,104.374L86.4,104.374L51.199,107.573L51.199,152.373L44.8,152.373L44.8,203.574C35.199,216.374 31.999,241.974 31.999,270.774C31.999,286.774 35.199,299.574 38.4,309.174L0,315.574ZM390.399,120.374L454.4,113.973L454.4,123.574L403.2,129.973L390.399,129.973ZM390.399,145.974L454.4,139.574L454.4,149.174L403.2,155.574L390.399,155.574ZM390.399,171.574L454.4,165.173L454.4,174.774L403.2,181.174L390.399,181.174ZM390.399,197.174L454.4,190.774L454.4,200.374L403.2,206.774L390.399,206.774ZM57.6,206.774C57.6,206.774 217.6,200.374 220.8,200.374C233.6,200.374 249.6,216.374 252.8,251.574C256,283.574 240,315.574 233.6,315.574C233.6,315.574 89.6,334.774 67.2,337.974C76.8,331.574 83.2,302.774 80,273.974C76.8,238.774 67.2,213.174 57.6,206.774"/>
  <line fill="#1ca218" id="id_18" stroke="#f06276" stroke-width="2" x1="307" x2="361" y1="2" y2="179"/>
 </g>
 <script xlink:href="../../webmi.js" type="text/ecmascript"/>
 <script type="text/ecmascript"><![CDATA[webMI.proxy({"":[function(webMI,window,document,self){},{},{" Icon Genset":""}]},window);]]></script>
</svg>
