<?xml version="1.0" encoding="UTF-8"?>
<svg xmlns:xlink="http://www.w3.org/1999/xlink" xmlns:atv="http://webmi.atvise.com/2007/svgext" width="1024" atv:contentwidth="1280" version="1.2" height="768" atv:contentheight="734" visibility="hidden" atv:oe="2BF6H3DAB3A6N2MEG9KCK6J8O8A5B33F567AGCF4B9K1A1KBNDJCR3JBP66GCDE85" xmlns="http://www.w3.org/2000/svg">
 <defs>
  <radialGradient fx="0.5" fy="0.5" cx="0.5" cy="0.5" id="linear_0" r="1" gradientUnits="objectBoundingBox">
   <stop offset="0" stop-color="#efefef"/>
   <stop offset="1" stop-color="#efefef" stop-opacity="0"/>
  </radialGradient>
 </defs>
 <metadata/>
 <g atv:insensitive="true" id="id_2" atv:refpx="0" atv:refpy="0" transform="matrix(0.8,0,0,0.96,0,0)">
  <rect width="1280.00" x="0" y="0" fill="#ffffff" height="800.00" id="id_3" atv:refpx="640" atv:refpy="400"/>
 </g>
 <rect width="983" x="35" y="140" fill="none" rx="4.974" ry="5" height="625" stroke="#efefef" stroke-linejoin="round" id="border_iframe" stroke-linecap="round" atv:refpx="526.5" stroke-width="1" atv:refpy="452.5"/>
 <g transform="matrix(1,0,0,0.8857,0,0)">
  <svg width="1024" x="0" y="836.111" rx="5" height="31" id="footer" atv:refpx="512" atv:refpy="754.726">
   <defs/>
   <metadata/>
   <g atv:insensitive="true" id="footer_id_4" atv:refpx="0" atv:refpy="0" transform="matrix(1,0,0,1.5626,0,0)">
    <rect width="1024.00" x="0" y="0" fill="#74889B" height="32.00" id="footer_id_5" atv:refpx="512" atv:refpy="16"/>
   </g>
   <text x="9" y="31.5" fill="#FFFFFF" font-family="Open Sans Semibold" id="footer_txt_footerItem" atv:refpx="5.003" atv:refpy="27" font-size="17"/>
   <g transform="matrix(1.5,0,0,1.5,0,0)">
    <svg width="20" x="656.667" y="6.667" height="20" id="footer_id_alarmstatus" atv:refpx="1000" atv:refpy="25">
     <!-- Generated by IcoMoon.io -->
     <defs/>
     <metadata/>
     <g fill="#647a8f" id="footer_id_alarmstatus_icomoon-ignore" atv:refpx="0" atv:refpy="0" transform="matrix(0.0363,0,0,0.0363,0.7159,0.5393)"/>
     <g id="footer_id_alarmstatus_id_0" atv:refpx="10.009" atv:refpy="10.093">
      <path fill="#647a8f" id="footer_id_alarmstatus_id_outer_triangle" atv:refpx="256" atv:refpy="260.864" stroke-width="0.036" d="M18.797,14.649L12.142,3.212C10.969,1.195 9.048,1.195 7.874,3.212L1.22,14.649C0.045,16.668 0.994,18.317 3.328,18.317L16.687,18.317C19.022,18.317 19.971,16.668 18.797,14.649M18.331,16.822C18.091,17.24 17.492,17.48 16.687,17.48L3.329,17.48C2.524,17.48 1.926,17.24 1.685,16.822C1.445,16.405 1.539,15.766 1.943,15.07L8.6,3.633C9.005,2.938 9.518,2.537 10.008,2.537C10.498,2.537 11.013,2.938 11.418,3.634L18.073,15.072C18.479,15.766 18.572,16.405 18.331,16.822"/>
      <path fill="#647a8f" id="footer_id_alarmstatus_id_inner_triangle" atv:refpx="255.936" atv:refpy="258.784" stroke-width="0.036" d="M2.537,16.342L17.475,16.342L10.021,3.523ZM10.689,14.666C10.522,14.764 10.292,14.813 10,14.813C9.709,14.813 9.479,14.764 9.312,14.666C9.239,14.54 9.203,14.357 9.203,14.119C9.203,13.881 9.239,13.702 9.312,13.582C9.48,13.484 9.71,13.435 10,13.435C10.292,13.435 10.522,13.484 10.689,13.582C10.762,13.68 10.798,13.857 10.798,14.113C10.799,14.37 10.762,14.555 10.689,14.666M10.831,7.534L10.525,12.604C10.387,12.646 10.211,12.668 10,12.668C9.789,12.668 9.613,12.647 9.476,12.604L9.312,7.808C9.668,7.563 10.15,7.439 10.754,7.439Z"/>
     </g>
    </svg>
   </g>
   <g transform="matrix(0.5,0,0,1.6129,0,0)">
    <svg width="100" x="1950" y="0" height="31" id="footer_click_alarm" atv:refpx="1000" atv:refpy="24.998">
     <defs>
      <linearGradient id="3linear_0" y1="0" x1="0" y2="1" gradientUnits="objectBoundingBox" x2="1">
       <stop offset="0" stop-color="#000000"/>
       <stop offset="1" stop-color="#000000" stop-opacity="0"/>
      </linearGradient>
     </defs>
     <metadata/>
     <g id="footer_click_alarm_id_0" atv:refpx="50" atv:refpy="15.5">
      <rect width="49" x="0.5" y="0.5" atv:bindtl="0,0" fill="#ffffff" rx="3.5" height="49" ry="3.5" stroke="" fill-opacity="0" atv:bindbr="1,1" id="footer_click_alarm_button_stroke_focus" atv:refpx="50" stroke-width="1" atv:refpy="15.5" transform="matrix(2,0,0,0.62,0,0)"/>
      <rect width="49" x="0.5" y="0.5" atv:bindtl="0,0" fill="#ffffff" rx="3.5" height="49" ry="3.5" stroke="#000000" fill-opacity="0" atv:bindbr="1,1" id="footer_click_alarm_button_clickarea" atv:refpx="50" stroke-width="1" atv:refpy="15.5" transform="matrix(2,0,0,0.62,0,0)"/>
     </g>
    </svg>
   </g>
  </svg>
 </g>
 <rect width="1024" x="0" y="0" fill="#BEC7D0" height="120" stroke="none" id="header" atv:refpx="512" stroke-width="2" atv:refpy="60"/>
 <g>
  <svg width="175" x="790" y="0" height="120" id="id_0" atv:refpx="893.5" atv:refpy="60">
   <defs>
    <linearGradient id="4linearGradient5122" y1="2.13078" x1="0.324181" y2="-0.588832" x2="0.363642" gradientUnits="objectBoundingBox">
     <stop offset="0" stop-color="#dbe3db" stop-opacity="1"/>
     <stop offset="1" stop-color="#dbe3db" stop-opacity="0"/>
    </linearGradient>
    <linearGradient id="4linearGradient5125" y1="-0.0768114" x1="0.523152" y2="1.27115" x2="0.524121" gradientUnits="objectBoundingBox">
     <stop offset="0" stop-color="#dbe3db" stop-opacity="1"/>
     <stop offset="1" stop-color="#dbe3db" stop-opacity="0"/>
    </linearGradient>
    <linearGradient id="4linear_5" y1="-0.0768114" x1="0.523152" y2="1.27115" x2="0.524121" gradientUnits="objectBoundingBox">
     <stop offset="0" stop-color="#dbe3db" stop-opacity="1"/>
     <stop offset="1" stop-color="#dbe3db" stop-opacity="0"/>
    </linearGradient>
    <linearGradient id="4linear_6" y1="2.13078" x1="0.324181" y2="-0.588832" x2="0.363642" gradientUnits="objectBoundingBox">
     <stop offset="0" stop-color="#dbe3db" stop-opacity="1"/>
     <stop offset="1" stop-color="#dbe3db" stop-opacity="0"/>
    </linearGradient>
    <linearGradient id="4linear_7" y1="-0.0768114" x1="0.523152" y2="1.27115" x2="0.524121" gradientUnits="objectBoundingBox">
     <stop offset="0" stop-color="#dbe3db" stop-opacity="1"/>
     <stop offset="1" stop-color="#dbe3db" stop-opacity="0"/>
    </linearGradient>
    <linearGradient id="4linear_8" y1="2.13078" x1="0.324181" y2="-0.588832" x2="0.363642" gradientUnits="objectBoundingBox">
     <stop offset="0" stop-color="#dbe3db" stop-opacity="1"/>
     <stop offset="1" stop-color="#dbe3db" stop-opacity="0"/>
    </linearGradient>
   </defs>
   <metadata/>
   <rect width="175" x="0" y="15" fill="#647A8F" rx="9.114" height="32" ry="5.517" stroke="none" id="id_0_id_1" atv:refpx="87.5" stroke-width="2" atv:refpy="96"/>
   <text x="9.5" y="35" fill="#ffffff" font-family="Varela Round" id="id_0_id_3" atv:refpx="74.045" atv:refpy="28.5" font-size="12">HELLO USER:</text>
   <g transform="matrix(1,0,0,0.9677,0,0)">
    <svg width="60" x="0" y="62" height="31" id="id_0_id_5" atv:refpx="30.008" atv:refpy="75.003">
     <defs/>
     <metadata/>
     <circle cx="96" cy="721" fill="#9ee8ab" id="id_16" r="298" stroke="#67668d" stroke-width="3"/>
     <rect width="60" x="0" y="0" fill="#647A8F" rx="5" ry="5" height="31" stroke="none" id="id_0_id_5_id_31" atv:refpx="30" stroke-width="0" atv:refpy="15.5"/>
     <circle cx="295" cy="89" fill="#3290a0" id="id_13" r="218" stroke="#7af3b9" stroke-width="4"/>
     <g transform="matrix(1.25,0,0,1.25,0,0)">
      <svg width="20" x="27.2" y="2.8" height="20" id="id_0_id_5_id_32" atv:refpx="46.5" atv:refpy="16">
       <defs/>
       <metadata/>
       <polygon points="12.091,12.14 16.534,16.175 14.835,9.625" fill="#ffffff" stroke="none" id="id_0_id_5_id_32_id_4" atv:refpx="24.395" stroke-width="1" atv:refpy="13.339"/>
       <circle cx="983" cy="439" fill="#1cd861" id="id_10" r="405" stroke="#9f2961" stroke-width="5"/>
       <path fill="#ffffff" fill-rule="evenodd" stroke="none" id="id_0_id_5_id_32_id_17" atv:refpx="6.074" stroke-width="1" atv:refpy="9.925" d="M10.348,13.307L10,13.327L8.524,13.245L7.136,13.008L5.858,12.632L4.714,12.13L3.725,11.517L2.916,10.808L2.31,10.016L1.929,9.155L1.797,8.242L1.929,7.327L2.31,6.467L2.916,5.674L3.725,4.965L4.714,4.351L5.858,3.85L7.136,3.474L8.524,3.238L10,3.156L10.348,3.176L10.348,4.003L8.772,4.003L9.179,9.937L10.348,9.937L10.348,10.784L9.179,10.784L9.179,12.479L10.348,12.479Z"/>
       <path fill="#ffffff" fill-rule="evenodd" stroke="none" id="id_0_id_5_id_32_id_18" atv:refpx="22.324" stroke-width="1" atv:refpy="8.243" d="M18.202,8.242L18.069,9.155L17.688,10.016L17.081,10.807L16.271,11.517L15.283,12.129L14.139,12.632L12.861,13.007L11.473,13.244L10.013,13.326L10.013,12.479L10.82,12.479L10.82,10.784L10.013,10.784L10.013,9.937L10.82,9.937L11.213,4.003L10.013,4.003L10.013,3.156L11.473,3.238L12.861,3.474L14.139,3.85L15.283,4.352L16.271,4.965L17.081,5.674L17.688,6.467L18.069,7.327Z"/>
      </svg>
     </g>
     <text x="8" y="20.5" fill="#ffffff" font-family="Varela Round" text-anchor="start" id="id_0_id_5_id_34" atv:refpx="17.5" atv:refpy="14.5" font-size="14">en</text>
     <rect width="60" x="0.144" y="-0.072" fill="#ffffff" height="31" stroke="none" fill-opacity="0" id="id_0_id_5_languagePicker" atv:refpx="30.144" stroke-width="0" atv:refpy="15.428"/>
    </svg>
   </g>
   <g>
    <svg width="60" x="70" y="60" height="30" id="id_0_id_7" atv:refpx="85" atv:refpy="75">
     <defs>
      <linearGradient id="7linear_12" y1="-0.0183441" x1="1" y2="1" gradientUnits="objectBoundingBox" x2="1">
       <stop offset="0" stop-color="#494949"/>
       <stop offset="1" stop-color="#000000"/>
      </linearGradient>
      <linearGradient id="7linear_0" y1="0.985206" x1="0.103182" y2="0.0446774" gradientUnits="objectBoundingBox" x2="0.103182">
       <stop offset="0" stop-color="#494949"/>
       <stop offset="1" stop-color="#000000"/>
      </linearGradient>
      <linearGradient id="7linear_1" y1="-0.0183441" x1="1" y2="1" gradientUnits="objectBoundingBox" x2="1">
       <stop offset="0" stop-color="#ffffff" stop-opacity="0.2745098039215687"/>
       <stop offset="0.5515695067264574" stop-color="#ffffff" stop-opacity="0"/>
      </linearGradient>
      <linearGradient id="7linear_5" y1="1.01601" x1="0.236193" y2="-0.0183441" gradientUnits="objectBoundingBox" x2="0.236193">
       <stop offset="0" stop-color="#ffffff" stop-opacity="0.2745098039215687"/>
       <stop offset="0.5515695067264574" stop-color="#ffffff" stop-opacity="0"/>
      </linearGradient>
     </defs>
     <rect width="60" x="0" y="0" fill="#647A8F" rx="10" ry="5" height="30" stroke="none" stroke-linejoin="round" id="id_0_id_7_id_1" stroke-linecap="round" atv:refpx="30" stroke-width="0.5" atv:refpy="15"/>
     <metadata/>
     <g id="id_0_id_7_button_clickarea" atv:refpx="30" atv:refpy="15" transform="matrix(1,0,0,1,15,0)">
      <polyline fill="#353b26" id="id_27" points="550,45 278,206 433,519 276,419 367,153 " stroke="#d7d494" stroke-width="2"/>
      <g>
       <svg width="20" x="5" visibility="hidden" y="5" atv:bindtl="0.5,0.5" height="20" atv:bindbr="0.5,0.5" id="id_0_id_7_button_symbol_pressed" atv:refpx="34.5" atv:refpy="49.5">
        <defs/>
        <metadata/>
        <path fill="#ffffff" fill-rule="evenodd" stroke="none" id="id_0_id_7_button_symbol_pressed_id_14" atv:refpx="13" stroke-width="0" atv:refpy="10" d="M6,0L20,0L20,20L6,20L6,17L17,17L17,3L6,3Z"/>
        <polyline fill="#3ce27f" id="id_25" points="826,572 487,75 275,251 981,184 905,127 633,396 831,415 526,565 339,342 398,488 468,407 663,161 " stroke="#cbf24b" stroke-width="5"/>
        <circle cx="818" cy="440" fill="#abd51b" id="id_23" r="259" stroke="#5cc3af" stroke-width="3"/>
        <path fill="#ffffff" fill-rule="evenodd" stroke="none" id="id_0_id_7_button_symbol_pressed_id_17" atv:refpx="6.695" stroke-width="0" atv:refpy="10" d="M0,7.5L6.014,7.5L6.015,4L13.389,10L6.015,16L6.015,12.5L0,12.5Z"/>
        <rect fill="#219bda" height="309" id="id_19" stroke="#50b36a" stroke-width="5" width="777" x="63" y="135"/>
        <circle cx="468" cy="538" fill="#34176b" id="id_6" r="146" stroke="#9491d5" stroke-width="3"/>
       </svg>
      </g>
      <g>
       <svg width="20" x="5" y="5" atv:bindtl="0.5,0.5" height="20" atv:bindbr="0.5,0.5" id="id_0_id_7_button_symbol" atv:refpx="34.5" atv:refpy="49.5">
        <defs/>
        <metadata/>
        <rect fill="#27a98e" height="538" id="id_34" stroke="#4d5df8" stroke-width="1" width="179" x="267" y="76"/>
        <g id="id_0_id_7_button_symbol_id_0">
         <ellipse cx="400" cy="426" fill="#0ab091" id="id_21" rx="417" ry="283" stroke="#7115da" stroke-width="1"/>
         <path fill="#ffffff" fill-rule="evenodd" stroke="none" id="id_0_id_7_button_symbol_id_5" atv:refpx="22.043" stroke-width="1.027" atv:refpy="5.51" d="M19.518,9.967L19.49,10.573L11.278,10.573L11.086,9.933L11.816,9.555L12.483,8.889L12.92,8.043L13.076,7.071L12.92,6.097L12.483,5.253L11.816,4.586L10.971,4.149L9.998,3.992L9.025,4.149L8.18,4.586L7.513,5.253L7.076,6.097L6.919,7.071L7.076,8.043L7.513,8.889L8.18,9.555L8.909,9.933L8.717,10.573L0.504,10.573L0.477,9.967L0.516,9.1L0.631,8.256L0.818,7.436L1.073,6.645L1.394,5.886L1.777,5.162L2.219,4.477L2.716,3.834L3.266,3.236L3.864,2.686L4.507,2.189L5.193,1.747L5.917,1.364L6.676,1.043L7.467,0.787L8.286,0.6L9.131,0.486L9.998,0.447L10.864,0.486L11.709,0.6L12.528,0.787L13.319,1.043L14.078,1.364L14.803,1.747L15.488,2.189L16.131,2.686L16.729,3.236L17.279,3.834L17.776,4.477L18.218,5.162L18.601,5.886L18.922,6.645L19.177,7.436L19.364,8.256L19.479,9.1Z"/>
         <line fill="#88d75b" id="id_12" stroke="#3fd6a9" stroke-width="1" x1="414" x2="333" y1="333" y2="507"/>
         <polygon fill="#e2fc8e" id="id_30" points="596,93 225,79 1017,400 590,480 917,175 263,593 461,493 528,437 792,292 595,419 500,500 " stroke="#c104b3" stroke-width="3"/>
         <path fill="#ffffff" fill-rule="evenodd" stroke="none" id="id_0_id_7_button_symbol_id_6" atv:refpx="21.565" stroke-width="1.027" atv:refpy="24.821" d="M19.518,10.03L19.479,10.897L19.364,11.741L19.177,12.561L18.922,13.351L18.601,14.111L18.218,14.835L17.776,15.52L17.279,16.164L16.729,16.761L16.131,17.311L15.488,17.808L14.803,18.25L14.078,18.633L13.319,18.954L12.528,19.21L11.709,19.397L10.864,19.511L9.998,19.55L9.131,19.511L8.286,19.397L7.467,19.21L6.676,18.954L5.917,18.633L5.193,18.25L4.507,17.808L3.863,17.311L3.266,16.761L2.716,16.164L2.219,15.52L1.777,14.835L1.394,14.111L1.073,13.351L0.818,12.561L0.63,11.741L0.516,10.897L0.477,10.03L8.899,10.03L7.106,16.005L12.889,16.005L11.096,10.03Z"/>
         <line fill="#e85e96" id="id_29" stroke="#1caddc" stroke-width="2" x1="148" x2="838" y1="479" y2="24"/>
         <rect fill="#8e3201" height="549" id="id_17" stroke="#30a616" stroke-width="4" width="100" x="768" y="15"/>
        </g>
       </svg>
      </g>
     </g>
    </svg>
   </g>
   <rect fill="#2abb7e" height="154" id="id_31" stroke="#fe132c" stroke-width="1" width="265" x="457" y="554"/>
   <text x="109.5" y="35" fill="#ffffff" font-family="Varela Round" id="id_0_username_label" atv:refpx="156.271" atv:refpy="28.5" font-size="12">USERNAME</text>
   <line fill="#829779" id="id_15" stroke="#03bb8b" stroke-width="4" x1="225" x2="547" y1="67" y2="570"/>
  </svg>
 </g>
 <g>
  <svg x="460.8" y="220" id="id_1" atv:refpx="512" atv:refpy="258.4">
   <!-- Generator: Adobe Illustrator 17.1.0, SVG Export Plug-In . SVG Version: 6.00 Build 0)  -->
   <ellipse cx="868" cy="186" fill="#151fe2" id="id_35" rx="198" ry="265" stroke="#e702a1" stroke-width="2"/>
   <g>
    <path fill="#DBD600" d="M0,0l18.7,40.2l8-17.7L19.9,7.6L0,0z M34.9,40.1l-8,17.7l0,0L34.9,40.1L34.9,40.1z"/>
    <circle cx="321" cy="434" fill="#4f2c7b" id="id_9" r="329" stroke="#5cc244" stroke-width="4"/>
    <g>
     <path fill="#00ABE5" d="M26.8,22.4L26.8,22.4l8.1,17.7l0,0L26.8,22.4z M18.7,40.2L0.5,80.6l19.8-7.8l6.7-14.9L18.7,40.2z"/>
     <polygon fill="#129939" points="26.8,22.5 18.7,40.2 26.9,57.9 34.9,40.1   "/>
     <rect fill="#9024b1" height="27" id="id_28" stroke="#32af80" stroke-width="4" width="330" x="72" y="693"/>
     <g>
      <circle cx="562" cy="521" fill="#a1a1a8" id="id_33" r="342" stroke="#a6525c" stroke-width="3"/>
      <path fill="#00ACE5" d="M69.9,26.9c-7.2,0-13,5.8-13,13c0,7.2,5.8,13,13,13c2.6,0,5.2-0.8,7.3-2.3c-2.1-2.1-3.2-3.2-3.8-3.8     c-0.3-0.3-0.6-0.6-0.8-0.8c-0.9-0.9-0.9-2.4,0-3.3c0.9-0.9,2.5-0.9,3.4,0l4.5,4.6c1.5-2.2,2.3-4.7,2.3-7.4     C82.9,32.8,77,26.9,69.9,26.9 M69.9,57.7c-9.8,0-17.8-8-17.8-17.8c0-9.8,8-17.8,17.8-17.8c9.8,0,17.8,8,17.8,17.8     c0,3.9-1.3,7.7-3.6,10.8l2.9,2.9c0.9,0.9,0.9,2.4,0,3.4c-0.9,0.9-2.5,0.9-3.4,0l-2.9-2.9C77.5,56.5,73.8,57.7,69.9,57.7"/>
      <line fill="#eb9c9f" id="id_11" stroke="#70264a" stroke-width="2" x1="331" x2="909" y1="187" y2="487"/>
      <circle cx="461" cy="478" fill="#ada417" id="id_20" r="276" stroke="#2c8497" stroke-width="5"/>
      <path fill="#00ACE5" d="M107.3,57.7c-1.3,0-2.4-1.1-2.4-2.4V24.5c0-1.3,1.1-2.4,2.4-2.4c1.3,0,2.4,1.1,2.4,2.4v30.8     C109.7,56.7,108.7,57.7,107.3,57.7"/>
      <line fill="#008ba7" id="id_18" stroke="#108e21" stroke-width="5" x1="572" x2="305" y1="133" y2="609"/>
      <path fill="#00ACE5" d="M163.8,57.7c-1,0-1.6-0.6-1.8-0.8l-26.6-26.6v25c0,1.3-1.1,2.4-2.4,2.4c-1.3,0-2.4-1.1-2.4-2.4V24.5     c0-1.3,1.1-2.4,2.4-2.4c0.7,0,1.2,0.3,1.8,0.8l26.6,26.6v-25c0-1.3,1.1-2.4,2.4-2.4c1.3,0,2.4,1.1,2.4,2.4v30.8     C166.2,56.7,165.1,57.7,163.8,57.7"/>
      <path fill="#00ACE5" d="M202.3,26.9c-7.2,0-13,5.8-13,13c0,7.2,5.8,13,13,13c7.2,0,13-5.8,13-13     C215.4,32.8,209.5,26.9,202.3,26.9 M202.3,57.7c-9.8,0-17.8-8-17.8-17.8c0-9.8,8-17.8,17.8-17.8c9.8,0,17.8,8,17.8,17.8     C220.1,49.8,212.2,57.7,202.3,57.7"/>
      <path fill="#00ACE5" d="M254.5,57.7c-9.1,0-16.5-7.4-16.5-16.5V24.5c0-1.3,1.1-2.4,2.4-2.4c1.3,0,2.4,1.1,2.4,2.4v16.7     c0,6.5,5.3,11.7,11.7,11.7c6.5,0,11.7-5.3,11.7-11.7V24.5c0-1.3,1.1-2.4,2.4-2.4c1.3,0,2.4,1.1,2.4,2.4v16.7     C271,50.3,263.6,57.7,254.5,57.7"/>
      <path fill="#00ACE5" d="M305.3,57.7h-1.5c-4,0-8.7-0.9-11.8-2.2c-1.2-0.5-1.9-1.8-1.5-3c0.3-1,1.2-1.7,2.2-1.7     c0.3,0,0.6,0.1,0.9,0.2c3.4,1.3,6.7,2,10.2,2h1.5c6.8,0,10.2-1.8,10.2-5.3c0-3.5-3.4-5.3-10.2-5.3c-9.4,0-15-3.8-15-10.1     c0-6.1,5.9-10.1,15-10.1c3.9,0,8.7,0.9,11.7,2.2c1.2,0.4,1.9,1.8,1.5,3.1c-0.5,1.2-1.9,1.9-3.2,1.4c-2.5-1-5.5-1.9-10.1-1.9     c-6.8,0-10.2,1.8-10.2,5.3c0,3.5,3.4,5.3,10.2,5.3c9.5,0,15,3.7,15,10.1C320.3,53.8,314.4,57.7,305.3,57.7"/>
      <rect fill="#4b3f47" height="241" id="id_32" stroke="#b3329f" stroke-width="2" width="407" x="249" y="188"/>
     </g>
    </g>
   </g>
  </svg>
 </g>
 <script xlink:href="../../webmi.js" type="text/ecmascript"/>
 <script type="text/ecmascript"><![CDATA[webMI.proxy({"":[function(webMI,window,document,self){},{"footer":["1",{}],"id_0":["4",{}],"id_1":["10",{}]},{}],"1":[function(webMI,window,document,self){webMI.trigger.connect("SetFooterConfig", function(e){

	var line = document.getElementById("txt_footerItem");
	var appendString = "";
	var configArray = e.value;

	var title = [];
	var datapoint = [];
	var unit =  [];


	for (var i=0; i<configArray.length; i++){
		title[i] = configArray[i].title;
		datapoint[i] = configArray[i].dp;
		unit[i] =  configArray[i].unit;
	}

	// Subscribe 
	// Title & Unit make webMI.data.reawebMI.data.subscribe
	webMI.data.subscribeBlock(datapoint, function(a){
		var appendString = '';
		for (var i=0; i<a.length; i++){
			if (a[i].value == undefined)
			;
			else
			appendString += title[i]+": "+a[i].value.toFixed(1)+" "+unit[i]+"  |   ";	
		}	
		webMI.gfx.setText(line, appendString);
		
	});


});

/*
var configArray = 6;
var appendString = "";
for (var i=0; i<configArray; i++){
		appendString += "string "+i+ " | ";
		webMI.gfx.setText("txt_footerItem", appendString);
		console.log("##### FOOTER #####");		
		console.log (appendString)
}*/

webMI.trigger.connect("UpdateAllAlarms", function(e){
	var alarmList = e.value;
	var highest_level = ALARM_LEVEL_NONE;
	for (var i=0; i<alarmList.length; i++){
		if (alarmList[i].level > highest_level) {
			highest_level = alarmList[i].level;
		}
	}
	// set color of triangle
	var id1 = "id_alarmstatus_id_outer_triangle"
	var id2 = "id_alarmstatus_id_inner_triangle"
	//console.log("Updating alarm icon, highest level is "+highest_level);
	switch (highest_level){
		case ALARM_LEVEL_INFO:
			webMI.gfx.setFill(id1, "#00ffff");
			webMI.gfx.setFill(id2, "#00ffff");
			break;
		case ALARM_LEVEL_WARNING:
		case ALARM_LEVEL_LIMIT:
			//console.log("Change color!");
			webMI.gfx.setFill(id1, "#eaea00");
			webMI.gfx.setFill(id2, "#eaea00");
			break;
		case ALARM_LEVEL_ERROR:
		case ALARM_LEVEL_INHIBIT:
		case ALARM_LEVEL_LIMIT_INHIBIT:
		case ALARM_LEVEL_TRIP:
			webMI.gfx.setFill(id1, "#cc0000");
			webMI.gfx.setFill(id2, "#cc0000");
			break;
		default:
			webMI.gfx.setFill(id1, "#647a8f");
			webMI.gfx.setFill(id2, "#647a8f");
	}
});

webMI.addEvent("id_alarmstatus", "click", function(e) {
	webMI.trigger.fire("SetCurrentView", VIEW_ALARMS);
	webMI.trigger.fire("SetCurrentNode", -1);
});

webMI.addEvent("click_alarm", ["mouseover","touchstart"], function(e){
		document.getElementById("click_alarm").setAttribute('style', "cursor: pointer;");		
	});

webMI.callExtension("SYSTEM.LIBRARY.PROJECT.QUICKDYNAMICS.Theme", {"action":"font family", "defaultValue":"font family", "id":"txt_footerItem", "key":"FontFamily", "property":""});


webMI.callExtension("SYSTEM.LIBRARY.ATVISE.QUICKDYNAMICS.Open PopUp", {"PopUp":"00000018", "extern":"true", "height":"585", "id":"click_alarm", "menubar":"false", "modal":"true", "moveable":"true", "onEvent":"click", "passParameters":"true", "resizeable":"true", "scrollbars":"false", "status":"false", "title":"ALARMS ", "toolbar":"false", "width":"780"});
},{"click_alarm":["3",{}],"id_alarmstatus":["2",{}]},{}],"4":[function(webMI,window,document,self){//User
	webMI.addEvent(webMI.data, "clientvariableschange", function(e) {
		webMI.gfx.setText("username_label", (e.username) ? e.username : "");
	});

webMI.callExtension("SYSTEM.LIBRARY.PROJECT.QUICKDYNAMICS.Theme", {"action":"font family", "defaultValue":"font family", "id":"id_3", "key":"FontFamily", "property":""});
webMI.callExtension("SYSTEM.LIBRARY.PROJECT.QUICKDYNAMICS.Theme", {"action":"font family", "defaultValue":"font family", "id":"username_label", "key":"FontFamily", "property":""});
},{"id_5":["5",{}],"id_7":["7",{}]},{}],"10":[function(webMI,window,document,self){},{},{}],"3":[function(webMI,window,document,self){var base = (webMI.query["base"] == undefined) ? "" : webMI.query["base"];
var newValue = webMI.query["value"];
var fillColorInactive = webMI.query["fillColorInactive"];
var tabHandler = webMI.callExtension("SYSTEM.LIBRARY.ATVISE.QUICKDYNAMICS.Tab Handler");
var tabIndex = (webMI.query["tabIndex"] == undefined) ? "" : webMI.query["tabIndex"];
var tooltip = (webMI.query["tooltip"] == undefined) ? "" : webMI.query["tooltip"];

webMI.gfx.setStroke("button_clickarea","");

if (newValue == "true") {
	newValue = true;
} else if (newValue == "false") {
	newValue = false;
} else {
	try {
		var temp = parseFloat(newValue);
		if (!isNaN(temp)) {
			newValue = temp;
		}
	} catch(e) {}
}

var onMouseDownValue = webMI.query["onMouseDownValue"];
var onMouseDownNode = (webMI.query["onMouseDownNode"] == undefined) ? "" : webMI.query["onMouseDownNode"];
var onMouseUpValue = webMI.query["onMouseUpValue"];
var onMouseUpNode = (webMI.query["onMouseUpNode"] == undefined) ? "" : webMI.query["onMouseUpNode"];
var strokeNormal = "none";

var right = (webMI.query["right"] == undefined) ? "" : webMI.query["right"];
if (right.search(/SYSTEM\.SECURITY\.RIGHTS\./) != -1) {
	right = right.substring(23,right.length); //remove "prefix" SYSTEM.SECURITY.RIGHTS.
}

var active = false;
var hasRight = false;

if (right != "") {
	webMI.addEvent(webMI.data, "clientvariableschange", function(e) {
		hasRight=false;
		if (("username" in e) && (e.username != "")) {
				hasRight = webMI.hasRight(right);
		}
		deActivate();
	});
}

var activeValue = (webMI.query["activeValue"] == undefined) ? "" :webMI.query["activeValue"];
var activeNode = (webMI.query["activeNode"] == undefined) ? "" : webMI.query["activeNode"];
var nodeIsActive = false;

if ((activeNode != "") && (String(activeValue) != "")) {
	webMI.data.subscribe(activeNode, function(e) {
		var nodeActiveValue = e.value;
		if (typeof nodeActiveValue == "boolean") {
			nodeIsActive = (String(nodeActiveValue) == activeValue);
		} else if (typeof nodeActiveValue == "number") {
			try {
				var temp = parseFloat(activeValue);
				nodeIsActive = (nodeActiveValue == temp);
			} catch(e) {
				nodeIsActive = false;
			}
		} else {
			nodeIsActive = (nodeActiveValue == activeValue);
		}
		deActivate();
	});
} else {
	deActivate();
}

function deActivate(forceDeActivate) {
	if (typeof forceDeActivate !== "undefined" && forceDeActivate){
		active = false;
	} else if (right != "") {
		if ((String(activeValue) != "") && (activeNode != "")) {
			active=(nodeIsActive && hasRight);
		} else {
			active=hasRight;
		}
	} else {
		if ((String(activeValue) != "") && (activeNode != "")) {
			active=nodeIsActive;
		} else {
			active=true;
		}
	}
	/*if (active) {
		webMI.gfx.setFillOpacity("button_clickarea", 0);
	} else {
		webMI.gfx.setFillOpacity("button_clickarea", 100);
		webMI.gfx.setFill("button_clickarea", fillColorInactive);
	}*/
}

function focusTH(){
	if (active) {
		webMI.gfx.setVisible("button_stroke_focus", null);
	}
}
function blurTH(){
	if (active) {
		webMI.gfx.setVisible("button_stroke_focus", false);
	}
}
function applyTH(){
	if (active) {
		if (base != "") {
			webMI.data.write(base, newValue);
		}
		webMI.trigger.fire("valuechanged", newValue, "");
	}
}
function backTH(){}
function arrowTH(dir){}
function keyHandler(keyTH,param2){
	if (keyTH == "focus"){
		focusTH();
	} else if (keyTH == "blur"){
		blurTH();
	} else if (keyTH == "apply"){
		applyTH();
	} else if (keyTH == "back"){
		backTH();
	} else if (keyTH == "arrow"){
		arrowTH(param2);
	} else if (keyTH == "isActive"){
		return active && param2(document.getElementById("button_clickarea").parentNode);
	}
}
webMI.addEvent("button_stroke_focus", ["mousedown","touchstart"], function(e) {
var id = "button_stroke_focus";
var value = true;
return function(value) {
		if (active) {
			if (onMouseDownNode != "") {
				webMI.data.write(onMouseDownNode, onMouseDownValue);
			}
			webMI.trigger.fire("valuechangedMouseDown", onMouseDownValue, "");
		}
} (value);
});


webMI.addEvent("button_stroke_focus", ["mouseup","touchend"], function(e) {
var id = "button_stroke_focus";
var value = true;
return function(value) {
		if (active) {
			if (onMouseUpNode != "") {
				webMI.data.write(onMouseUpNode, onMouseUpValue);
			}
			webMI.trigger.fire("valuechangedMouseUp", onMouseUpValue, "");
		}
} (value);
});

webMI.addEvent("button_clickarea", ["click", "touchend"], function(e) {
	if (active) {
		tabHandler.setCurrentIndex(keyHandler);
		if (base != "") {
			webMI.data.write(base, newValue);
		}
		webMI.trigger.fire("valuechanged", newValue, "");
	}
});

webMI.addEvent("button_clickarea", "dragstart", function(e) {
	if (e.preventDefault) {
		e.preventDefault();
	}
});
webMI.addOnload(function() {
	var doc = document.getElementById("button_clickarea").ownerDocument;
	tabHandler.register(tabIndex,keyHandler,doc);
});

if (tooltip != ""){
	webMI.callExtension("SYSTEM.LIBRARY.ATVISE.QUICKDYNAMICS.Tooltip", {"auto":"true", "id":"button_clickarea", "text":tooltip});
}

// Hide stroke on init
webMI.gfx.setVisible('button_stroke_focus', false);

// Theme Support
webMI.callExtension("SYSTEM.LIBRARY.PROJECT.QUICKDYNAMICS.Theme", {"action":"stroke", "defaultValue":"#E3D700", "id":"button_stroke_focus", "key":"ControlTintColor", "property":"focusStrokeColor"});

// Reset scaling
webMI.callExtension("SYSTEM.LIBRARY.PROJECT.QUICKDYNAMICS.ResetScaling", { callback: function(originalSize, renderedSize, scale, scaleInverse) {
	webMI.gfx.setScaleX('id_0', scaleInverse.x);
	webMI.gfx.setWidth('id_0', renderedSize.width);
	webMI.gfx.setMoveX('id_0', -(renderedSize.width - originalSize.width) / 2);
	webMI.gfx.setWidth('button_stroke_focus', renderedSize.width - 1);
	webMI.gfx.setWidth('button_clickarea', renderedSize.width - 1);
}, originalWidth: 100, originalHeight: 31, innerNode: document.getElementById('id_0') });

// TwoHand support
webMI.trigger.connect("com.atvise.setActive", function(e){
	if (e.value){
		deActivate();
	}  else {
		deActivate(true);
	}
});
},{},{"fillColorInactive":"","focusStrokeColor":""}],"2":[function(webMI,window,document,self){},{},{}],"5":[function(webMI,window,document,self){(function() {
	document.getElementById('languagePicker').style.cursor = 'pointer';
	webMI.callExtension('SYSTEM.LIBRARY.ATVISE.QUICKDYNAMICS.Open Context Menu', {
		id: 'languagePicker',
		menuObj: { languagemenu: 'languagemenu' },
		outputNode:null,
		x: -100,
		y: 31,
		onEvent: 'click'
	});
})();
},{"id_32":["6",{"symbolColor":{v:"#ffffff"}}]},{}],"7":[function(webMI,window,document,self){var strokeNormal = "none";
var strokePressed = webMI.query["strokePressed"];
var loggedIn = false;
var loginmethod = null;
var activatedEvents = true;

function setButton(fill, activateEvents) {
	webMI.gfx.setVisible("button_symbol_pressed", loggedIn);
	webMI.gfx.setVisible("button_symbol", !loggedIn);
	webMI.gfx.setFill("button_bg", fill ? webMI.query["fill"] : webMI.query["fillColorInactive"]);
	activatedEvents = activateEvents;
}

webMI.addOnload(function() {
	webMI.data.call("info",{},function(e) { //get information from webmi.js
		loginmethod = e.loginmethod;
		if(loginmethod == "none") {
			setButton(false, false);
			return;
		}
		webMI.addEvent(webMI.data, "clientvariableschange", function(e) {
			loggedIn = (e.username != "" && e.username != undefined);
			if(loggedIn && loginmethod == "form")
				webMI.callExtension("SYSTEM.LIBRARY.ATVISE.QUICKDYNAMICS.AutoLogout", {"action":"start"});
			if("username" in e) {
				if(loginmethod == "http" ||	loginmethod == "ntlm") //ntml is not defined in webmi
					setButton(false, false);
				else if(loginmethod == "form")
					setButton(true, true);
//					console.log("User Logon fire trigger");
					triggerLogon();

			}
			else if(e.username == undefined) //webMI2ADS 2.0.1 specific fix to enable login
				setButton(true, true);
		}
	);});
});

function setButtonEvents(strokeStyle, buttonFill, setStroke) {
	if(activatedEvents) {
		webMI.gfx.setStroke("button_stroke", strokeStyle ? strokePressed : strokeNormal);
		webMI.gfx.setFill("button_stroke", buttonFill ? "url(#linear_1)" : "url(#linear_5)");
		if(setStroke)
			webMI.gfx.setStrokeWidth("button_stroke", "1");
	}
}

webMI.addEvent("button_clickarea", "click", function(e) {
	// Check if the configuration of the PLC match each one of these cases of loggedIn, otherwhise it won´t work
	if (loggedIn == false && loginmethod == "form") {
		webMI.display.openWindow({display:"00000024",extern:false,height:300,menubar:false,modal:true,movable:true,resizable:true,scrollbars:false,status:false,title:"Login",toolbar:false,width:500,query:webMI.query});
		
	} else if (loggedIn == false && loginmethod == "http") { //webMI2ADS 2.0.1 specific fix to enable login
		webMI.data.login();
		
	} else if (loggedIn == true && loginmethod == "form") {
		webMI.callExtension("SYSTEM.LIBRARY.ATVISE.QUICKDYNAMICS.AutoLogout", {"action":"manualLogout"});
		webMI.data.logout(function(){});
		webMI.display.openDisplay("00000002", webMI.query);
	}
});



webMI.addEvent("button_clickarea", "mouseup", function(e) {
	setButtonEvents(false, true, false);
});

webMI.addEvent("button_clickarea", "mousedown", function(e) {
	setButtonEvents(true, false, false);
});

webMI.addEvent("button_clickarea", "mouseout", function(e) {
	setButtonEvents(false, true, true);
});

webMI.addEvent("button_clickarea", "dragstart", function(e) {
	if (e.preventDefault) {
		e.preventDefault();
	}
});

// trigger to components
function triggerLogon(){
	if (loggedIn == true){
		webMI.trigger.fire("userLogOn", true);
	}else {
		webMI.trigger.fire("userLogOn", false);
	}
}
document.getElementById('button_clickarea').style.cursor = 'pointer';
},{"button_symbol":["9",{"symbolColor":{b:"symbolColor"}}],"button_symbol_pressed":["8",{"symbolColor":{b:"symbolColorLogout"}}]},{"fill":"#000000","fillColorInactive":"#FFFFFF","strokePressed":"#FFFFFF","symbolColor":"#ffffff","symbolColorLogout":"#ffffff","symbolLogin":"00000025","symbolLogout":"00000026"}],"6":[function(webMI,window,document,self){},{},{"symbolColor":"#000000"}],"9":[function(webMI,window,document,self){},{},{"symbolColor":"#000000"}],"8":[function(webMI,window,document,self){},{},{"symbolColor":"#000000"}]},window);]]></script>
</svg>
