<?xml version="1.0" encoding="UTF-8"?>
<!-- Generated by IcoMoon.io -->
<svg xmlns:xlink="http://www.w3.org/1999/xlink" xmlns:atv="http://webmi.atvise.com/2007/svgext" width="512" version="1.1" height="243" visibility="hidden" atv:oe="2BG6I3EAC3B6O2NEH9LCL6K998B5C34F668AHCG4C9L1B1LBODKCS3KCA67GDDF86" xmlns="http://www.w3.org/2000/svg">
 <defs/>
 <metadata/>
 <line fill="#7a7f5f" id="id_22" stroke="#8fcc7e" stroke-width="3" x1="59" x2="321" y1="20" y2="13"/>
 <polyline fill="#a4a92c" id="id_21" points="44,235 457,126 77,86 50,216 375,30 385,41 403,148 321,38 183,66 " stroke="#41d658" stroke-width="1"/>
 <g id="id_4" atv:refpx="256" atv:refpy="121.5" transform="matrix(0.956,0,0,0.956,11.0304,21.8198)">
  <polygon fill="#3a3677" id="id_35" points="47,0 23,19 203,183 355,67 186,9 59,20 388,105 33,118 374,240 " stroke="#386d53" stroke-width="5"/>
  <polyline fill="#4ae785" id="id_27" points="372,172 314,170 91,77 105,189 302,160 466,217 102,9 404,208 357,126 19,147 218,79 283,113 281,207 " stroke="#1ae3f1" stroke-width="2"/>
  <path fill="#647A8F" id="id_0" atv:refpx="448.424" atv:refpy="104.133" d="M384.339,0.041L384.506,208.225L416.506,205.535L416.506,100.159L480.506,108.287L480.506,203.135L512.506,200.991L512.506,48.959Z"/>
  <rect fill="#1f174c" height="193" id="id_16" stroke="#36369d" stroke-width="5" width="357" x="44" y="44"/>
  <line fill="#0be89a" id="id_7" stroke="#2cf86f" stroke-width="2" x1="16" x2="420" y1="160" y2="21"/>
  <polyline fill="#d4b584" id="id_36" points="121,209 473,142 360,50 257,172 444,237 228,67 150,234 327,241 " stroke="#4cbeb5" stroke-width="3"/>
  <ellipse cx="313" cy="223" fill="#ddad99" id="id_26" rx="17" ry="114" stroke="#7869a1" stroke-width="3"/>
  <polyline fill="#4db534" id="id_20" points="308,191 99,160 276,175 92,30 194,135 270,106 198,39 " stroke="#f8c2d8" stroke-width="2"/>
  <path fill="#647A8F" id="id_1" atv:refpx="304" atv:refpy="104.112" d="M224,200.224L384,208.224L384,0L224,45.376ZM297.472,49.472L347.424,37.408L347.424,88.416L297.472,95.936ZM347.424,124.16L347.424,173.6L300.159,173.92L298.943,128.576ZM241.28,62.752L284.992,52.672L284.992,98.015L241.28,104.671ZM241.28,133.792L284.992,129.919L284.992,174.079L241.28,174.272Z"/>
  <line fill="#4c8d4d" id="id_18" stroke="#a3f48e" stroke-width="3" x1="299" x2="478" y1="222" y2="189"/>
  <polygon fill="#9efe89" id="id_17" points="74,237 196,4 273,106 39,121 338,222 113,18 160,53 278,191 8,222 322,189 70,147 208,186 80,20 " stroke="#acb519" stroke-width="3"/>
  <polyline fill="#4379d8" id="id_15" points="215,15 313,55 430,72 361,203 284,213 488,118 106,42 426,147 118,213 323,185 480,173 258,213 342,35 164,43 " stroke="#fdf79f" stroke-width="3"/>
  <polygon fill="#dfb7ea" id="id_10" points="378,118 454,185 31,229 458,44 485,23 " stroke="#56f8c2" stroke-width="1"/>
  <polygon fill="#0b2439" id="id_34" points="153,161 484,97 492,4 396,92 155,52 279,239 441,124 26,120 170,165 428,113 282,234 454,229 67,70 405,200 " stroke="#6d88a3" stroke-width="3"/>
  <ellipse cx="448" cy="137" fill="#7cc3f0" id="id_33" rx="120" ry="101" stroke="#f4ff30" stroke-width="5"/>
  <rect fill="#69214d" height="51" id="id_25" stroke="#531f98" stroke-width="4" width="318" x="62" y="85"/>
  <polyline fill="#b497ad" id="id_24" points="137,76 290,149 496,82 149,112 203,216 476,47 295,139 328,3 193,0 " stroke="#698ac7" stroke-width="4"/>
  <path fill="#647A8F" id="id_2" atv:refpx="144" atv:refpy="110.72" d="M96,208.543L159.998,202.685L160,202.688L192,200L192,44.192L96,12.896Z"/>
  <polygon fill="#d4de6a" id="id_19" points="172,53 274,6 444,230 272,48 329,229 " stroke="#bdac67" stroke-width="4"/>
  <ellipse cx="410" cy="144" fill="#887d9e" id="id_12" rx="74" ry="5" stroke="#177dd6" stroke-width="5"/>
  <polyline fill="#e4e50f" id="id_11" points="490,36 65,52 265,238 87,81 340,162 86,230 101,231 341,232 271,0 334,159 98,40 90,37 321,222 " stroke="#8b7ab6" stroke-width="3"/>
  <polyline fill="#95cce4" id="id_5" points="314,54 377,214 340,194 467,35 182,72 218,85 103,97 510,62 214,172 2,202 492,83 352,74 " stroke="#630ae8" stroke-width="1"/>
  <rect fill="#03c8b0" height="36" id="id_32" stroke="#1d19d0" stroke-width="4" width="60" x="248" y="182"/>
  <circle cx="491" cy="115" fill="#814a0d" id="id_31" r="155" stroke="#98fcf9" stroke-width="1"/>
  <ellipse cx="244" cy="223" fill="#2f5c58" id="id_30" rx="255" ry="105" stroke="#9a3a6b" stroke-width="4"/>
  <ellipse cx="471" cy="15" fill="#41bf7a" id="id_29" rx="59" ry="34" stroke="#7f5f8f" stroke-width="4"/>
  <path fill="#647A8F" id="id_3" atv:refpx="48" atv:refpy="110.704" d="M0,200L96,208.512L96,12.895L0,49.536ZM91.424,176.928L53.952,176.48L53.952,133.792L91.424,130.175ZM53.952,58.56L85.184,48.831L85.184,97.823L53.952,103.648ZM16.48,69.6L42.4,62.4L41.696,105.92L16.48,110.336ZM16.48,137.376L41.44,134.944L41.44,176.256L16.479,175.936Z"/>
  <polyline fill="#d65839" id="id_28" points="54,133 44,235 457,126 77,86 50,216 375,30 385,41 403,148 321,38 183,66 420,60 44,195 " stroke="#37942f" stroke-width="3"/>
  <line fill="#4cba1b" id="id_23" stroke="#3bf684" stroke-width="1" x1="262" x2="88" y1="229" y2="16"/>
  <polygon fill="#6994c3" id="id_14" points="374,240 58,67 375,238 109,126 385,67 88,155 146,123 162,91 442,209 120,15 247,110 495,32 " stroke="#657113" stroke-width="4"/>
  <polyline fill="#369dc0" id="id_6" points="283,113 281,207 330,27 389,130 483,106 8,72 44,44 396,88 31,92 332,240 " stroke="#9310f7" stroke-width="3"/>
 </g>
 <script xlink:href="../../webmi.js" type="text/ecmascript"/>
 <script type="text/ecmascript"><![CDATA[webMI.proxy({"":[function(webMI,window,document,self){},{},{"Color":"#647a8f","Height":"","Icon":"","Width":""}]},window);]]></script>
</svg>
