<?xml version='1.0' encoding='utf-8'?>
<!DOCTYPE svg PUBLIC '-//W3C//DTD SVG 1.1//EN' 'http://www.w3.org/Graphics/SVG/1.1/DTD/svg11.dtd'>
<!-- Generated by IcoMoon.io -->
<svg width="512" version="1.1" xmlns="http://www.w3.org/2000/svg" height="243" xmlns:xlink="http://www.w3.org/1999/xlink" xmlns:atv="http://webmi.atvise.com/2007/svgext">
 <defs/>
 <metadata>
  <atv:gridconfig width="5" enabled="true" height="5" gridstyle="lines"/>
  <atv:snapconfig width="5" enabled="true" height="5"/>
 </metadata>
 <path id="id_0" atv:refpx="256" atv:refpy="121.5" d="M448,115.105C438.4,115.105 432,118.302 425.6,118.302L425.6,60.75L329.6,0L329.6,201.434L384,182.25C387.2,214.223 412.8,239.802 448,239.802C483.2,239.802 512,211.026 512,175.855C512,143.881 483.2,115.105 448,115.105M448,233.407C419.2,233.407 393.6,211.026 393.6,182.25C393.6,182.25 393.6,179.052 393.6,179.052C393.6,156.671 406.4,137.486 425.6,131.092C432,127.894 441.6,124.697 448,124.697C476.8,124.697 502.4,150.276 502.4,179.052C502.4,207.828 476.799,233.407 448,233.407M227.2,195.039L268.8,198.236L268.8,105.513L227.2,108.71ZM73.6,115.105C70.4,115.105 67.199,115.105 64,115.105C28.799,115.105 0,143.881 0,179.052C0,214.223 28.8,243 64,243C96,243 124.799,217.421 128,185.447L224,195.039L224,105.513L275.2,99.118L275.2,195.039L323.2,198.236L323.2,0L73.6,60.749ZM118.4,175.855C118.4,179.052 118.4,182.25 118.4,182.25C115.2,207.828 92.8,230.21 64,230.21C35.199,230.21 9.6,204.631 9.6,175.855C9.6,147.078 35.2,121.5 64,121.5C67.2,121.5 70.4,121.5 73.6,121.5C99.199,127.894 118.4,150.276 118.4,175.855M73.6,147.078L54.4,147.078L54.4,169.46L32,169.46L32,191.842L54.4,191.842L54.4,214.223L76.799,214.223L76.799,191.842L96,191.842L96,169.46L73.6,169.46ZM412.8,191.842L476.8,191.842L476.8,169.46L412.8,169.46Z"/>
</svg>
