<?xml version='1.0' encoding='iso-8859-1'?>
<!DOCTYPE svg PUBLIC '-//W3C//DTD SVG 1.1//EN' 'http://www.w3.org/Graphics/SVG/1.1/DTD/svg11.dtd'>
<!-- Generator: Adobe Illustrator 18.0.0, SVG Export Plug-In . SVG Version: 6.00 Build 0)  -->
<svg width="492.52" x="0px" version="1.1" y="0px" xmlns="http://www.w3.org/2000/svg" height="376.77" xmlns:xlink="http://www.w3.org/1999/xlink" style="enable-background:new 0 0 492.523 492.523" id="Capa_1" xml:space="preserve" xmlns:atv="http://webmi.atvise.com/2007/svgext">
 <defs/>
 <metadata>
  <atv:gridconfig width="20" enabled="false" height="20" gridstyle="lines"/>
  <atv:snapconfig width="10" enabled="false" height="10"/>
 </metadata>
 <g id="id_3" atv:refpx="246.262" atv:refpy="188.386" transform="matrix(1,0,0,1,0,-57.877)">
  <path fill="#ffffff" id="id_0" atv:refpx="70.352" atv:refpy="246.262" d="M126.246,121.549L95.395,121.549L95.395,82.932C95.395,69.092 84.19,57.877 70.358,57.877C56.526,57.877 45.292,69.092 45.292,82.932L45.292,121.549L14.457,121.549C6.469,121.549 0,128.037 0,136.029L0,194.767C0,202.759 6.469,209.247 14.457,209.247L45.293,209.247L45.293,409.591C45.293,423.431 56.527,434.646 70.359,434.646C84.191,434.646 95.395,423.431 95.395,409.591L95.395,209.248L126.245,209.248C134.214,209.248 140.702,202.76 140.702,194.768L140.702,136.03C140.703,128.037 134.215,121.549 126.246,121.549"/>
  <path fill="#ffffff" id="id_1" atv:refpx="422.172" atv:refpy="246.263" d="M478.066,297.451L447.23,297.451L447.23,82.932C447.23,69.092 435.996,57.877 422.164,57.877C408.332,57.877 397.127,69.092 397.127,82.932L397.127,297.452L366.277,297.452C358.295,297.452 351.82,303.94 351.82,311.935L351.82,370.671C351.82,378.671 358.295,385.153 366.277,385.153L397.127,385.153L397.127,409.593C397.127,423.433 408.332,434.648 422.164,434.648C435.996,434.648 447.23,423.433 447.23,409.593L447.23,385.153L478.066,385.153C486.035,385.153 492.523,378.671 492.523,370.671L492.523,311.935C492.523,303.939 486.035,297.451 478.066,297.451"/>
  <path fill="#ffffff" id="id_2" atv:refpx="246.252" atv:refpy="246.262" d="M302.135,174.328L271.299,174.328L271.299,82.932C271.299,69.092 260.094,57.877 246.261,57.877C232.429,57.877 221.224,69.092 221.224,82.932L221.224,174.329L190.374,174.329C182.356,174.329 175.882,180.808 175.882,188.809L175.882,247.538C175.882,255.532 182.357,262.022 190.374,262.022L221.224,262.022L221.224,409.592C221.224,423.431 232.429,434.647 246.261,434.647C260.094,434.647 271.299,423.432 271.299,409.592L271.299,262.022L302.135,262.022C310.117,262.022 316.621,255.531 316.621,247.537L316.621,188.808C316.621,180.807 310.117,174.328 302.135,174.328"/>
 </g>
</svg>
