<?xml version="1.0" encoding="utf-8"?>
<!-- Generated by IcoMoon.io -->
<!DOCTYPE svg PUBLIC "-//W3C//DTD SVG 1.1//EN" "http://www.w3.org/Graphics/SVG/1.1/DTD/svg11.dtd">
<svg version="1.1" xmlns="http://www.w3.org/2000/svg" xmlns:xlink="http://www.w3.org/1999/xlink" width="512" height="512" viewBox="0 0 512 512">
<g id="icomoon-ignore">
</g>
<path d="M297.575 96.051c-3.175-3.174-3.175-3.174-6.349-3.174v0h-70.349c0 0-3.174 0-3.174 3.174l-67.174 64c0 0-3.174 3.174-3.174 6.349v22.425c0 3.174 3.174 6.349 6.349 6.349s12.8-3.174 12.8-6.349v-12.8h51.2v9.625l-67.174 67.174v25.6c0 6.349 3.174 9.625 6.349 9.625s6.349-3.175 6.349-6.349v-15.974h48.025l-35.226 156.774c0 3.175 3.174 9.625 6.349 9.625 0 0 0 0 3.174 0s6.349-3.175 6.349-6.349v-6.349l64-44.749 60.826 44.749v6.349c0 3.175 6.349 6.349 9.625 6.349 3.175 0 6.349-6.349 6.349-9.625l-31.949-156.774h48.026v12.8c0 6.349 3.175 9.625 6.349 9.625s6.349-3.175 6.349-6.349v-28.774l-64-64v-12.8h51.2v12.8c0 3.174 3.175 6.349 6.349 6.349s6.349-3.174 6.349-6.349v-22.425c0-3.174 0-3.174-3.175-6.349l-60.621-64.205zM294.4 307.2l-25.6-19.251 15.974-15.974 9.625 35.226zM271.974 176.025l-15.975 22.425-12.8-22.425h28.775zM240.025 159.949l15.975-15.975 19.251 15.975h-35.226zM281.6 188.826v0c0 3.174 0 3.174 0 0v41.575l-15.974-19.251 15.974-22.323zM278.425 249.651h-41.575l19.251-25.6 22.323 25.6zM268.8 265.625l-12.8 9.625-9.625-9.625h22.425zM281.6 147.251l-12.8-12.8 12.8-12.8v25.6zM271.974 108.749l-15.975 12.903-12.8-12.8h28.775zM230.4 118.374l15.975 15.974-15.975 16.077v-32.051zM230.4 188.826l15.975 22.425-15.975 22.323v-44.749zM227.226 271.974l19.251 15.974-28.774 22.425 9.523-38.4zM172.851 159.949l41.575-41.575v41.575h-41.575zM172.851 249.651l41.575-41.575v41.575h-41.575zM198.451 399.974l12.8-57.549 31.949 22.425-44.749 35.123zM256 355.226l-38.4-25.6 38.4-31.949 38.4 31.949-38.4 25.6zM300.851 342.425l12.8 54.375-44.749-31.949 31.949-22.425zM339.149 249.651h-41.575v-41.575l41.575 41.575zM297.575 159.949v-44.851l44.851 44.851h-44.851zM137.625 224.051l-134.451 47.923c0 0-3.175 0 0 3.175 0 0 0 0 3.175 0v0l134.349-38.4c0 0 0 0 0-3.174l-3.072-9.523c3.174 3.174 0 3.174 0 0v0zM3.175 259.175l124.826-64c0 0 0 0 0-3.174v-9.625c0 0 0 0 0-3.174 0 0 0 0-3.174 0l-124.826 76.8c0 0 0 0 3.175 3.175-3.175 0-3.175 0 0 0v0zM128 271.974l-121.651 15.974c0 0-3.175 0-3.175 3.175 0 0 0 3.175 3.175 3.175v0l121.651-9.625c0 0 3.174 0 3.174-3.175l-3.174-9.523c3.174 3.277 3.174 3.277 0 0v0zM512 256l-124.826-73.625c0 0 0 0-3.175 0 0 0 0 0 0 3.174v6.451c0 0 0 0 0 3.174l124.825 64c3.175 0 3.175 0 3.175-3.174v0zM505.651 287.949l-121.651-15.974c0 0 0 0-3.175 0 0 0 0 0 0 3.175v6.349c0 0 0 3.175 3.175 3.175l121.651 6.349c0 0.205 3.175 0.205 0-3.072 3.175 0 3.175 0 0 0zM508.825 271.974l-134.349-48.025c0 0 0 0-3.175 0 0 0 0 0 0 3.174v9.523l134.349 38.4c3.175 0.205 3.175 0.205 3.175-3.072 3.175 0 0 0 0 0z"></path>
</svg>
