<?xml version='1.0' encoding='iso-8859-1'?>
<!-- Generator: Adobe Illustrator 19.0.0, SVG Export Plug-In . SVG Version: 6.00 Build 0)  -->
<svg width="296.842" x="0px" version="1.1" y="0px" xmlns="http://www.w3.org/2000/svg" height="296.842" xmlns:xlink="http://www.w3.org/1999/xlink" style="enable-background:new 0 0 296.842 296.842" id="Layer_1" xml:space="preserve" xmlns:atv="http://webmi.atvise.com/2007/svgext">
 <defs/>
 <metadata>
  <atv:gridconfig width="20" enabled="false" height="20" gridstyle="lines"/>
  <atv:snapconfig width="10" enabled="false" height="10"/>
 </metadata>
 <g id="id_3" atv:refpx="148.42" atv:refpy="148.421">
  <path fill="#E4E7E7" id="id_0" atv:refpx="153.208" atv:refpy="67.09" stroke-width="1" d="M95.846,134.179C95.846,97.91 122.339,83.893 148.506,68.104C174.865,52.181 193.085,36.65 192.99,0.066L210.57,0C210.722,43.431 187.725,62.474 160.389,78.981C135.639,93.926 113.167,104.708 113.186,134.168L95.846,134.168Z"/>
  <path fill="#E4E7E7" id="id_1" atv:refpx="148.42" atv:refpy="215.458" stroke-width="1" d="M19.163,134.074L277.678,134.074C288.248,134.074 296.827,142.653 296.827,153.223L296.827,277.693C296.827,288.263 288.248,296.842 277.678,296.842L19.163,296.842C8.593,296.842 0.013,288.263 0.013,277.693L0.013,153.222C0.013,142.643 8.592,134.074 19.163,134.074"/>
  <path fill="#657B90" id="id_2" atv:refpx="148.42" atv:refpy="215.457" stroke-width="1" d="M105.334,162.797L76.61,162.797L76.61,191.521L105.334,191.521ZM105.334,201.096L76.61,201.096L76.61,229.82L105.334,229.82ZM143.633,201.096L114.909,201.096L114.909,229.82L143.633,229.82ZM181.932,201.096L153.208,201.096L153.208,229.82L181.932,229.82ZM181.932,162.797L153.208,162.797L153.208,191.521L181.932,191.521ZM143.633,162.797L114.909,162.797L114.909,191.521L143.633,191.521ZM38.312,191.521L67.036,191.521L67.036,162.797L38.312,162.797ZM38.312,268.118L67.036,268.118L67.036,239.394L38.312,239.394ZM191.507,229.82L220.231,229.82L220.231,201.096L191.507,201.096ZM38.312,229.82L67.036,229.82L67.036,201.096L38.312,201.096ZM229.804,268.118L258.528,268.118L258.528,201.096L229.804,201.096ZM191.507,191.521L220.231,191.521L220.231,162.797L191.507,162.797ZM229.804,162.797L229.804,191.521L258.528,191.521L258.528,162.797ZM76.61,268.118L220.23,268.118L220.23,239.394L76.61,239.394Z"/>
 </g>
</svg>
