<?xml version="1.0" encoding="utf-8"?>
<!-- Generated by IcoMoon.io -->
<!DOCTYPE svg PUBLIC "-//W3C//DTD SVG 1.1//EN" "http://www.w3.org/Graphics/SVG/1.1/DTD/svg11.dtd">
<svg version="1.1" xmlns="http://www.w3.org/2000/svg" xmlns:xlink="http://www.w3.org/1999/xlink" width="512" height="512" viewBox="0 0 512 512">
<g id="icomoon-ignore">
</g>
<path d="M491.648 395.136v0l-238.016-250.080c5.344-38.208-6.56-78.336-35.936-107.712-40.256-40.288-100.8-47.968-148.8-23.104l60.672 60.64c15.104 15.104 15.104 39.552 0 54.656s-39.584 15.104-54.656 0l-60.672-60.704c-24.864 48.032-17.152 108.544 23.072 148.864 35.104 35.104 85.568 45.312 129.728 30.944 7.52 7.712 202.24 217.184 228.128 243.040l-0.032 0.032c26.912 26.88 70.368 27.104 97.024 0.448 26.624-26.656 26.432-70.112-0.512-97.024zM463.648 463.648c-10.752 10.752-28.192 10.752-38.944 0-10.784-10.784-10.784-28.192 0-38.944 10.752-10.752 28.192-10.752 38.944 0s10.752 28.16 0 38.944z"></path>
</svg>
