<?xml version='1.0' encoding='UTF-8' standalone='no'?>
<svg width="1280" version="1.2" xmlns="http://www.w3.org/2000/svg" height="680" xmlns:xlink="http://www.w3.org/1999/xlink" xmlns:atv="http://webmi.atvise.com/2007/svgext">
 <defs/>
 <metadata>
  <atv:gridconfig width="20" enabled="false" height="20" gridstyle="lines"/>
  <atv:snapconfig width="10" enabled="false" height="10"/>
 </metadata>
 <g id="tree" atv:refpx="150" atv:refpy="340">
  <rect width="300" x="0" y="0" fill="#585d67" height="680" stroke="none" id="id_0" atv:refpx="150" stroke-width="0" atv:refpy="340"/>
 </g>
 <svg width="300" x="0" y="0" height="45" xlink:href="SYSTEM.LIBRARY.PROJECT.OBJECTDISPLAYS.UsageExamples.Tree.TreeItemPrototype" id="id_6" atv:refpx="150" atv:refpy="15"/>
 <text x="329" y="125.5" fill="#000000" font-family="Arial" text-anchor="start" id="id_1" atv:refpx="486.649" atv:refpy="121" font-size="24">This tree was created by reading a plain JavaScript object</text>
 <text x="705" y="159.5" fill="#000000" font-family="Arial" text-anchor="start" id="id_2" atv:refpx="730.118" atv:refpy="155" font-size="16">The prototype item looks like this:</text>
 <svg width="300" x="700" y="178.218" height="45" xlink:href="SYSTEM.LIBRARY.PROJECT.OBJECTDISPLAYS.UsageExamples.Tree.TreeItemPrototype" id="id_3" atv:refpx="850" atv:refpy="215.718"/>
 <text x="704.5" y="257.817" fill="#000000" font-family="Arial" text-anchor="start" id="id_4" atv:refpx="749.353" atv:refpy="253.317" font-size="16">All &lt;text> elements containing an object key surrounded</text>
 <text x="368.5" y="159.624" fill="#000000" font-family="Arial" text-anchor="middle" id="id_5" atv:refpx="336.01" atv:refpy="155.124" font-size="16">The Object:</text>
 <g id="id_246" atv:refpx="482.213" atv:refpy="346.6" transform="matrix(1,0,0,1,329.5,176.5723)">
  <!--<svg x="0px" version="1.2" y="0px" xmlns="http://www.w3.org/2000/svg" viewBox="0 0 309.6 348.8" xmlns:xlink="http://www.w3.org/1999/xlink" baseProfile="tiny" id="Layer_1" xml:space="preserve" atv:refpx="0.125" atv:refpy="0.125">-->
  <text font-family="'Courier New'" id="id_7" atv:refpx="2" atv:refpy="4.428" transform="matrix(1 0 0 1 0 9.4277)" font-size="12px">[</text>
  <!--<text font-family="'CourierNewPSMT'" id="id_9" atv:refpx="-0.5" atv:refpy="18.828" transform="matrix(1 0 0 1 0 23.8276)" font-size="12px"/>-->
  <text font-family="'Courier New'" id="id_10" atv:refpx="38.5" atv:refpy="18.828" transform="matrix(1 0 0 1 36 23.8276)" font-size="12px">{</text>
  <!--<text font-family="'CourierNewPSMT'" id="id_11" atv:refpx="-0.5" atv:refpy="33.227" transform="matrix(1 0 0 1 0 38.2275)" font-size="12px"/>
  <text font-family="'CourierNewPSMT'" id="id_12" atv:refpx="35.5" atv:refpy="33.227" transform="matrix(1 0 0 1 36 38.2275)" font-size="12px"/>-->
  <text font-family="'Courier New'" id="id_13" atv:refpx="75" atv:refpy="33.227" transform="matrix(1 0 0 1 72 38.2275)" font-size="12px">name: 'Root Item'</text>
  <!--<text font-family="'CourierNewPSMT'" id="id_14" atv:refpx="81.701" atv:refpy="33.227" transform="matrix(1 0 0 1 79.2012 38.2275)" font-size="12px">a</text>
  <text font-family="'CourierNewPSMT'" id="id_15" atv:refpx="90.902" atv:refpy="33.227" transform="matrix(1 0 0 1 86.4023 38.2275)" font-size="12px">m</text>
  <text font-family="'CourierNewPSMT'" id="id_16" atv:refpx="96.603" atv:refpy="33.227" transform="matrix(1 0 0 1 93.6035 38.2275)" font-size="12px">e</text>
  <text font-family="'CourierNewPSMT'" id="id_17" atv:refpx="101.805" atv:refpy="33.227" transform="matrix(1 0 0 1 100.8047 38.2275)" font-size="12px">:</text>
  <text font-family="'CourierNewPSMT'" id="id_18" atv:refpx="107.506" atv:refpy="33.227" transform="matrix(1 0 0 1 108.0059 38.2275)" font-size="12px"/>
  <text font-family="'CourierNewPSMT'" id="id_19" atv:refpx="116.207" atv:refpy="33.227" transform="matrix(1 0 0 1 115.207 38.2275)" font-size="12px">'Root Item',</text>
  <text font-family="'CourierNewPSMT'" id="id_20" atv:refpx="125.408" atv:refpy="33.227" transform="matrix(1 0 0 1 122.4082 38.2275)" font-size="12px">R</text>
  <text font-family="'CourierNewPSMT'" id="id_21" atv:refpx="132.609" atv:refpy="33.227" transform="matrix(1 0 0 1 129.6094 38.2275)" font-size="12px">o</text>
  <text font-family="'CourierNewPSMT'" id="id_22" atv:refpx="139.81" atv:refpy="33.227" transform="matrix(1 0 0 1 136.8105 38.2275)" font-size="12px">o</text>
  <text font-family="'CourierNewPSMT'" id="id_23" atv:refpx="146.012" atv:refpy="33.227" transform="matrix(1 0 0 1 144.0117 38.2275)" font-size="12px">t</text>
  <text font-family="'CourierNewPSMT'" id="id_24" atv:refpx="150.713" atv:refpy="33.227" transform="matrix(1 0 0 1 151.2129 38.2275)" font-size="12px"/>
  <text font-family="'CourierNewPSMT'" id="id_25" atv:refpx="159.914" atv:refpy="33.227" transform="matrix(1 0 0 1 158.4141 38.2275)" font-size="12px">I</text>
  <text font-family="'CourierNewPSMT'" id="id_26" atv:refpx="167.615" atv:refpy="33.227" transform="matrix(1 0 0 1 165.6152 38.2275)" font-size="12px">t</text>
  <text font-family="'CourierNewPSMT'" id="id_27" atv:refpx="175.816" atv:refpy="33.227" transform="matrix(1 0 0 1 172.8164 38.2275)" font-size="12px">e</text>
  <text font-family="'CourierNewPSMT'" id="id_28" atv:refpx="184.518" atv:refpy="33.227" transform="matrix(1 0 0 1 180.0176 38.2275)" font-size="12px">m</text>
  <text font-family="'CourierNewPSMT'" id="id_29" atv:refpx="188.219" atv:refpy="33.227" transform="matrix(1 0 0 1 187.2188 38.2275)" font-size="12px">'</text>
  <text font-family="'CourierNewPSMT'" id="id_30" atv:refpx="195.92" atv:refpy="33.227" transform="matrix(1 0 0 1 194.4199 38.2275)" font-size="12px">,</text>
  <text font-family="'CourierNewPSMT'" id="id_31" atv:refpx="-0.5" atv:refpy="47.628" transform="matrix(1 0 0 1 0 52.6279)" font-size="12px"/>
  <text font-family="'CourierNewPSMT'" id="id_32" atv:refpx="35.5" atv:refpy="47.628" transform="matrix(1 0 0 1 36 52.6279)" font-size="12px"/>-->
  <text font-family="'Courier New'" id="id_33" atv:refpx="74.5" atv:refpy="47.628" transform="matrix(1 0 0 1 72 52.6279)" font-size="12px">value: 13,</text>
  <!--<text font-family="'CourierNewPSMT'" id="id_34" atv:refpx="81.701" atv:refpy="47.628" transform="matrix(1 0 0 1 79.2012 52.6279)" font-size="12px">a</text>
  <text font-family="'CourierNewPSMT'" id="id_35" atv:refpx="86.902" atv:refpy="47.628" transform="matrix(1 0 0 1 86.4023 52.6279)" font-size="12px">l</text>
  <text font-family="'CourierNewPSMT'" id="id_36" atv:refpx="96.603" atv:refpy="47.628" transform="matrix(1 0 0 1 93.6035 52.6279)" font-size="12px">u</text>
  <text font-family="'CourierNewPSMT'" id="id_37" atv:refpx="103.805" atv:refpy="47.628" transform="matrix(1 0 0 1 100.8047 52.6279)" font-size="12px">e</text>
  <text font-family="'CourierNewPSMT'" id="id_38" atv:refpx="109.006" atv:refpy="47.628" transform="matrix(1 0 0 1 108.0059 52.6279)" font-size="12px">:</text>
  <text font-family="'CourierNewPSMT'" id="id_39" atv:refpx="114.707" atv:refpy="47.628" transform="matrix(1 0 0 1 115.207 52.6279)" font-size="12px"/>
  <text font-family="'CourierNewPSMT'" id="id_40" atv:refpx="125.408" atv:refpy="47.628" transform="matrix(1 0 0 1 122.4082 52.6279)" font-size="12px">13,</text>
  <text font-family="'CourierNewPSMT'" id="id_41" atv:refpx="132.609" atv:refpy="47.628" transform="matrix(1 0 0 1 129.6094 52.6279)" font-size="12px">3</text>
  <text font-family="'CourierNewPSMT'" id="id_42" atv:refpx="138.31" atv:refpy="47.628" transform="matrix(1 0 0 1 136.8105 52.6279)" font-size="12px">,</text>
  <text font-family="'CourierNewPSMT'" id="id_43" atv:refpx="-0.5" atv:refpy="62.028" transform="matrix(1 0 0 1 0 67.0278)" font-size="12px"/>
  <text font-family="'CourierNewPSMT'" id="id_44" atv:refpx="35.5" atv:refpy="62.028" transform="matrix(1 0 0 1 36 67.0278)" font-size="12px"/>-->
  <text font-family="'Courier New'" id="id_45" atv:refpx="76.5" atv:refpy="62.028" transform="matrix(1 0 0 1 72 67.0278)" font-size="12px">max: 21,</text>
  <!--<text font-family="'CourierNewPSMT'" id="id_46" atv:refpx="81.701" atv:refpy="62.028" transform="matrix(1 0 0 1 79.2012 67.0278)" font-size="12px">a</text>
  <text font-family="'CourierNewPSMT'" id="id_47" atv:refpx="88.902" atv:refpy="62.028" transform="matrix(1 0 0 1 86.4023 67.0278)" font-size="12px">x</text>
  <text font-family="'CourierNewPSMT'" id="id_48" atv:refpx="94.603" atv:refpy="62.028" transform="matrix(1 0 0 1 93.6035 67.0278)" font-size="12px">:</text>
  <text font-family="'CourierNewPSMT'" id="id_49" atv:refpx="100.305" atv:refpy="62.028" transform="matrix(1 0 0 1 100.8047 67.0278)" font-size="12px"/>
  <text font-family="'CourierNewPSMT'" id="id_50" atv:refpx="111.006" atv:refpy="62.028" transform="matrix(1 0 0 1 108.0059 67.0278)" font-size="12px">2</text>
  <text font-family="'CourierNewPSMT'" id="id_51" atv:refpx="118.207" atv:refpy="62.028" transform="matrix(1 0 0 1 115.207 67.0278)" font-size="12px">1</text>
  <text font-family="'CourierNewPSMT'" id="id_52" atv:refpx="123.908" atv:refpy="62.028" transform="matrix(1 0 0 1 122.4082 67.0278)" font-size="12px">,</text>
  <text font-family="'CourierNewPSMT'" id="id_53" atv:refpx="-0.5" atv:refpy="76.428" transform="matrix(1 0 0 1 0 81.4277)" font-size="12px"/>
  <text font-family="'CourierNewPSMT'" id="id_54" atv:refpx="35.5" atv:refpy="76.428" transform="matrix(1 0 0 1 36 81.4277)" font-size="12px"/>-->
  <text font-family="'Courier New'" id="id_55" atv:refpx="74.5" atv:refpy="76.428" transform="matrix(1 0 0 1 72 81.4277)" font-size="12px">childs: [</text>
  <!--<text font-family="'CourierNewPSMT'" id="id_56" atv:refpx="82.201" atv:refpy="76.428" transform="matrix(1 0 0 1 79.2012 81.4277)" font-size="12px">h</text>
  <text font-family="'CourierNewPSMT'" id="id_57" atv:refpx="86.902" atv:refpy="76.428" transform="matrix(1 0 0 1 86.4023 81.4277)" font-size="12px">i</text>
  <text font-family="'CourierNewPSMT'" id="id_58" atv:refpx="94.103" atv:refpy="76.428" transform="matrix(1 0 0 1 93.6035 81.4277)" font-size="12px">l</text>
  <text font-family="'CourierNewPSMT'" id="id_59" atv:refpx="103.805" atv:refpy="76.428" transform="matrix(1 0 0 1 100.8047 81.4277)" font-size="12px">d</text>
  <text font-family="'CourierNewPSMT'" id="id_60" atv:refpx="110.006" atv:refpy="76.428" transform="matrix(1 0 0 1 108.0059 81.4277)" font-size="12px">s</text>
  <text font-family="'CourierNewPSMT'" id="id_61" atv:refpx="116.207" atv:refpy="76.428" transform="matrix(1 0 0 1 115.207 81.4277)" font-size="12px">:</text>
  <text font-family="'CourierNewPSMT'" id="id_62" atv:refpx="121.908" atv:refpy="76.428" transform="matrix(1 0 0 1 122.4082 81.4277)" font-size="12px"/>
  <text font-family="'CourierNewPSMT'" id="id_63" atv:refpx="131.609" atv:refpy="76.428" transform="matrix(1 0 0 1 129.6094 81.4277)" font-size="12px">[</text>
  <text font-family="'CourierNewPSMT'" id="id_64" atv:refpx="-0.5" atv:refpy="90.828" transform="matrix(1 0 0 1 0 95.8276)" font-size="12px"/>
  <text font-family="'CourierNewPSMT'" id="id_65" atv:refpx="35.5" atv:refpy="90.828" transform="matrix(1 0 0 1 36 95.8276)" font-size="12px"/>
  <text font-family="'CourierNewPSMT'" id="id_66" atv:refpx="71.5" atv:refpy="90.828" transform="matrix(1 0 0 1 72 95.8276)" font-size="12px"/>-->
  <text font-family="'Courier New'" id="id_67" atv:refpx="110.5" atv:refpy="90.828" transform="matrix(1 0 0 1 108 95.8276)" font-size="12px">{</text>
  <!--<text font-family="'CourierNewPSMT'" id="id_68" atv:refpx="-0.5" atv:refpy="105.228" transform="matrix(1 0 0 1 0 110.2275)" font-size="12px"/>
  <text font-family="'CourierNewPSMT'" id="id_69" atv:refpx="35.5" atv:refpy="105.228" transform="matrix(1 0 0 1 36 110.2275)" font-size="12px"/>
  <text font-family="'CourierNewPSMT'" id="id_70" atv:refpx="71.5" atv:refpy="105.228" transform="matrix(1 0 0 1 72 110.2275)" font-size="12px"/>
  <text font-family="'CourierNewPSMT'" id="id_71" atv:refpx="107.5" atv:refpy="105.228" transform="matrix(1 0 0 1 108 110.2275)" font-size="12px"/>-->
  <text font-family="'Courier New'" id="id_72" atv:refpx="147" atv:refpy="105.228" transform="matrix(1 0 0 1 144 110.2275)" font-size="12px">name: 'First Subitem',</text>
  <!--<text font-family="'CourierNewPSMT'" id="id_73" atv:refpx="153.701" atv:refpy="105.228" transform="matrix(1 0 0 1 151.2012 110.2275)" font-size="12px">a</text>
  <text font-family="'CourierNewPSMT'" id="id_74" atv:refpx="162.902" atv:refpy="105.228" transform="matrix(1 0 0 1 158.4023 110.2275)" font-size="12px">m</text>
  <text font-family="'CourierNewPSMT'" id="id_75" atv:refpx="168.603" atv:refpy="105.228" transform="matrix(1 0 0 1 165.6035 110.2275)" font-size="12px">e</text>
  <text font-family="'CourierNewPSMT'" id="id_76" atv:refpx="173.805" atv:refpy="105.228" transform="matrix(1 0 0 1 172.8047 110.2275)" font-size="12px">:</text>
  <text font-family="'CourierNewPSMT'" id="id_77" atv:refpx="179.506" atv:refpy="105.228" transform="matrix(1 0 0 1 180.0059 110.2275)" font-size="12px"/>
  <text font-family="'CourierNewPSMT'" id="id_78" atv:refpx="188.207" atv:refpy="105.228" transform="matrix(1 0 0 1 187.207 110.2275)" font-size="12px">'</text>
  <text font-family="'CourierNewPSMT'" id="id_79" atv:refpx="196.908" atv:refpy="105.228" transform="matrix(1 0 0 1 194.4082 110.2275)" font-size="12px">F</text>
  <text font-family="'CourierNewPSMT'" id="id_80" atv:refpx="202.109" atv:refpy="105.228" transform="matrix(1 0 0 1 201.6094 110.2275)" font-size="12px">i</text>
  <text font-family="'CourierNewPSMT'" id="id_81" atv:refpx="210.31" atv:refpy="105.228" transform="matrix(1 0 0 1 208.8105 110.2275)" font-size="12px">r</text>
  <text font-family="'CourierNewPSMT'" id="id_82" atv:refpx="218.012" atv:refpy="105.228" transform="matrix(1 0 0 1 216.0117 110.2275)" font-size="12px">s</text>
  <text font-family="'CourierNewPSMT'" id="id_83" atv:refpx="225.213" atv:refpy="105.228" transform="matrix(1 0 0 1 223.2129 110.2275)" font-size="12px">t</text>
  <text font-family="'CourierNewPSMT'" id="id_84" atv:refpx="229.914" atv:refpy="105.228" transform="matrix(1 0 0 1 230.4141 110.2275)" font-size="12px"/>
  <text font-family="'CourierNewPSMT'" id="id_85" atv:refpx="240.615" atv:refpy="105.228" transform="matrix(1 0 0 1 237.6152 110.2275)" font-size="12px">S</text>
  <text font-family="'CourierNewPSMT'" id="id_86" atv:refpx="247.816" atv:refpy="105.228" transform="matrix(1 0 0 1 244.8164 110.2275)" font-size="12px">u</text>
  <text font-family="'CourierNewPSMT'" id="id_87" atv:refpx="255.018" atv:refpy="105.228" transform="matrix(1 0 0 1 252.0176 110.2275)" font-size="12px">b</text>
  <text font-family="'CourierNewPSMT'" id="id_88" atv:refpx="259.719" atv:refpy="105.228" transform="matrix(1 0 0 1 259.2188 110.2275)" font-size="12px">i</text>
  <text font-family="'CourierNewPSMT'" id="id_89" atv:refpx="268.42" atv:refpy="105.228" transform="matrix(1 0 0 1 266.4199 110.2275)" font-size="12px">t</text>
  <text font-family="'CourierNewPSMT'" id="id_90" atv:refpx="276.621" atv:refpy="105.228" transform="matrix(1 0 0 1 273.6211 110.2275)" font-size="12px">e</text>
  <text font-family="'CourierNewPSMT'" id="id_91" atv:refpx="285.322" atv:refpy="105.228" transform="matrix(1 0 0 1 280.8223 110.2275)" font-size="12px">m</text>
  <text font-family="'CourierNewPSMT'" id="id_92" atv:refpx="289.023" atv:refpy="105.228" transform="matrix(1 0 0 1 288.0234 110.2275)" font-size="12px">'</text>
  <text font-family="'CourierNewPSMT'" id="id_93" atv:refpx="296.725" atv:refpy="105.228" transform="matrix(1 0 0 1 295.2246 110.2275)" font-size="12px">,</text>
  <text font-family="'CourierNewPSMT'" id="id_94" atv:refpx="-0.5" atv:refpy="119.628" transform="matrix(1 0 0 1 0 124.6279)" font-size="12px"/>
  <text font-family="'CourierNewPSMT'" id="id_95" atv:refpx="35.5" atv:refpy="119.628" transform="matrix(1 0 0 1 36 124.6279)" font-size="12px"/>
  <text font-family="'CourierNewPSMT'" id="id_96" atv:refpx="71.5" atv:refpy="119.628" transform="matrix(1 0 0 1 72 124.6279)" font-size="12px"/>
  <text font-family="'CourierNewPSMT'" id="id_97" atv:refpx="107.5" atv:refpy="119.628" transform="matrix(1 0 0 1 108 124.6279)" font-size="12px"/>-->
  <text font-family="'Courier New'" id="id_98" atv:refpx="146.5" atv:refpy="119.628" transform="matrix(1 0 0 1 144 124.6279)" font-size="12px">value: 3,</text>
  <!--<text font-family="'CourierNewPSMT'" id="id_99" atv:refpx="153.701" atv:refpy="119.628" transform="matrix(1 0 0 1 151.2012 124.6279)" font-size="12px">a</text>
  <text font-family="'CourierNewPSMT'" id="id_100" atv:refpx="158.902" atv:refpy="119.628" transform="matrix(1 0 0 1 158.4023 124.6279)" font-size="12px">l</text>
  <text font-family="'CourierNewPSMT'" id="id_101" atv:refpx="168.603" atv:refpy="119.628" transform="matrix(1 0 0 1 165.6035 124.6279)" font-size="12px">u</text>
  <text font-family="'CourierNewPSMT'" id="id_102" atv:refpx="175.805" atv:refpy="119.628" transform="matrix(1 0 0 1 172.8047 124.6279)" font-size="12px">e</text>
  <text font-family="'CourierNewPSMT'" id="id_103" atv:refpx="181.006" atv:refpy="119.628" transform="matrix(1 0 0 1 180.0059 124.6279)" font-size="12px">:</text>
  <text font-family="'CourierNewPSMT'" id="id_104" atv:refpx="186.707" atv:refpy="119.628" transform="matrix(1 0 0 1 187.207 124.6279)" font-size="12px"/>
  <text font-family="'CourierNewPSMT'" id="id_105" atv:refpx="197.408" atv:refpy="119.628" transform="matrix(1 0 0 1 194.4082 124.6279)" font-size="12px">3</text>
  <text font-family="'CourierNewPSMT'" id="id_106" atv:refpx="203.109" atv:refpy="119.628" transform="matrix(1 0 0 1 201.6094 124.6279)" font-size="12px">,</text>
  <text font-family="'CourierNewPSMT'" id="id_107" atv:refpx="-0.5" atv:refpy="134.028" transform="matrix(1 0 0 1 0 139.0278)" font-size="12px"/>
  <text font-family="'CourierNewPSMT'" id="id_108" atv:refpx="35.5" atv:refpy="134.028" transform="matrix(1 0 0 1 36 139.0278)" font-size="12px"/>
  <text font-family="'CourierNewPSMT'" id="id_109" atv:refpx="71.5" atv:refpy="134.028" transform="matrix(1 0 0 1 72 139.0278)" font-size="12px"/>
  <text font-family="'CourierNewPSMT'" id="id_110" atv:refpx="107.5" atv:refpy="134.028" transform="matrix(1 0 0 1 108 139.0278)" font-size="12px"/>-->
  <text font-family="'Courier New'" id="id_111" atv:refpx="148.5" atv:refpy="134.028" transform="matrix(1 0 0 1 144 139.0278)" font-size="12px">max: 8</text>
  <!--<text font-family="'CourierNewPSMT'" id="id_112" atv:refpx="153.701" atv:refpy="134.028" transform="matrix(1 0 0 1 151.2012 139.0278)" font-size="12px">a</text>
  <text font-family="'CourierNewPSMT'" id="id_113" atv:refpx="160.902" atv:refpy="134.028" transform="matrix(1 0 0 1 158.4023 139.0278)" font-size="12px">x</text>
  <text font-family="'CourierNewPSMT'" id="id_114" atv:refpx="166.603" atv:refpy="134.028" transform="matrix(1 0 0 1 165.6035 139.0278)" font-size="12px">:</text>
  <text font-family="'CourierNewPSMT'" id="id_115" atv:refpx="172.305" atv:refpy="134.028" transform="matrix(1 0 0 1 172.8047 139.0278)" font-size="12px"/>
  <text font-family="'CourierNewPSMT'" id="id_116" atv:refpx="183.006" atv:refpy="134.028" transform="matrix(1 0 0 1 180.0059 139.0278)" font-size="12px">8</text>
  <text font-family="'CourierNewPSMT'" id="id_117" atv:refpx="-0.5" atv:refpy="148.428" transform="matrix(1 0 0 1 0 153.4277)" font-size="12px"/>
  <text font-family="'CourierNewPSMT'" id="id_118" atv:refpx="35.5" atv:refpy="148.428" transform="matrix(1 0 0 1 36 153.4277)" font-size="12px"/>
  <text font-family="'CourierNewPSMT'" id="id_119" atv:refpx="71.5" atv:refpy="148.428" transform="matrix(1 0 0 1 72 153.4277)" font-size="12px"/>-->
  <text font-family="'Courier New'" id="id_120" atv:refpx="110.5" atv:refpy="148.428" transform="matrix(1 0 0 1 108 153.4277)" font-size="12px">},</text>
  <!--<text font-family="'CourierNewPSMT'" id="id_121" atv:refpx="116.701" atv:refpy="148.428" transform="matrix(1 0 0 1 115.2012 153.4277)" font-size="12px">,</text>
  <text font-family="'CourierNewPSMT'" id="id_122" atv:refpx="-0.5" atv:refpy="162.828" transform="matrix(1 0 0 1 0 167.8281)" font-size="12px"/>
  <text font-family="'CourierNewPSMT'" id="id_123" atv:refpx="35.5" atv:refpy="162.828" transform="matrix(1 0 0 1 36 167.8281)" font-size="12px"/>
  <text font-family="'CourierNewPSMT'" id="id_124" atv:refpx="71.5" atv:refpy="162.828" transform="matrix(1 0 0 1 72 167.8281)" font-size="12px"/>-->
  <text font-family="'Courier New'" id="id_125" atv:refpx="110.5" atv:refpy="162.828" transform="matrix(1 0 0 1 108 167.8281)" font-size="12px">{</text>
  <!--<text font-family="'CourierNewPSMT'" id="id_126" atv:refpx="-0.5" atv:refpy="177.227" transform="matrix(1 0 0 1 0 182.2275)" font-size="12px"/>
  <text font-family="'CourierNewPSMT'" id="id_127" atv:refpx="35.5" atv:refpy="177.227" transform="matrix(1 0 0 1 36 182.2275)" font-size="12px"/>
  <text font-family="'CourierNewPSMT'" id="id_128" atv:refpx="71.5" atv:refpy="177.227" transform="matrix(1 0 0 1 72 182.2275)" font-size="12px"/>
  <text font-family="'CourierNewPSMT'" id="id_129" atv:refpx="107.5" atv:refpy="177.227" transform="matrix(1 0 0 1 108 182.2275)" font-size="12px"/>-->
  <text font-family="'Courier New'" id="id_130" atv:refpx="147" atv:refpy="177.227" transform="matrix(1 0 0 1 144 182.2275)" font-size="12px">name: 'Second Subitem',</text>
  <!--<text font-family="'CourierNewPSMT'" id="id_131" atv:refpx="153.701" atv:refpy="177.227" transform="matrix(1 0 0 1 151.2012 182.2275)" font-size="12px">a</text>
  <text font-family="'CourierNewPSMT'" id="id_132" atv:refpx="162.902" atv:refpy="177.227" transform="matrix(1 0 0 1 158.4023 182.2275)" font-size="12px">m</text>
  <text font-family="'CourierNewPSMT'" id="id_133" atv:refpx="168.603" atv:refpy="177.227" transform="matrix(1 0 0 1 165.6035 182.2275)" font-size="12px">e</text>
  <text font-family="'CourierNewPSMT'" id="id_134" atv:refpx="173.805" atv:refpy="177.227" transform="matrix(1 0 0 1 172.8047 182.2275)" font-size="12px">:</text>
  <text font-family="'CourierNewPSMT'" id="id_135" atv:refpx="179.506" atv:refpy="177.227" transform="matrix(1 0 0 1 180.0059 182.2275)" font-size="12px"/>
  <text font-family="'CourierNewPSMT'" id="id_136" atv:refpx="188.207" atv:refpy="177.227" transform="matrix(1 0 0 1 187.207 182.2275)" font-size="12px">'</text>
  <text font-family="'CourierNewPSMT'" id="id_137" atv:refpx="197.408" atv:refpy="177.227" transform="matrix(1 0 0 1 194.4082 182.2275)" font-size="12px">S</text>
  <text font-family="'CourierNewPSMT'" id="id_138" atv:refpx="204.609" atv:refpy="177.227" transform="matrix(1 0 0 1 201.6094 182.2275)" font-size="12px">e</text>
  <text font-family="'CourierNewPSMT'" id="id_139" atv:refpx="211.31" atv:refpy="177.227" transform="matrix(1 0 0 1 208.8105 182.2275)" font-size="12px">c</text>
  <text font-family="'CourierNewPSMT'" id="id_140" atv:refpx="219.012" atv:refpy="177.227" transform="matrix(1 0 0 1 216.0117 182.2275)" font-size="12px">o</text>
  <text font-family="'CourierNewPSMT'" id="id_141" atv:refpx="226.213" atv:refpy="177.227" transform="matrix(1 0 0 1 223.2129 182.2275)" font-size="12px">n</text>
  <text font-family="'CourierNewPSMT'" id="id_142" atv:refpx="233.414" atv:refpy="177.227" transform="matrix(1 0 0 1 230.4141 182.2275)" font-size="12px">d</text>
  <text font-family="'CourierNewPSMT'" id="id_143" atv:refpx="237.115" atv:refpy="177.227" transform="matrix(1 0 0 1 237.6152 182.2275)" font-size="12px"/>
  <text font-family="'CourierNewPSMT'" id="id_144" atv:refpx="247.816" atv:refpy="177.227" transform="matrix(1 0 0 1 244.8164 182.2275)" font-size="12px">S</text>
  <text font-family="'CourierNewPSMT'" id="id_145" atv:refpx="255.018" atv:refpy="177.227" transform="matrix(1 0 0 1 252.0176 182.2275)" font-size="12px">u</text>
  <text font-family="'CourierNewPSMT'" id="id_146" atv:refpx="262.219" atv:refpy="177.227" transform="matrix(1 0 0 1 259.2188 182.2275)" font-size="12px">b</text>
  <text font-family="'CourierNewPSMT'" id="id_147" atv:refpx="266.92" atv:refpy="177.227" transform="matrix(1 0 0 1 266.4199 182.2275)" font-size="12px">i</text>
  <text font-family="'CourierNewPSMT'" id="id_148" atv:refpx="275.621" atv:refpy="177.227" transform="matrix(1 0 0 1 273.6211 182.2275)" font-size="12px">t</text>
  <text font-family="'CourierNewPSMT'" id="id_149" atv:refpx="283.822" atv:refpy="177.227" transform="matrix(1 0 0 1 280.8223 182.2275)" font-size="12px">e</text>
  <text font-family="'CourierNewPSMT'" id="id_150" atv:refpx="292.523" atv:refpy="177.227" transform="matrix(1 0 0 1 288.0234 182.2275)" font-size="12px">m</text>
  <text font-family="'CourierNewPSMT'" id="id_151" atv:refpx="296.225" atv:refpy="177.227" transform="matrix(1 0 0 1 295.2246 182.2275)" font-size="12px">'</text>
  <text font-family="'CourierNewPSMT'" id="id_152" atv:refpx="303.926" atv:refpy="177.227" transform="matrix(1 0 0 1 302.4258 182.2275)" font-size="12px">,</text>
  <text font-family="'CourierNewPSMT'" id="id_153" atv:refpx="-0.5" atv:refpy="191.628" transform="matrix(1 0 0 1 0 196.6279)" font-size="12px"/>
  <text font-family="'CourierNewPSMT'" id="id_154" atv:refpx="35.5" atv:refpy="191.628" transform="matrix(1 0 0 1 36 196.6279)" font-size="12px"/>
  <text font-family="'CourierNewPSMT'" id="id_155" atv:refpx="71.5" atv:refpy="191.628" transform="matrix(1 0 0 1 72 196.6279)" font-size="12px"/>
  <text font-family="'CourierNewPSMT'" id="id_156" atv:refpx="107.5" atv:refpy="191.628" transform="matrix(1 0 0 1 108 196.6279)" font-size="12px"/>-->
  <text font-family="'Courier New'" id="id_157" atv:refpx="146.5" atv:refpy="191.628" transform="matrix(1 0 0 1 144 196.6279)" font-size="12px">value: 9,</text>
  <!--<text font-family="'CourierNewPSMT'" id="id_158" atv:refpx="153.701" atv:refpy="191.628" transform="matrix(1 0 0 1 151.2012 196.6279)" font-size="12px">a</text>
  <text font-family="'CourierNewPSMT'" id="id_159" atv:refpx="158.902" atv:refpy="191.628" transform="matrix(1 0 0 1 158.4023 196.6279)" font-size="12px">l</text>
  <text font-family="'CourierNewPSMT'" id="id_160" atv:refpx="168.603" atv:refpy="191.628" transform="matrix(1 0 0 1 165.6035 196.6279)" font-size="12px">u</text>
  <text font-family="'CourierNewPSMT'" id="id_161" atv:refpx="175.805" atv:refpy="191.628" transform="matrix(1 0 0 1 172.8047 196.6279)" font-size="12px">e</text>
  <text font-family="'CourierNewPSMT'" id="id_162" atv:refpx="181.006" atv:refpy="191.628" transform="matrix(1 0 0 1 180.0059 196.6279)" font-size="12px">:</text>
  <text font-family="'CourierNewPSMT'" id="id_163" atv:refpx="186.707" atv:refpy="191.628" transform="matrix(1 0 0 1 187.207 196.6279)" font-size="12px"/>
  <text font-family="'CourierNewPSMT'" id="id_164" atv:refpx="197.408" atv:refpy="191.628" transform="matrix(1 0 0 1 194.4082 196.6279)" font-size="12px">9</text>
  <text font-family="'CourierNewPSMT'" id="id_165" atv:refpx="203.109" atv:refpy="191.628" transform="matrix(1 0 0 1 201.6094 196.6279)" font-size="12px">,</text>
  <text font-family="'CourierNewPSMT'" id="id_166" atv:refpx="-0.5" atv:refpy="206.027" transform="matrix(1 0 0 1 0 211.0273)" font-size="12px"/>
  <text font-family="'CourierNewPSMT'" id="id_167" atv:refpx="35.5" atv:refpy="206.027" transform="matrix(1 0 0 1 36 211.0273)" font-size="12px"/>
  <text font-family="'CourierNewPSMT'" id="id_168" atv:refpx="71.5" atv:refpy="206.027" transform="matrix(1 0 0 1 72 211.0273)" font-size="12px"/>
  <text font-family="'CourierNewPSMT'" id="id_169" atv:refpx="107.5" atv:refpy="206.027" transform="matrix(1 0 0 1 108 211.0273)" font-size="12px"/>-->
  <text font-family="'Courier New'" id="id_170" atv:refpx="148.5" atv:refpy="206.027" transform="matrix(1 0 0 1 144 211.0273)" font-size="12px">max: 11,</text>
  <!--<text font-family="'CourierNewPSMT'" id="id_171" atv:refpx="153.701" atv:refpy="206.027" transform="matrix(1 0 0 1 151.2012 211.0273)" font-size="12px">a</text>
  <text font-family="'CourierNewPSMT'" id="id_172" atv:refpx="160.902" atv:refpy="206.027" transform="matrix(1 0 0 1 158.4023 211.0273)" font-size="12px">x</text>
  <text font-family="'CourierNewPSMT'" id="id_173" atv:refpx="166.603" atv:refpy="206.027" transform="matrix(1 0 0 1 165.6035 211.0273)" font-size="12px">:</text>
  <text font-family="'CourierNewPSMT'" id="id_174" atv:refpx="172.305" atv:refpy="206.027" transform="matrix(1 0 0 1 172.8047 211.0273)" font-size="12px"/>
  <text font-family="'CourierNewPSMT'" id="id_175" atv:refpx="183.006" atv:refpy="206.027" transform="matrix(1 0 0 1 180.0059 211.0273)" font-size="12px">1</text>
  <text font-family="'CourierNewPSMT'" id="id_176" atv:refpx="190.207" atv:refpy="206.027" transform="matrix(1 0 0 1 187.207 211.0273)" font-size="12px">1</text>
  <text font-family="'CourierNewPSMT'" id="id_177" atv:refpx="195.908" atv:refpy="206.027" transform="matrix(1 0 0 1 194.4082 211.0273)" font-size="12px">,</text>
  <text font-family="'CourierNewPSMT'" id="id_178" atv:refpx="-0.5" atv:refpy="220.428" transform="matrix(1 0 0 1 0 225.4277)" font-size="12px"/>
  <text font-family="'CourierNewPSMT'" id="id_179" atv:refpx="35.5" atv:refpy="220.428" transform="matrix(1 0 0 1 36 225.4277)" font-size="12px"/>
  <text font-family="'CourierNewPSMT'" id="id_180" atv:refpx="71.5" atv:refpy="220.428" transform="matrix(1 0 0 1 72 225.4277)" font-size="12px"/>-->
  <text font-family="'Courier New'" id="id_181" atv:refpx="110.5" atv:refpy="220.428" transform="matrix(1 0 0 1 108 225.4277)" font-size="12px">},</text>
  <!--<text font-family="'CourierNewPSMT'" id="id_182" atv:refpx="116.701" atv:refpy="220.428" transform="matrix(1 0 0 1 115.2012 225.4277)" font-size="12px">,</text>
  <text font-family="'CourierNewPSMT'" id="id_183" atv:refpx="-0.5" atv:refpy="234.828" transform="matrix(1 0 0 1 0 239.8281)" font-size="12px"/>
  <text font-family="'CourierNewPSMT'" id="id_184" atv:refpx="35.5" atv:refpy="234.828" transform="matrix(1 0 0 1 36 239.8281)" font-size="12px"/>
  <text font-family="'CourierNewPSMT'" id="id_185" atv:refpx="71.5" atv:refpy="234.828" transform="matrix(1 0 0 1 72 239.8281)" font-size="12px"/>-->
  <text font-family="'Courier New'" id="id_186" atv:refpx="110.5" atv:refpy="234.828" transform="matrix(1 0 0 1 108 239.8281)" font-size="12px">{</text>
  <!--<text font-family="'CourierNewPSMT'" id="id_187" atv:refpx="-0.5" atv:refpy="249.227" transform="matrix(1 0 0 1 0 254.2275)" font-size="12px"/>
  <text font-family="'CourierNewPSMT'" id="id_188" atv:refpx="35.5" atv:refpy="249.227" transform="matrix(1 0 0 1 36 254.2275)" font-size="12px"/>
  <text font-family="'CourierNewPSMT'" id="id_189" atv:refpx="71.5" atv:refpy="249.227" transform="matrix(1 0 0 1 72 254.2275)" font-size="12px"/>
  <text font-family="'CourierNewPSMT'" id="id_190" atv:refpx="107.5" atv:refpy="249.227" transform="matrix(1 0 0 1 108 254.2275)" font-size="12px"/>-->
  <text font-family="'Courier New'" id="id_191" atv:refpx="147" atv:refpy="249.227" transform="matrix(1 0 0 1 144 254.2275)" font-size="12px">name: 'Third Subitem',</text>
  <!--<text font-family="'CourierNewPSMT'" id="id_192" atv:refpx="153.701" atv:refpy="249.227" transform="matrix(1 0 0 1 151.2012 254.2275)" font-size="12px">a</text>
  <text font-family="'CourierNewPSMT'" id="id_193" atv:refpx="162.902" atv:refpy="249.227" transform="matrix(1 0 0 1 158.4023 254.2275)" font-size="12px">m</text>
  <text font-family="'CourierNewPSMT'" id="id_194" atv:refpx="168.603" atv:refpy="249.227" transform="matrix(1 0 0 1 165.6035 254.2275)" font-size="12px">e</text>
  <text font-family="'CourierNewPSMT'" id="id_195" atv:refpx="173.805" atv:refpy="249.227" transform="matrix(1 0 0 1 172.8047 254.2275)" font-size="12px">:</text>
  <text font-family="'CourierNewPSMT'" id="id_196" atv:refpx="179.506" atv:refpy="249.227" transform="matrix(1 0 0 1 180.0059 254.2275)" font-size="12px"/>
  <text font-family="'CourierNewPSMT'" id="id_197" atv:refpx="188.207" atv:refpy="249.227" transform="matrix(1 0 0 1 187.207 254.2275)" font-size="12px">'</text>
  <text font-family="'CourierNewPSMT'" id="id_198" atv:refpx="197.908" atv:refpy="249.227" transform="matrix(1 0 0 1 194.4082 254.2275)" font-size="12px">T</text>
  <text font-family="'CourierNewPSMT'" id="id_199" atv:refpx="204.609" atv:refpy="249.227" transform="matrix(1 0 0 1 201.6094 254.2275)" font-size="12px">h</text>
  <text font-family="'CourierNewPSMT'" id="id_200" atv:refpx="209.31" atv:refpy="249.227" transform="matrix(1 0 0 1 208.8105 254.2275)" font-size="12px">i</text>
  <text font-family="'CourierNewPSMT'" id="id_201" atv:refpx="217.512" atv:refpy="249.227" transform="matrix(1 0 0 1 216.0117 254.2275)" font-size="12px">r</text>
  <text font-family="'CourierNewPSMT'" id="id_202" atv:refpx="226.213" atv:refpy="249.227" transform="matrix(1 0 0 1 223.2129 254.2275)" font-size="12px">d</text>
  <text font-family="'CourierNewPSMT'" id="id_203" atv:refpx="229.914" atv:refpy="249.227" transform="matrix(1 0 0 1 230.4141 254.2275)" font-size="12px"/>
  <text font-family="'CourierNewPSMT'" id="id_204" atv:refpx="240.615" atv:refpy="249.227" transform="matrix(1 0 0 1 237.6152 254.2275)" font-size="12px">S</text>
  <text font-family="'CourierNewPSMT'" id="id_205" atv:refpx="247.816" atv:refpy="249.227" transform="matrix(1 0 0 1 244.8164 254.2275)" font-size="12px">u</text>
  <text font-family="'CourierNewPSMT'" id="id_206" atv:refpx="255.018" atv:refpy="249.227" transform="matrix(1 0 0 1 252.0176 254.2275)" font-size="12px">b</text>
  <text font-family="'CourierNewPSMT'" id="id_207" atv:refpx="259.719" atv:refpy="249.227" transform="matrix(1 0 0 1 259.2188 254.2275)" font-size="12px">i</text>
  <text font-family="'CourierNewPSMT'" id="id_208" atv:refpx="268.42" atv:refpy="249.227" transform="matrix(1 0 0 1 266.4199 254.2275)" font-size="12px">t</text>
  <text font-family="'CourierNewPSMT'" id="id_209" atv:refpx="276.621" atv:refpy="249.227" transform="matrix(1 0 0 1 273.6211 254.2275)" font-size="12px">e</text>
  <text font-family="'CourierNewPSMT'" id="id_210" atv:refpx="285.322" atv:refpy="249.227" transform="matrix(1 0 0 1 280.8223 254.2275)" font-size="12px">m</text>
  <text font-family="'CourierNewPSMT'" id="id_211" atv:refpx="289.023" atv:refpy="249.227" transform="matrix(1 0 0 1 288.0234 254.2275)" font-size="12px">'</text>
  <text font-family="'CourierNewPSMT'" id="id_212" atv:refpx="296.725" atv:refpy="249.227" transform="matrix(1 0 0 1 295.2246 254.2275)" font-size="12px">,</text>
  <text font-family="'CourierNewPSMT'" id="id_213" atv:refpx="-0.5" atv:refpy="263.628" transform="matrix(1 0 0 1 0 268.6279)" font-size="12px"/>
  <text font-family="'CourierNewPSMT'" id="id_214" atv:refpx="35.5" atv:refpy="263.628" transform="matrix(1 0 0 1 36 268.6279)" font-size="12px"/>
  <text font-family="'CourierNewPSMT'" id="id_215" atv:refpx="71.5" atv:refpy="263.628" transform="matrix(1 0 0 1 72 268.6279)" font-size="12px"/>
  <text font-family="'CourierNewPSMT'" id="id_216" atv:refpx="107.5" atv:refpy="263.628" transform="matrix(1 0 0 1 108 268.6279)" font-size="12px"/>-->
  <text font-family="'Courier New'" id="id_217" atv:refpx="146.5" atv:refpy="263.628" transform="matrix(1 0 0 1 144 268.6279)" font-size="12px">value: 1,</text>
  <!--<text font-family="'CourierNewPSMT'" id="id_218" atv:refpx="153.701" atv:refpy="263.628" transform="matrix(1 0 0 1 151.2012 268.6279)" font-size="12px">a</text>
  <text font-family="'CourierNewPSMT'" id="id_219" atv:refpx="158.902" atv:refpy="263.628" transform="matrix(1 0 0 1 158.4023 268.6279)" font-size="12px">l</text>
  <text font-family="'CourierNewPSMT'" id="id_220" atv:refpx="168.603" atv:refpy="263.628" transform="matrix(1 0 0 1 165.6035 268.6279)" font-size="12px">u</text>
  <text font-family="'CourierNewPSMT'" id="id_221" atv:refpx="175.805" atv:refpy="263.628" transform="matrix(1 0 0 1 172.8047 268.6279)" font-size="12px">e</text>
  <text font-family="'CourierNewPSMT'" id="id_222" atv:refpx="181.006" atv:refpy="263.628" transform="matrix(1 0 0 1 180.0059 268.6279)" font-size="12px">:</text>
  <text font-family="'CourierNewPSMT'" id="id_223" atv:refpx="186.707" atv:refpy="263.628" transform="matrix(1 0 0 1 187.207 268.6279)" font-size="12px"/>
  <text font-family="'CourierNewPSMT'" id="id_224" atv:refpx="197.408" atv:refpy="263.628" transform="matrix(1 0 0 1 194.4082 268.6279)" font-size="12px">1</text>
  <text font-family="'CourierNewPSMT'" id="id_225" atv:refpx="203.109" atv:refpy="263.628" transform="matrix(1 0 0 1 201.6094 268.6279)" font-size="12px">,</text>
  <text font-family="'CourierNewPSMT'" id="id_226" atv:refpx="-0.5" atv:refpy="278.027" transform="matrix(1 0 0 1 0 283.0273)" font-size="12px"/>
  <text font-family="'CourierNewPSMT'" id="id_227" atv:refpx="35.5" atv:refpy="278.027" transform="matrix(1 0 0 1 36 283.0273)" font-size="12px"/>
  <text font-family="'CourierNewPSMT'" id="id_228" atv:refpx="71.5" atv:refpy="278.027" transform="matrix(1 0 0 1 72 283.0273)" font-size="12px"/>
  <text font-family="'CourierNewPSMT'" id="id_229" atv:refpx="107.5" atv:refpy="278.027" transform="matrix(1 0 0 1 108 283.0273)" font-size="12px"/>-->
  <text font-family="'Courier New'" id="id_230" atv:refpx="148.5" atv:refpy="278.027" transform="matrix(1 0 0 1 144 283.0273)" font-size="12px">max: 2</text>
  <!--<text font-family="'CourierNewPSMT'" id="id_231" atv:refpx="153.701" atv:refpy="278.027" transform="matrix(1 0 0 1 151.2012 283.0273)" font-size="12px">a</text>
  <text font-family="'CourierNewPSMT'" id="id_232" atv:refpx="160.902" atv:refpy="278.027" transform="matrix(1 0 0 1 158.4023 283.0273)" font-size="12px">x</text>
  <text font-family="'CourierNewPSMT'" id="id_233" atv:refpx="166.603" atv:refpy="278.027" transform="matrix(1 0 0 1 165.6035 283.0273)" font-size="12px">:</text>
  <text font-family="'CourierNewPSMT'" id="id_234" atv:refpx="172.305" atv:refpy="278.027" transform="matrix(1 0 0 1 172.8047 283.0273)" font-size="12px"/>
  <text font-family="'CourierNewPSMT'" id="id_235" atv:refpx="183.006" atv:refpy="278.027" transform="matrix(1 0 0 1 180.0059 283.0273)" font-size="12px">2</text>
  <text font-family="'CourierNewPSMT'" id="id_236" atv:refpx="-0.5" atv:refpy="292.428" transform="matrix(1 0 0 1 0 297.4277)" font-size="12px"/>
  <text font-family="'CourierNewPSMT'" id="id_237" atv:refpx="35.5" atv:refpy="292.428" transform="matrix(1 0 0 1 36 297.4277)" font-size="12px"/>
  <text font-family="'CourierNewPSMT'" id="id_238" atv:refpx="71.5" atv:refpy="292.428" transform="matrix(1 0 0 1 72 297.4277)" font-size="12px"/>-->
  <text font-family="'Courier New'" id="id_239" atv:refpx="110.5" atv:refpy="292.428" transform="matrix(1 0 0 1 108 297.4277)" font-size="12px">}</text>
  <!--<text font-family="'CourierNewPSMT'" id="id_240" atv:refpx="-0.5" atv:refpy="306.828" transform="matrix(1 0 0 1 0 311.8281)" font-size="12px"/>
  <text font-family="'CourierNewPSMT'" id="id_241" atv:refpx="35.5" atv:refpy="306.828" transform="matrix(1 0 0 1 36 311.8281)" font-size="12px"/>-->
  <text font-family="'Courier New'" id="id_242" atv:refpx="74" atv:refpy="306.828" transform="matrix(1 0 0 1 72 311.8281)" font-size="12px">]</text>
  <!--<text font-family="'CourierNewPSMT'" id="id_243" atv:refpx="-0.5" atv:refpy="321.228" transform="matrix(1 0 0 1 0 326.2275)" font-size="12px"/>-->
  <text font-family="'Courier New'" id="id_244" atv:refpx="38.5" atv:refpy="321.228" transform="matrix(1 0 0 1 36 326.2275)" font-size="12px">}</text>
  <text font-family="'Courier New'" id="id_245" atv:refpx="2" atv:refpy="335.628" transform="matrix(1 0 0 1 0 340.6279)" font-size="12px">]</text>
 </g>
 <!--</svg>-->
 <text x="704.5" y="286.324" fill="#000000" font-family="Arial" text-anchor="start" id="id_8" atv:refpx="734.295" atv:refpy="281.824" font-size="16">by $-signs will automatically be bound.</text>
 <script type="text/ecmascript"><![CDATA[webMI.callExtension('SYSTEM.LIBRARY.PROJECT.QUICKDYNAMICS.Tree', {
	id: document.getElementById("tree").parentNode.id + "_" + "tree",
	prototypeItem: document.getElementById("tree").parentNode.id + "_" +"id_6",
	indent: 10,
	source: [
		{
			name: 'Root Item',
		value: 13,
		max: 21,
		childs: [
			{
				name: 'First Subitem',
				value: 3,
				max: 8
			},
			{
				name: 'Second Subitem',
				value: 9,
				max: 11,
			},
			{
				name: 'Third Subitem',
				value: 1,
				max: 2
			}
		]
		}
	],
	delegate: {
		bind: {
			// Bind the Valuebar
			"Server1/RES/Time_s": function(sourceItem, value) {
				console.error(value);
				webMI.gfx.setText(sourceItem.view.subview("id_6"), value);
			},
		},

		// Only child items shall be selectable
		itemIsSelectable: function(sourceItem) {
			return sourceItem.level > 0;
		},

		// Add a callback when items are selected
		itemSelected: function(sourceItem) {
			alert(sourceItem.name + ' was selected');
		}
	}
});]]></script>
</svg>
