<?xml version='1.0' encoding='utf-8'?>
<!DOCTYPE svg PUBLIC '-//W3C//DTD SVG 1.1//EN' 'http://www.w3.org/Graphics/SVG/1.1/DTD/svg11.dtd'>
<!-- Generated by IcoMoon.io -->
<svg width="20" version="1.1" xmlns="http://www.w3.org/2000/svg" height="20" xmlns:xlink="http://www.w3.org/1999/xlink" xmlns:atv="http://webmi.atvise.com/2007/svgext">
 <defs/>
 <metadata>
  <atv:gridconfig width="5" enabled="true" height="5" gridstyle="lines"/>
  <atv:snapconfig width="5" enabled="true" height="5"/>
 </metadata>
 <g fill="#647a8f" id="icomoon-ignore" atv:refpx="0" atv:refpy="0" transform="matrix(0.0363,0,0,0.0363,0.7159,0.5393)"/>
 <g id="id_0" atv:refpx="10.009" atv:refpy="10.093">
  <path fill="#647a8f" id="id_outer_triangle" atv:refpx="256" atv:refpy="260.864" stroke-width="0.036" d="M18.797,14.649L12.142,3.212C10.969,1.195 9.048,1.195 7.874,3.212L1.22,14.649C0.045,16.668 0.994,18.317 3.328,18.317L16.687,18.317C19.022,18.317 19.971,16.668 18.797,14.649M18.331,16.822C18.091,17.24 17.492,17.48 16.687,17.48L3.329,17.48C2.524,17.48 1.926,17.24 1.685,16.822C1.445,16.405 1.539,15.766 1.943,15.07L8.6,3.633C9.005,2.938 9.518,2.537 10.008,2.537C10.498,2.537 11.013,2.938 11.418,3.634L18.073,15.072C18.479,15.766 18.572,16.405 18.331,16.822"/>
  <path fill="#647a8f" id="id_inner_triangle" atv:refpx="255.936" atv:refpy="258.784" stroke-width="0.036" d="M2.537,16.342L17.475,16.342L10.021,3.523ZM10.689,14.666C10.522,14.764 10.292,14.813 10,14.813C9.709,14.813 9.479,14.764 9.312,14.666C9.239,14.54 9.203,14.357 9.203,14.119C9.203,13.881 9.239,13.702 9.312,13.582C9.48,13.484 9.71,13.435 10,13.435C10.292,13.435 10.522,13.484 10.689,13.582C10.762,13.68 10.798,13.857 10.798,14.113C10.799,14.37 10.762,14.555 10.689,14.666M10.831,7.534L10.525,12.604C10.387,12.646 10.211,12.668 10,12.668C9.789,12.668 9.613,12.647 9.476,12.604L9.312,7.808C9.668,7.563 10.15,7.439 10.754,7.439Z"/>
 </g>
</svg>
