<?xml version='1.0' encoding='utf-8'?>
<!DOCTYPE svg PUBLIC '-//W3C//DTD SVG 1.1//EN' 'http://www.w3.org/Graphics/SVG/1.1/DTD/svg11.dtd'>
<!-- Generated by IcoMoon.io -->
<svg width="512" version="1.1" xmlns="http://www.w3.org/2000/svg" height="243.2" xmlns:xlink="http://www.w3.org/1999/xlink" xmlns:atv="http://webmi.atvise.com/2007/svgext">
 <defs/>
 <metadata>
  <atv:parameter valuetype="color" substitute="$fill$" behavior="optional" name="Color" defaultvalue="#647A8F"/>
  <atv:parameter valuetype="number" substitute="$width$" behavior="optional" name="Width" defaultvalue=""/>
  <atv:parameter valuetype="number" substitute="$height$" behavior="optional" name="Height" defaultvalue=""/>
  <atv:parameter valuetype="address" substitute="$iconbattery$" behavior="optional" name="Icon Battery" defaultvalue=""/>
  <atv:gridconfig width="5" enabled="true" height="5" gridstyle="lines"/>
  <atv:snapconfig width="5" enabled="true" height="5"/>
 </metadata>
 <g id="icomoon-ignore" atv:refpx="0" atv:refpy="0" transform="matrix(1,0,0,1,0,-124.8)"/>
 <path fill="#647A8F" id="i_battery" atv:refpx="256.001" atv:refpy="121.6" stroke-width="1" d="M434.053,115.6C425.151,115.6 419.216,118.598 413.282,118.598L413.282,64.62L324.253,7.646L324.253,196.567L374.702,178.575C377.67,208.562 401.411,232.555 434.053,232.555C466.697,232.555 493.406,205.563 493.406,172.577C493.406,142.589 466.697,115.6 434.053,115.6M434.053,226.555C407.346,226.555 381.434,203.775 381.434,176.787C381.434,176.787 381.573,176.089 381.573,176.089C381.573,155.099 390.903,136.078 408.71,130.079C414.644,127.081 428.119,124.594 434.053,124.594C460.76,124.594 486.027,148.073 486.027,175.062C486.027,202.05 460.76,226.555 434.053,226.555M229.29,190.57L267.868,193.569L267.868,106.603L229.29,109.601ZM86.848,115.6C83.88,115.6 80.91,115.6 77.946,115.6C45.3,115.6 18.593,142.589 18.593,175.577C18.593,208.562 45.302,235.553 77.946,235.553C107.621,235.553 134.327,211.562 137.295,181.574L226.324,190.57L226.324,106.603L273.805,100.605L273.805,190.57L318.319,193.569L318.319,7.646L86.848,64.62ZM128.394,172.577C128.394,175.577 128.394,178.575 128.394,178.575C125.427,202.565 104.653,223.557 77.946,223.557C51.234,223.557 27.495,199.565 27.495,172.577C27.495,145.589 51.236,121.596 77.946,121.596C80.912,121.596 83.88,121.596 86.848,121.596C110.587,127.594 128.394,148.587 128.394,172.577M86.848,145.589L69.043,145.589L69.043,166.581L48.266,166.581L48.266,187.57L69.043,187.57L69.043,208.562L89.812,208.562L89.812,187.57L107.621,187.57L107.621,166.581L86.848,166.581ZM401.411,187.57L460.76,187.57L460.76,166.581L401.411,166.581Z"/>
 <script type="text/ecmascript"><![CDATA[
]]></script>
</svg>
