<?xml version='1.0' encoding='iso-8859-1'?>
<!DOCTYPE svg PUBLIC '-//W3C//DTD SVG 1.1//EN' 'http://www.w3.org/Graphics/SVG/1.1/DTD/svg11.dtd'>
<!-- Generator: Adobe Illustrator 17.1.0, SVG Export Plug-In . SVG Version: 6.00 Build 0)  -->
<svg width="231.233" x="0px" version="1.1" y="0px" xmlns="http://www.w3.org/2000/svg" height="231.233" xmlns:xlink="http://www.w3.org/1999/xlink" style="enable-background:new 0 0 231.233 231.233" id="Capa_1" xml:space="preserve" xmlns:atv="http://webmi.atvise.com/2007/svgext">
 <defs/>
 <metadata>
  <atv:gridconfig width="20" enabled="false" height="20" gridstyle="lines"/>
  <atv:snapconfig width="10" enabled="false" height="10"/>
 </metadata>
 <path fill="#647a8f" id="id_0" atv:refpx="115.616" atv:refpy="115.616" d="M230.505,102.78C230.14,99.53 226.349,97.085 223.071,97.085C212.477,97.085 203.075,90.867 199.132,81.243C195.107,71.388 197.704,59.897 205.597,52.656C208.083,50.383 208.386,46.577 206.302,43.935C200.878,37.049 194.716,30.828 187.986,25.437C185.353,23.325 181.484,23.619 179.199,26.148C172.308,33.78 159.929,36.616 150.363,32.625C140.412,28.438 134.131,18.351 134.748,7.524C134.951,4.121 132.463,1.164 129.072,0.769C120.435,-0.23 111.722,-0.259 103.06,0.701C99.712,1.071 97.226,3.958 97.337,7.318C97.712,18.039 91.36,27.948 81.505,31.985C72.054,35.846 59.76,33.031 52.884,25.466C50.611,22.974 46.81,22.668 44.159,24.735C37.231,30.172 30.93,36.397 25.456,43.227C23.323,45.882 23.637,49.73 26.145,52.011C34.194,59.3 36.789,70.89 32.61,80.86C28.619,90.365 18.75,96.488 7.454,96.488C3.788,96.37 1.179,98.833 0.774,102.167C-0.241,110.85 -0.252,119.702 0.725,128.456C1.09,131.72 4.993,134.144 8.307,134.144C18.377,133.888 28.039,140.118 32.098,149.985C36.137,159.84 33.537,171.326 25.631,178.577C23.158,180.85 22.842,184.647 24.93,187.286C30.299,194.129 36.467,200.354 43.217,205.791C45.867,207.924 49.721,207.626 52.018,205.094C58.936,197.444 71.313,194.613 80.84,198.612C90.82,202.787 97.098,212.874 96.485,223.704C96.284,227.107 98.778,230.073 102.157,230.459C106.577,230.976 111.02,231.232 115.477,231.232C119.707,231.232 123.938,231.001 128.169,230.53C131.521,230.16 134.003,227.27 133.89,223.909C133.503,213.192 139.869,203.283 149.712,199.254C159.226,195.368 171.464,198.212 178.345,205.766C180.63,208.253 184.408,208.554 187.07,206.495C193.986,201.072 200.275,194.85 205.773,188.003C207.908,185.352 207.605,181.5 205.084,179.214C197.037,171.93 194.428,160.335 198.607,150.375C202.535,140.998 212.037,134.702 222.257,134.702L223.687,134.741C227.005,135.01 230.054,132.454 230.455,129.07C231.476,120.379 231.487,111.537 230.505,102.78M115.616,182.27C78.803,182.27 48.962,152.429 48.962,115.617C48.962,78.805 78.804,48.964 115.616,48.964C152.428,48.964 182.269,78.805 182.269,115.617C182.269,128.112 178.825,139.799 172.841,149.793L143.655,120.606C145.768,115.624 146.885,110.223 146.884,104.649C146.884,93.734 142.632,83.473 134.914,75.756C127.196,68.039 116.935,63.789 106.023,63.789C102.381,63.789 98.756,64.272 95.249,65.228C93.713,65.647 92.457,66.913 92.048,68.452C91.63,70.026 92.101,71.639 93.331,72.87C93.331,72.87 107.74,87.39 112.561,92.21C113.066,92.715 113.065,93.92 112.994,94.354L112.949,94.671C112.463,99.971 111.526,106.333 110.753,108.778C110.649,108.881 110.551,108.968 110.445,109.074C110.334,109.185 110.232,109.292 110.125,109.402C107.648,110.197 101.188,111.145 95.804,111.627L95.805,111.598L95.563,111.659C95.52,111.664 95.44,111.67 95.334,111.67C94.752,111.67 93.896,111.507 93.118,110.73C88.1,105.712 74.256,91.967 74.256,91.967C73.014,90.729 71.74,90.469 70.891,90.469C68.912,90.469 67.14,91.899 66.582,93.95C62.771,108.053 66.811,123.223 77.128,133.541C84.847,141.259 95.109,145.509 106.024,145.509C111.598,145.509 116.999,144.394 121.98,142.281L151.483,171.784C141.125,178.412 128.824,182.27 115.616,182.27"/>
 <g id="id_1" atv:refpx="0" atv:refpy="0"/>
 <g id="id_2" atv:refpx="0" atv:refpy="0"/>
 <g id="id_3" atv:refpx="0" atv:refpy="0"/>
 <g id="id_4" atv:refpx="0" atv:refpy="0"/>
 <g id="id_5" atv:refpx="0" atv:refpy="0"/>
 <g id="id_6" atv:refpx="0" atv:refpy="0"/>
 <g id="id_7" atv:refpx="0" atv:refpy="0"/>
 <g id="id_8" atv:refpx="0" atv:refpy="0"/>
 <g id="id_9" atv:refpx="0" atv:refpy="0"/>
 <g id="id_10" atv:refpx="0" atv:refpy="0"/>
 <g id="id_11" atv:refpx="0" atv:refpy="0"/>
 <g id="id_12" atv:refpx="0" atv:refpy="0"/>
 <g id="id_13" atv:refpx="0" atv:refpy="0"/>
 <g id="id_14" atv:refpx="0" atv:refpy="0"/>
 <g id="id_15" atv:refpx="0" atv:refpy="0"/>
</svg>
