<?xml version='1.0' encoding='utf-8'?>
<!DOCTYPE svg PUBLIC '-//W3C//DTD SVG 1.1//EN' 'http://www.w3.org/Graphics/SVG/1.1/DTD/svg11.dtd'>
<!-- Generated by IcoMoon.io -->
<svg width="515.2000000000001" version="1.1" xmlns="http://www.w3.org/2000/svg" height="505.6000000000001" xmlns:xlink="http://www.w3.org/1999/xlink" xmlns:atv="http://webmi.atvise.com/2007/svgext">
 <defs/>
 <metadata>
  <atv:gridconfig width="20" enabled="false" height="20" gridstyle="lines"/>
  <atv:snapconfig width="10" enabled="false" height="10"/>
 </metadata>
 <g id="icomoon-ignore" atv:refpx="0" atv:refpy="0"/>
 <path fill="#647a8f" id="id_0" atv:refpx="257.6" atv:refpy="252.8" d="M483.2,412.8L483.2,233.6C483.2,224 476.8,217.6 467.2,217.6L64,217.6L64,16C64,6.4 57.6,0 48,0C38.4,0 32,6.4 32,16L32,412.8C12.8,419.2 0,438.4 0,457.6C0,483.2 22.4,505.6 48,505.6C73.6,505.6 96,483.2 96,457.6C96,438.4 83.2,419.2 64,412.8L64,249.6L240,249.6L240,412.8C220.8,419.2 208,435.2 208,457.6C208,483.2 230.4,505.6 256,505.6C281.6,505.6 304,483.2 304,457.6C304,438.4 291.2,419.2 275.2,412.8L275.2,249.6L451.2,249.6L451.2,412.8C432,419.2 419.2,435.2 419.2,457.6C419.2,483.2 441.599,505.6 467.2,505.6C492.8,505.6 515.2,483.2 515.2,457.6C512,438.4 499.2,422.4 483.2,412.8"/>
</svg>
