<?xml version='1.0' encoding='utf-8'?>
<!DOCTYPE svg PUBLIC '-//W3C//DTD SVG 1.1//EN' 'http://www.w3.org/Graphics/SVG/1.1/DTD/svg11.dtd'>
<!-- Generated by IcoMoon.io -->
<svg width="512" version="1.1" xmlns="http://www.w3.org/2000/svg" height="243" xmlns:xlink="http://www.w3.org/1999/xlink" xmlns:atv="http://webmi.atvise.com/2007/svgext">
 <defs/>
 <metadata>
  <atv:parameter desc="" valuetype="color" substitute="$fill$" behavior="optional" name="Color" defaultvalue="#647a8f"/>
  <atv:parameter valuetype="number" substitute="$width$" behavior="optional" name="Width" defaultvalue=""/>
  <atv:parameter valuetype="number" substitute="$height$" behavior="optional" name="Height" defaultvalue=""/>
  <atv:parameter valuetype="address" substitute="$icon$" behavior="optional" name="Icon" defaultvalue=""/>
  <atv:gridconfig width="5" enabled="true" height="5" gridstyle="lines"/>
  <atv:snapconfig width="5" enabled="true" height="5"/>
 </metadata>
 <g id="id_4" atv:refpx="256" atv:refpy="121.5" transform="matrix(0.956,0,0,0.956,11.0304,21.8198)">
  <path fill="#647A8F" id="id_0" atv:refpx="448.424" atv:refpy="104.133" d="M384.339,0.041L384.506,208.225L416.506,205.535L416.506,100.159L480.506,108.287L480.506,203.135L512.506,200.991L512.506,48.959Z"/>
  <path fill="#647A8F" id="id_1" atv:refpx="304" atv:refpy="104.112" d="M224,200.224L384,208.224L384,0L224,45.376ZM297.472,49.472L347.424,37.408L347.424,88.416L297.472,95.936ZM347.424,124.16L347.424,173.6L300.159,173.92L298.943,128.576ZM241.28,62.752L284.992,52.672L284.992,98.015L241.28,104.671ZM241.28,133.792L284.992,129.919L284.992,174.079L241.28,174.272Z"/>
  <path fill="#647A8F" id="id_2" atv:refpx="144" atv:refpy="110.72" d="M96,208.543L159.998,202.685L160,202.688L192,200L192,44.192L96,12.896Z"/>
  <path fill="#647A8F" id="id_3" atv:refpx="48" atv:refpy="110.704" d="M0,200L96,208.512L96,12.895L0,49.536ZM91.424,176.928L53.952,176.48L53.952,133.792L91.424,130.175ZM53.952,58.56L85.184,48.831L85.184,97.823L53.952,103.648ZM16.48,69.6L42.4,62.4L41.696,105.92L16.48,110.336ZM16.48,137.376L41.44,134.944L41.44,176.256L16.479,175.936Z"/>
 </g>
</svg>
