<?xml version='1.0' encoding='utf-8'?>
<!DOCTYPE svg PUBLIC '-//W3C//DTD SVG 1.1//EN' 'http://www.w3.org/Graphics/SVG/1.1/DTD/svg11.dtd'>
<!-- Generated by IcoMoon.io -->
<svg width="563" version="1.1" xmlns="http://www.w3.org/2000/svg" height="640" xmlns:xlink="http://www.w3.org/1999/xlink" xmlns:atv="http://webmi.atvise.com/2007/svgext">
 <defs/>
 <metadata>
  <atv:gridconfig width="20" enabled="true" height="20" gridstyle="lines"/>
  <atv:snapconfig width="10" enabled="true" height="10"/>
 </metadata>
 <g id="control-view" atv:refpx="0" atv:refpy="0"/>
 <path fill="#647A8F" id="id_0" atv:refpx="281.249" atv:refpy="391.615" d="M281.25,143.231C126.001,143.231 0.148,269.084 0.148,424.332C0.148,510.969 39.36,588.433 100.986,639.999C119.815,621.128 138.643,602.255 157.472,583.38C161.613,579.239 158.263,569.126 149.981,560.839C141.694,552.555 131.647,549.204 127.505,553.348L100.586,580.266C69.892,544.733 49.48,500.037 44.035,450.852L85.008,450.852C90.866,450.852 95.616,441.352 95.616,429.638C95.616,417.921 90.866,408.423 85.008,408.423L43.108,408.423C46.447,357.687 65.607,311.272 95.747,274.101L127.505,305.858C131.646,309.999 141.694,306.654 149.981,298.369C158.263,290.082 161.614,279.969 157.471,275.828L125.317,243.672C162.118,211.883 208.76,191.118 260.034,186.59L260.034,233.397C260.034,239.255 269.53,244.004 281.249,244.004C292.964,244.004 302.464,239.254 302.464,233.397L302.464,186.59C353.762,191.109 400.364,211.859 437.181,243.672L405.025,275.828C400.884,279.969 404.231,290.082 412.518,298.369C420.8,306.653 430.85,309.999 434.991,305.858L466.748,274.101C496.88,311.272 516.054,357.683 519.389,408.423L477.489,408.423C471.63,408.423 466.881,417.921 466.881,429.638C466.881,441.352 471.629,450.852 477.489,450.852L518.394,450.852C512.956,500.04 492.586,544.728 461.908,580.266L434.99,553.348C430.849,549.204 420.799,552.554 412.517,560.839C404.23,569.126 400.883,579.238 405.024,583.38C423.848,602.281 442.713,621.137 461.578,639.999C523.179,588.433 562.35,510.951 562.35,424.333C562.35,269.084 436.495,143.231 281.248,143.231Z"/>
 <path fill="#647A8F" id="id_1" atv:refpx="281.25" atv:refpy="429.609" d="M318.377,429.609C318.377,450.113 301.753,466.736 281.25,466.736C260.743,466.736 244.123,450.114 244.123,429.609C244.123,409.104 260.743,392.482 281.25,392.482C301.752,392.482 318.377,409.104 318.377,429.609"/>
 <path fill="#647A8F" id="id_2" atv:refpx="258.995" atv:refpy="362.85" d="M213.856,262.361C204.084,266.744 197.978,274.022 199.969,279.144L250.43,408.901C243.909,418.637 242.087,431.338 246.656,443.092C254.088,462.203 275.604,471.669 294.714,464.236C313.827,456.802 323.293,435.287 315.862,416.176C311.292,404.425 301.368,396.291 289.977,393.522L239.514,263.763C237.39,258.303 226.815,257.32 215.895,261.567C215.212,261.832 214.507,262.067 213.856,262.361"/>
 <path fill="#647A8F" id="id_3" atv:refpx="132.521" atv:refpy="77.421" d="M110.603,17.537L156.373,0L178.29,57.214L212.616,44.06L163.209,154.841L52.425,105.433L86.751,92.284L64.828,35.073Z"/>
</svg>
