<?xml version='1.0' encoding='utf-8'?>
<!DOCTYPE svg PUBLIC '-//W3C//DTD SVG 1.1//EN' 'http://www.w3.org/Graphics/SVG/1.1/DTD/svg11.dtd'>
<!-- Generated by IcoMoon.io -->
<svg width="508.8" version="1.1" xmlns="http://www.w3.org/2000/svg" height="393.6" xmlns:xlink="http://www.w3.org/1999/xlink" xmlns:atv="http://webmi.atvise.com/2007/svgext">
 <defs/>
 <metadata>
  <atv:gridconfig width="20" enabled="false" height="20" gridstyle="lines"/>
  <atv:snapconfig width="10" enabled="false" height="10"/>
 </metadata>
 <g fill="#647a8f" id="id_5" atv:refpx="254.4" atv:refpy="196.801" transform="matrix(1,0,0,1,0,-51.2)">
  <g id="icomoon-ignore" atv:refpx="0" atv:refpy="0"/>
  <path id="id_0" atv:refpx="254.4" atv:refpy="440" d="M6.399,444.802C3.199,444.802 0,441.6 0,438.4C0,435.199 3.2,432 6.4,432L502.4,432C505.599,432 508.799,435.2 508.799,438.4C508.799,441.599 505.599,444.799 502.4,444.799L6.399,444.799Z"/>
  <path id="id_1" atv:refpx="100.8" atv:refpy="267.2" d="M64,144L137.6,144L137.6,390.4L64,390.4Z"/>
  <path id="id_2" atv:refpx="212.8" atv:refpy="220.8" d="M176,51.2L249.6,51.2L249.6,390.4L176,390.4Z"/>
  <path id="id_3" atv:refpx="315.2" atv:refpy="275.2" d="M278.4,160L352,160L352,390.4L278.4,390.4Z"/>
  <path id="id_4" atv:refpx="427.2" atv:refpy="313.6" d="M390.4,236.8L464,236.8L464,390.4L390.4,390.4Z"/>
 </g>
</svg>
