<?xml version='1.0' encoding='utf-8'?>
<!DOCTYPE svg PUBLIC '-//W3C//DTD SVG 1.1//EN' 'http://www.w3.org/Graphics/SVG/1.1/DTD/svg11.dtd'>
<!-- Generated by IcoMoon.io -->
<svg width="512" version="1.1" xmlns="http://www.w3.org/2000/svg" height="243" xmlns:xlink="http://www.w3.org/1999/xlink" xmlns:atv="http://webmi.atvise.com/2007/svgext">
 <defs/>
 <metadata>
  <atv:parameter valuetype="address" substitute="$icon$" behavior="optional" name="Icon" defaultvalue=""/>
  <atv:gridconfig width="5" enabled="true" height="5" gridstyle="lines"/>
  <atv:snapconfig width="5" enabled="true" height="5"/>
 </metadata>
 <path fill="#647a8f" id="id_0" atv:refpx="256" atv:refpy="121.5" stroke-width="1" d="M422.889,87.088C422.889,80.612 418.617,80.612 416.413,80.612C414.277,78.477 229.098,13.857 222.691,11.721C216.283,9.586 216.215,9.586 211.943,9.586C207.671,9.586 106.402,22.469 95.587,24.673C84.771,26.877 82.704,39.691 82.704,46.167C82.704,52.643 82.704,177.473 82.704,192.561C82.704,207.648 91.315,207.648 95.655,209.784C95.655,209.784 97.791,209.784 99.927,209.784C102.063,216.259 106.403,220.53 112.878,220.53C117.149,220.53 121.489,218.394 125.76,214.055C162.342,218.326 222.622,222.666 222.622,222.666C222.622,222.666 229.098,222.666 231.234,222.666C231.234,222.666 239.845,220.53 250.592,216.191C252.727,224.802 259.203,229.142 265.679,229.142C274.291,229.142 280.766,222.667 282.902,211.92L282.902,209.784C282.902,209.784 282.902,209.784 282.902,207.648C282.902,203.376 280.766,201.172 280.766,201.172L278.63,199.036C270.019,188.289 265.679,173.202 265.679,160.319C265.679,145.232 270.019,132.349 276.425,121.602C278.561,119.467 280.697,117.331 282.901,115.127C285.037,112.991 287.172,110.855 289.376,108.651C300.123,100.04 313.075,95.7 328.162,93.565L332.433,93.565C343.18,93.565 356.132,97.836 364.743,104.312C366.879,104.312 366.879,106.447 369.015,106.447C373.286,110.719 377.626,115.059 381.966,119.399C390.578,130.146 394.918,143.097 394.918,158.184C394.918,162.456 394.918,164.66 394.918,168.931C390.646,199.037 362.607,222.736 330.298,222.736L328.162,222.736C323.89,222.736 308.804,222.736 302.328,214.124C300.191,211.988 298.056,209.853 298.056,205.513C298.056,203.377 297.407,196.893 297.833,194.826L298.663,192.757C300.28,190.348 301.127,187.236 303.263,185.032L306.973,189.615C307.211,193.282 310.122,189.303 310.122,189.303L314.02,185.032L315.142,184.019C316.627,182.619 318.997,182.556 315.142,179.747L319.413,175.476C321.549,173.34 322.41,172.213 326.778,174.291C328.786,174.264 330.455,174.847 332.905,176.698C337.43,178.224 338.771,179.748 340.907,181.883C343.043,181.883 345.179,181.883 347.383,181.883L349.519,179.747C353.79,175.476 364.605,164.66 364.605,164.66C364.605,164.66 366.741,162.524 364.605,158.185L362.469,156.049L375.421,143.098C377.557,140.962 377.557,140.962 375.421,138.826L371.149,134.555C369.013,132.419 369.013,132.419 366.878,134.555L353.148,148.129C352.465,148.792 347.555,143.57 347.451,143.235C347.451,143.235 343.18,138.963 338.84,134.623L351.723,121.672C353.859,119.537 353.859,119.537 351.723,117.401L347.451,113.129C345.315,110.994 345.315,110.994 343.18,113.129L336.704,121.741L332.433,126.012L330.297,123.876C326.026,119.605 323.822,123.876 323.822,123.876C323.822,123.876 308.735,138.963 306.599,141.099C304.463,143.235 307.36,147.117 309.497,153.593C309.497,155.729 310.719,156.338 310.719,158.474C312.855,162.745 313.007,164.797 310.871,166.933L306.6,171.204C304.464,169.068 302.328,169.068 302.328,171.204L298.057,175.476C295.921,177.612 295.921,179.747 298.057,179.747L302.328,184.019C302.328,184.019 300.651,186.574 299.568,188.414C298.357,190.476 298.173,190.699 297.13,192.178C295.9,193.923 296.269,193.486 296.176,193.938C296.066,194.466 295.92,205.444 295.92,207.648C295.92,211.92 295.92,214.124 298.056,218.395C298.056,220.531 300.192,220.531 300.192,222.666C310.939,233.413 330.366,233.413 332.502,233.413L334.638,233.413C369.084,233.413 397.054,209.714 405.666,179.609C407.802,179.609 407.802,179.609 409.937,179.609C416.412,179.609 420.684,173.134 420.684,166.658C420.684,164.522 420.684,164.522 420.684,162.387C422.82,162.387 422.82,162.387 422.82,162.387L429.295,160.25C427.16,158.114 427.16,155.979 427.16,153.775C427.16,151.571 422.889,93.564 422.889,87.089ZM123.625,188.289L97.791,188.289L97.791,173.203L123.625,173.203C123.625,173.203 123.625,188.289 123.625,188.289M115.014,143.028L115.014,136.552L183.905,136.552L183.905,143.028ZM170.953,155.979L130.101,155.979L130.101,149.504L171.022,149.504L171.022,155.979ZM207.535,190.425L181.701,190.425L181.701,175.338L207.535,175.338ZM209.739,121.533L93.451,119.398L93.451,48.371L209.739,35.419ZM282.902,102.175C276.427,108.651 272.155,115.127 267.815,121.533L235.506,121.533L235.506,35.419L282.903,50.506L282.903,102.175ZM328.094,84.952C313.008,84.952 300.124,89.223 289.309,97.903L289.309,52.642L328.094,65.593L328.094,84.951ZM364.745,93.563C356.133,89.292 343.251,84.952 332.434,84.952L332.434,67.729L364.745,78.476ZM394.85,121.533L392.714,121.533C386.238,110.786 377.627,104.311 369.015,97.835L369.015,78.476L394.849,87.088L394.849,121.533ZM401.326,121.533L401.326,89.224L420.684,95.699L420.684,121.533Z"/>
</svg>
