<?xml version='1.0' encoding='utf-8'?>
<!DOCTYPE svg PUBLIC '-//W3C//DTD SVG 1.1//EN' 'http://www.w3.org/Graphics/SVG/1.1/DTD/svg11.dtd'>
<!-- Generated by IcoMoon.io -->
<svg width="512" version="1.1" xmlns="http://www.w3.org/2000/svg" height="243" xmlns:xlink="http://www.w3.org/1999/xlink" xmlns:atv="http://webmi.atvise.com/2007/svgext">
 <defs/>
 <metadata>
  <atv:parameter valuetype="address" substitute="$icon$" behavior="optional" name="Icon" defaultvalue=""/>
  <atv:gridconfig width="5" enabled="true" height="5" gridstyle="lines"/>
  <atv:snapconfig width="5" enabled="true" height="5"/>
 </metadata>
 <path fill="#647a8f" id="id_0" atv:refpx="256.001" atv:refpy="121.5" stroke-width="1" d="M426.193,137.305C426.193,137.305 428.358,115.521 426.193,113.286C424.028,111.121 424.028,108.957 424.028,104.558C424.028,100.229 424.028,89.268 424.028,87.103C424.028,84.938 421.863,80.54 419.699,73.976C417.534,67.413 404.408,41.23 400.079,36.9C395.75,32.57 391.351,28.172 382.624,23.773C373.896,21.609 325.927,6.318 236.415,19.375C225.523,23.773 205.833,28.103 162.194,65.178C162.194,65.178 155.631,67.342 153.466,69.507C153.466,69.507 107.663,69.507 83.644,121.874C83.644,121.874 81.479,124.039 81.479,126.203C81.479,128.368 81.479,134.931 81.479,134.931C81.479,134.931 81.479,137.096 81.479,139.26C81.479,141.425 81.479,156.716 85.808,161.045C85.808,161.045 85.808,169.773 101.099,174.172C101.099,174.172 105.428,174.172 109.826,176.337C114.156,180.666 118.554,185.064 127.282,187.229C138.175,189.393 144.738,187.229 149.067,185.064L151.231,185.064C155.56,185.064 192.705,189.393 225.452,189.393C232.015,200.285 245.072,206.848 258.2,206.848C277.819,206.848 293.111,193.722 295.276,174.101C297.441,184.993 301.839,193.721 308.402,202.45C310.567,204.615 310.567,204.615 312.731,204.615C314.896,202.45 314.896,200.286 312.731,198.052C306.168,191.488 302.332,174.731 301.878,174.033C301.305,172.375 299.674,165.305 299.674,160.906C299.674,125.995 328.023,99.811 360.769,99.811C389.118,99.811 413.136,117.267 419.699,143.45C421.864,150.013 421.864,154.342 421.864,160.906C421.864,195.817 393.516,222.001 360.769,222.001C360.769,222.001 360.769,222.001 358.604,222.001C354.275,222.001 338.598,222.194 334.198,215.632C332.034,213.467 332.42,211.109 332.42,206.71C332.42,197.982 334.585,193.584 338.983,189.254L343.312,193.584C345.477,195.748 347.641,195.748 347.641,193.584L351.97,189.254C354.135,187.089 355.164,187.201 352.046,184.925L356.3,180.596C360.629,176.267 378.084,189.324 380.319,184.925C382.484,182.76 397.775,167.47 397.775,167.47C397.775,167.47 399.939,165.305 397.775,160.907L395.61,158.742L408.667,145.685C408.667,145.685 408.667,143.52 408.667,141.356L404.337,137.027C404.337,137.027 402.173,137.027 400.008,137.027L386.951,150.153C382.622,145.824 380.388,143.59 378.223,141.425C378.223,141.425 373.894,137.096 369.496,132.697L382.622,119.571C382.622,119.571 382.622,117.406 382.622,115.242L378.293,110.913C378.293,110.913 376.128,110.913 373.964,110.913L360.698,124.248L358.533,122.084C356.368,119.919 351.97,122.084 351.97,122.084C351.97,122.084 336.679,137.374 334.514,139.539C332.349,141.704 344.284,157.133 338.843,161.324C337.724,163.022 337.336,162.877 336.678,163.489L332.349,167.818C329.824,165.113 328.84,165.642 328.02,167.818L324.196,173.025C321.457,173.14 323.248,175.851 325.62,177.048L331.241,181.931C326.912,186.26 323.621,193.931 323.621,207.058C323.621,211.388 325.164,217.698 325.738,217.951C327.363,219.906 327.951,220.115 327.951,220.115C336.679,228.843 356.3,228.843 358.533,228.843L360.698,228.843C399.939,228.843 430.52,198.261 430.52,159.021C430.52,152.597 428.356,143.869 426.192,137.306ZM382.484,32.571C391.212,34.736 402.104,45.698 404.269,71.812L373.757,71.812C373.757,58.755 367.194,36.901 362.865,28.173C369.427,30.407 378.155,30.407 382.484,32.571M325.788,26.008C332.351,26.008 341.079,26.008 349.808,28.172C354.137,36.9 360.7,60.919 360.7,73.975L336.68,73.975C338.845,73.975 338.845,71.811 338.845,71.811C341.01,67.482 338.845,63.083 336.68,60.919C334.515,58.753 325.788,58.754 321.39,58.754L319.225,58.754C317.06,47.862 317.06,34.736 314.896,30.406C321.459,26.007 323.623,26.007 325.788,26.007ZM310.497,34.805C312.662,43.533 314.826,67.552 314.826,71.881L297.37,71.881L297.37,56.59C297.441,56.59 301.769,43.464 310.497,34.805M116.321,89.337C118.485,91.501 114.156,98.065 107.593,106.793C101.029,113.356 94.466,117.686 94.466,115.521C92.301,108.958 114.156,87.172 116.321,89.337M188.307,174.45C183.978,174.45 181.744,170.121 181.744,165.723C181.744,161.394 183.909,156.995 188.307,156.995C192.706,156.995 194.87,161.324 194.87,165.723C194.87,170.052 192.706,174.45 188.307,174.45M227.617,130.742C225.453,135.071 221.054,143.868 205.833,143.868C190.611,143.868 173.086,143.868 168.756,143.868C164.427,143.868 157.864,143.868 157.864,150.431C157.864,156.994 155.699,165.722 155.699,165.722C155.699,165.722 153.535,172.285 146.972,170.051C140.408,170.051 109.896,163.488 109.896,163.488C109.896,163.488 103.332,163.488 101.168,154.76C96.839,150.431 96.839,141.634 94.605,139.47C90.276,137.305 90.276,132.907 90.276,132.907C90.276,130.742 92.44,124.179 94.605,126.344C96.77,126.344 188.446,130.673 227.687,128.509C227.617,128.579 229.782,128.579 227.617,130.743ZM188.307,89.337C199.2,82.774 210.092,80.609 214.491,87.173C218.82,93.736 212.327,102.464 203.598,108.958C192.705,115.521 181.813,117.686 177.415,111.123C173.016,106.793 179.579,98.066 188.307,89.338ZM179.58,67.482C175.251,67.482 177.416,63.153 179.58,63.153C190.473,54.425 216.656,34.805 227.618,32.571C240.675,30.407 245.074,28.242 301.77,26.008C301.77,26.008 306.099,26.008 301.77,28.172C297.441,32.501 284.314,49.957 282.15,54.356C282.15,58.684 279.985,63.083 266.859,65.248C253.802,65.318 183.98,67.483 179.581,67.483ZM262.529,198.4C249.472,198.4 238.509,185.274 238.509,170.052C238.509,154.83 249.402,141.703 262.529,141.703C275.655,141.703 286.548,154.83 286.548,170.052C286.548,185.343 275.586,198.4 262.529,198.4"/>
</svg>
