<?xml version='1.0' encoding='iso-8859-1'?>
<!DOCTYPE svg PUBLIC '-//W3C//DTD SVG 1.1//EN' 'http://www.w3.org/Graphics/SVG/1.1/DTD/svg11.dtd'>
<!-- Generator: Adobe Illustrator 16.0.0, SVG Export Plug-In . SVG Version: 6.00 Build 0)  -->
<svg width="34.01" x="0px" version="1.1" y="0px" xmlns="http://www.w3.org/2000/svg" height="31.49" xmlns:xlink="http://www.w3.org/1999/xlink" style="enable-background:new 0 0 34.011 34.011" id="Capa_1" xml:space="preserve" xmlns:atv="http://webmi.atvise.com/2007/svgext">
 <defs/>
 <metadata>
  <atv:gridconfig width="1" enabled="true" height="1" gridstyle="lines"/>
  <atv:snapconfig width="1" enabled="true" height="1"/>
 </metadata>
 <g id="id_5" atv:refpx="17.026" atv:refpy="15.767" transform="matrix(0.0609,0,0,0.0609,1.2299,0.1531)">
  <g fill="#647a8f" id="icomoon-ignore" atv:refpx="0" atv:refpy="0"/>
  <path fill="#647a8f" id="id_0" atv:refpx="245.024" atv:refpy="256" d="M315.392,293.664L315.392,55.103C315.392,22.623 276.864,0 242.336,0C207.808,0 169.28,22.623 169.28,55.103L169.28,296.256C136.416,319.135 122.272,346.751 122.272,387.135C122.272,456 177.728,512 245.888,512C314.24,512 367.776,457.152 367.776,387.168C367.776,336.352 339.68,309.6 315.392,293.664M245.888,482.784C193.824,482.784 151.488,439.872 151.488,387.168C151.488,349.408 166.848,332.128 191.68,316.48L198.496,312.192L198.496,55.103C198.496,43.679 219.136,29.215 242.336,29.215C265.536,29.215 286.176,43.711 286.176,55.103L286.176,310.048L293.28,314.304C325.44,333.535 338.592,354.655 338.592,387.168C338.56,440.768 297.856,482.784 245.888,482.784"/>
  <path fill="#647a8f" id="id_1" atv:refpx="244.48" atv:refpy="327.008" d="M256.928,346.976L256.928,221.12C256.928,213.056 250.4,206.496 242.304,206.496C234.24,206.496 227.68,213.024 227.68,221.12L227.68,348.32C207.744,355.296 193.344,374.08 193.344,396.384C193.344,424.64 216.224,447.52 244.48,447.52C272.736,447.52 295.616,424.64 295.616,396.384C295.647,372.48 279.135,352.544 256.928,346.976"/>
  <path fill="#647a8f" id="id_2" atv:refpx="366.512" atv:refpy="67.712" d="M359.2,89.632L373.824,89.632C385.92,89.632 395.744,79.808 395.744,67.712C395.744,55.616 385.92,45.792 373.824,45.792L359.2,45.792C347.104,45.792 337.28,55.616 337.28,67.712C337.28,79.808 347.104,89.632 359.2,89.632"/>
  <path fill="#647a8f" id="id_3" atv:refpx="366.512" atv:refpy="140.768" d="M373.824,118.848L359.2,118.848C347.104,118.848 337.28,128.672 337.28,140.768C337.28,152.864 347.104,162.688 359.2,162.688L373.824,162.688C385.92,162.688 395.744,152.863 395.744,140.767C395.744,128.669 385.92,118.847 373.824,118.848"/>
  <path fill="#647a8f" id="id_4" atv:refpx="366.512" atv:refpy="213.824" d="M373.824,191.904L359.2,191.904C347.104,191.904 337.28,201.728 337.28,213.824C337.28,225.92 347.104,235.744 359.2,235.744L373.824,235.744C385.92,235.744 395.744,225.92 395.744,213.824C395.744,201.728 385.92,191.904 373.824,191.904"/>
 </g>
</svg>
