<?xml version='1.0' encoding='utf-8'?>
<!DOCTYPE svg PUBLIC '-//W3C//DTD SVG 1.1//EN' 'http://www.w3.org/Graphics/SVG/1.1/DTD/svg11.dtd'>
<!-- Generated by IcoMoon.io -->
<svg width="512" version="1.1" xmlns="http://www.w3.org/2000/svg" height="243" xmlns:xlink="http://www.w3.org/1999/xlink" xmlns:atv="http://webmi.atvise.com/2007/svgext">
 <defs/>
 <metadata>
  <atv:parameter valuetype="address" substitute="$icongenset$" behavior="optional" name=" Icon Genset" defaultvalue=""/>
  <atv:gridconfig width="5" enabled="true" height="5" gridstyle="lines"/>
  <atv:snapconfig width="5" enabled="true" height="5"/>
 </metadata>
 <g id="id_5" atv:refpx="256.014" atv:refpy="121.501" transform="matrix(0.9133,0,0,0.5768,22.1845,9.2622)">
  <g id="id_7" atv:refpx="430.012" atv:refpy="12.786">
   <path fill="#647A8F" id="id_0" atv:refpx="361.626" atv:refpy="97.475" stroke-width="1" d="M352,32.774C345.6,35.974 348.8,51.974 348.8,55.174C352,58.374 358.4,58.374 364.8,55.174C371.2,51.974 377.6,42.374 374.4,39.174C371.2,32.774 358.4,26.374 352,32.774"/>
   <path fill="#647A8F" id="id_1" atv:refpx="454.235" atv:refpy="84.412" stroke-width="1" d="M508.8,3.974C483.2,-5.625 441.6,3.974 422.4,13.574C406.4,19.974 400,32.774 396.8,39.174C396.8,39.174 393.6,58.374 406.4,61.574C419.2,61.574 467.2,58.374 483.2,51.974C505.6,42.374 518.4,7.174 508.8,3.974"/>
  </g>
  <path fill="#647A8F" id="id_2" atv:refpx="238.4" atv:refpy="396.4" stroke-width="1" d="M64,360.374L0,325.174L0,353.974L64,389.174L476.8,325.174L476.8,296.374Z"/>
  <path fill="#647A8F" id="id_3" atv:refpx="217.6" atv:refpy="151.6" stroke-width="1" d="M217.6,107.574C233.6,107.574 249.6,104.374 249.6,101.174C249.6,97.974 220.8,88.374 217.6,88.374C214.4,88.374 185.6,97.974 185.6,101.174C185.6,104.374 201.6,107.574 217.6,107.574"/>
  <path fill="#647A8F" id="id_4" atv:refpx="236.8" atv:refpy="258.8" stroke-width="1" d="M64,347.574L473.6,286.774L460.8,280.374L460.8,270.774L467.2,270.774L467.2,85.174L406.4,91.574L380.8,110.774L380.8,75.574C380.8,69.174 371.2,62.774 364.8,62.774C358.4,62.774 348.8,69.174 348.8,75.574L348.8,97.974C345.6,97.974 342.4,97.974 339.2,101.174C332.8,104.374 329.6,110.774 329.6,117.174L300.8,117.174C284.8,117.174 278.4,129.973 278.4,136.374L278.4,142.773L256,142.773C252.8,129.973 243.2,120.374 230.4,120.374L230.4,110.774C230.4,110.774 224,110.774 217.6,110.774C211.2,110.774 204.8,110.774 204.8,110.774L204.8,123.574L176,123.574C166.4,126.774 156.8,136.374 153.6,149.174L128,149.174L128,104.374L86.4,104.374L51.199,107.573L51.199,152.373L44.8,152.373L44.8,203.574C35.199,216.374 31.999,241.974 31.999,270.774C31.999,286.774 35.199,299.574 38.4,309.174L0,315.574ZM390.399,120.374L454.4,113.973L454.4,123.574L403.2,129.973L390.399,129.973ZM390.399,145.974L454.4,139.574L454.4,149.174L403.2,155.574L390.399,155.574ZM390.399,171.574L454.4,165.173L454.4,174.774L403.2,181.174L390.399,181.174ZM390.399,197.174L454.4,190.774L454.4,200.374L403.2,206.774L390.399,206.774ZM57.6,206.774C57.6,206.774 217.6,200.374 220.8,200.374C233.6,200.374 249.6,216.374 252.8,251.574C256,283.574 240,315.574 233.6,315.574C233.6,315.574 89.6,334.774 67.2,337.974C76.8,331.574 83.2,302.774 80,273.974C76.8,238.774 67.2,213.174 57.6,206.774"/>
 </g>
</svg>
