<?xml version='1.0' encoding='utf-8'?>
<!DOCTYPE svg PUBLIC '-//W3C//DTD SVG 1.1//EN' 'http://www.w3.org/Graphics/SVG/1.1/DTD/svg11.dtd'>
<!-- Generated by IcoMoon.io -->
<svg width="512" version="1.1" xmlns="http://www.w3.org/2000/svg" height="243" xmlns:xlink="http://www.w3.org/1999/xlink" xmlns:atv="http://webmi.atvise.com/2007/svgext">
 <defs/>
 <metadata>
  <atv:gridconfig width="5" enabled="true" height="5" gridstyle="lines"/>
  <atv:snapconfig width="5" enabled="true" height="5"/>
 </metadata>
 <g id="icomoon-ignore" atv:refpx="0" atv:refpy="0"/>
 <g id="id_1" atv:refpx="256.003" atv:refpy="121.503" transform="matrix(0.6656,0,0,0.6656,85.5954,-53.2316)">
  <path fill="#647A8F" id="id_0" atv:refpx="256" atv:refpy="262.501" d="M297.575,96.051C294.4,92.877 294.4,92.877 291.226,92.877L220.877,92.877C220.877,92.877 217.703,92.877 217.703,96.051L150.529,160.051C150.529,160.051 147.355,163.225 147.355,166.399L147.355,188.825C147.355,191.999 150.529,195.173 153.703,195.173C156.878,195.173 166.504,191.999 166.504,188.825L166.504,176.024L217.704,176.024L217.704,185.649L150.53,252.823L150.53,278.424C150.53,284.772 153.704,288.049 156.879,288.049C160.053,288.049 163.227,284.873 163.227,281.7L163.227,265.726L211.253,265.726L176.027,422.5C176.027,425.675 179.201,432.125 182.375,432.125C182.375,432.125 182.375,432.125 185.549,432.125C188.724,432.125 191.898,428.95 191.898,425.776L191.898,419.427L255.898,374.678L316.724,419.427L316.724,425.776C316.724,428.951 323.073,432.125 326.349,432.125C329.525,432.125 332.698,425.776 332.698,422.5L300.749,265.726L348.775,265.726L348.775,278.526C348.775,284.875 351.95,288.151 355.124,288.151C358.298,288.151 361.473,284.976 361.473,281.802L361.473,253.028L297.473,189.028L297.473,176.228L348.673,176.228L348.673,189.028C348.673,192.202 351.848,195.377 355.022,195.377C358.196,195.377 361.371,192.203 361.371,189.028L361.371,166.603C361.371,163.429 361.371,163.429 358.196,160.254L297.575,96.049ZM294.4,307.2L268.799,287.949L284.773,271.975L294.398,307.201ZM271.974,176.025L255.999,198.45L243.198,176.025ZM240.025,159.949L256,143.974L275.251,159.949ZM281.6,188.826C281.6,192 281.6,192 281.6,188.826L281.6,230.401L265.626,211.15L281.6,188.827ZM278.425,249.651L236.85,249.651L256.101,224.051L278.424,249.651ZM268.8,265.625L256,275.25L246.375,265.625ZM281.6,147.251L268.8,134.451L281.6,121.651ZM271.974,108.749L255.999,121.652L243.198,108.852L271.974,108.852ZM230.4,118.374L246.375,134.347L230.4,150.424ZM230.4,188.826L246.375,211.251L230.4,233.574L230.4,188.825ZM227.226,271.974L246.477,287.948L217.703,310.373L227.226,271.973ZM172.851,159.949L214.426,118.374L214.426,159.949ZM172.851,249.651L214.426,208.076L214.426,249.651ZM198.451,399.974L211.251,342.425L243.2,364.85L198.451,399.973ZM256,355.226L217.6,329.626L256,297.676L294.4,329.626ZM300.851,342.425L313.651,396.8L268.902,364.851L300.851,342.426ZM339.149,249.651L297.574,249.651L297.574,208.076ZM297.575,159.949L297.575,115.098L342.426,159.949ZM137.625,224.051L3.174,271.974C3.174,271.974 0,271.974 3.174,275.149C3.174,275.149 3.174,275.149 6.349,275.149L140.698,236.749C140.698,236.749 140.698,236.749 140.698,233.575L137.626,224.052C140.8,227.226 137.626,227.226 137.626,224.052ZM3.175,259.175L128.001,195.175C128.001,195.175 128.001,195.175 128.001,192.001L128.001,182.376C128.001,182.376 128.001,182.376 128.001,179.202C128.001,179.202 128.001,179.202 124.827,179.202L0.001,256.002C0.001,256.002 0.001,256.002 3.176,259.177C0.001,259.177 0.001,259.177 3.176,259.177ZM128,271.974L6.349,287.948C6.349,287.948 3.174,287.948 3.174,291.123C3.174,291.123 3.174,294.298 6.349,294.298L128,284.673C128,284.673 131.174,284.673 131.174,281.498ZM128,271.974C131.174,275.251 131.174,275.251 128,271.974M512,256L387.174,182.375C387.174,182.375 387.174,182.375 383.998,182.375C383.998,182.375 383.998,182.375 383.998,185.549L383.998,192C383.998,192 383.998,192 383.998,195.174L508.823,259.173C511.998,259.173 511.998,259.173 511.998,255.999ZM505.651,287.949L384,271.975C384,271.975 384,271.975 380.825,271.975C380.825,271.975 380.825,271.975 380.825,275.15L380.825,281.499C380.825,281.499 380.825,284.674 384,284.674L505.651,291.023C505.651,291.228 508.826,291.228 505.651,287.951C508.826,287.951 508.826,287.951 505.651,287.951ZM508.825,271.974L374.476,223.948C374.476,223.948 374.476,223.948 371.301,223.948C371.301,223.948 371.301,223.948 371.301,227.123L371.301,236.646L505.65,275.046C508.825,275.251 508.825,275.251 508.825,271.974C512,271.974 508.825,271.974 508.825,271.974"/>
 </g>
</svg>
