<?xml version='1.0' encoding='utf-8'?>
<!DOCTYPE svg PUBLIC '-//W3C//DTD SVG 1.1//EN' 'http://www.w3.org/Graphics/SVG/1.1/DTD/svg11.dtd'>
<!-- Generated by IcoMoon.io -->
<svg width="387.1999999999999" version="1.1" xmlns="http://www.w3.org/2000/svg" height="511.9999999999999" xmlns:xlink="http://www.w3.org/1999/xlink" xmlns:atv="http://webmi.atvise.com/2007/svgext">
 <defs/>
 <metadata>
  <atv:gridconfig width="20" enabled="false" height="20" gridstyle="lines"/>
  <atv:snapconfig width="10" enabled="false" height="10"/>
 </metadata>
 <path fill="#647a8f" id="id_0" atv:refpx="195.2" atv:refpy="24" d="M124.799,48L265.599,48C268.799,48 271.999,44.8 271.999,41.6L271.999,6.4C271.999,3.2 268.799,0 265.599,0L124.799,0C118.399,0 118.399,3.2 118.399,6.4L118.399,41.6C118.399,44.8 118.399,48 124.799,48"/>
 <path fill="#647a8f" id="id_1" atv:refpx="193.6" atv:refpy="265.6" d="M380.799,22.4L300.799,22.4C297.599,22.4 294.4,25.599 294.4,28.799L294.4,67.199C294.4,70.399 291.2,73.6 288,73.6L96,73.6C92.8,73.6 89.6,70.399 89.6,67.199L89.6,25.599C89.6,22.399 86.4,19.199 83.2,19.199L6.4,19.199C3.2,19.199 0,22.399 0,25.599L0,505.599C0,508.799 3.2,511.999 6.4,511.999L380.799,511.999C383.999,511.999 387.199,508.799 387.199,505.599L387.199,25.599C387.199,22.399 383.999,22.399 380.799,22.4M326.4,444.8L64,444.8C57.6,444.8 51.2,438.4 51.2,432C51.2,425.599 57.6,419.2 64,419.2L326.4,419.2C332.799,419.2 339.2,425.599 339.2,432C339.2,438.4 332.8,444.8 326.4,444.8M326.4,377.6L64,377.6C57.6,377.6 51.2,371.2 51.2,364.8C51.2,358.4 57.6,352 64,352L326.4,352C332.799,352 339.2,358.4 339.2,364.8C339.2,374.4 332.8,377.6 326.4,377.6M326.4,313.6L64,313.6C57.6,313.6 51.2,307.2 51.2,300.8C51.2,294.4 57.6,288 64,288L326.4,288C332.799,288 339.2,294.4 339.2,300.8C339.2,307.2 332.8,313.6 326.4,313.6M326.4,246.4L64,246.4C57.6,246.4 51.2,240 51.2,233.6C51.2,227.2 57.6,220.799 64,220.799L326.4,220.799C332.799,220.799 339.2,227.2 339.2,233.6C339.2,240 332.8,246.4 326.4,246.4M326.4,179.2L64,179.2C57.6,179.2 51.2,172.799 51.2,166.399C51.2,159.999 57.6,153.599 64,153.599L326.4,153.599C332.799,153.599 339.2,159.999 339.2,166.399C339.2,172.799 332.8,179.2 326.4,179.2"/>
</svg>
