<?xml version='1.0' encoding='utf-8'?>
<!DOCTYPE svg PUBLIC '-//W3C//DTD SVG 1.1//EN' 'http://www.w3.org/Graphics/SVG/1.1/DTD/svg11.dtd'>
<!-- Generated by IcoMoon.io -->
<svg width="512" version="1.1" xmlns="http://www.w3.org/2000/svg" height="243" xmlns:xlink="http://www.w3.org/1999/xlink" xmlns:atv="http://webmi.atvise.com/2007/svgext">
 <defs/>
 <metadata>
  <atv:parameter valuetype="address" substitute="$icon$" behavior="optional" name="Icon" defaultvalue=""/>
  <atv:gridconfig width="5" enabled="true" height="5" gridstyle="lines"/>
  <atv:snapconfig width="5" enabled="true" height="5"/>
 </metadata>
 <g id="id_1" atv:refpx="255.991" atv:refpy="121.502" transform="matrix(0.9249,0,0,0.8036,19.2352,-60.8053)">
  <path fill="#647A8F" id="id_0" atv:refpx="256" atv:refpy="226.848" d="M115.616,91.008L101.856,105.344L116.064,110.88ZM33.28,126.656L13.824,122.656L24.736,139.264ZM77.984,85.44L71.776,104.32L86.976,103.136ZM150.912,158.016L166.176,145.28L146.368,143.456ZM147.072,112.384L128.448,119.328L138.848,130.464ZM57.44,108.768L41.664,96.704L44.288,116.416ZM76.96,170.176L143.04,170.176C143.007,165.248 143.04,167.872 142.976,167.232C140.512,134.976 112.32,110.271 80.032,112.768C47.744,115.264 23.616,143.168 26.08,175.456C27.68,196.032 39.744,214.24 56.608,223.424ZM19.264,153.248L0,158.079L17.024,168.32ZM471.36,180L86.24,180L45.056,293.792L52.544,312.096L97.568,312L97.568,362.336C97.568,362.336 98.4,368.256 104.96,368.256C111.616,368.256 112.32,362.336 112.32,362.336L112.32,311.968L456.352,311.328L456.352,362.304C456.352,362.304 457.183,368.224 463.744,368.224C470.4,368.224 471.104,362.304 471.104,362.304L471.104,311.36L508.671,311.36L511.999,289.376ZM478.784,243.904L423.424,243.904L416,219.328L470.816,219.328ZM461.216,194.752L465.984,209.504L412.544,209.504L408.416,194.752ZM401.12,194.752L405.28,209.504L337.184,209.504L335.008,194.752ZM230.048,194.752L327.904,194.752L330.08,209.504L228.384,209.504ZM227.008,219.328L331.872,219.328L335.776,243.904L224.032,243.904ZM156.896,194.752L223.04,194.752L221.376,209.504L153.472,209.504ZM96.64,194.752L149.76,194.752L146.304,209.504L92.192,209.504ZM87.712,219.328L143.456,219.328L137.28,243.904L80.32,243.904ZM66.912,288.128L77.312,253.727L135.584,253.727L127.584,288.128ZM212.288,288.128L134.688,288.128L142.752,253.727L216.16,253.727ZM144.448,243.904L150.624,219.328L219.968,219.328L216.992,243.904ZM219.264,288.128L223.2,253.727L336.896,253.727L341.984,288.128ZM338.976,219.328L408.704,219.328L416.16,243.904L342.912,243.904ZM348.992,288.128L343.936,253.727L418.144,253.727L427.744,288.128ZM435.168,288.128L425.44,253.727L481.952,253.727L493.12,288.128ZM22.016,228.928L40.64,221.984L30.24,210.816ZM18.208,183.296L2.911,196L22.72,197.856Z"/>
 </g>
</svg>
