<?xml version='1.0' encoding='utf-8'?>
<!DOCTYPE svg PUBLIC '-//W3C//DTD SVG 1.1//EN' 'http://www.w3.org/Graphics/SVG/1.1/DTD/svg11.dtd'>
<!-- Generated by IcoMoon.io -->
<svg width="512" version="1.1" xmlns="http://www.w3.org/2000/svg" height="243" xmlns:xlink="http://www.w3.org/1999/xlink" xmlns:atv="http://webmi.atvise.com/2007/svgext">
 <defs/>
 <metadata>
  <atv:gridconfig width="5" enabled="true" height="5" gridstyle="lines"/>
  <atv:snapconfig width="5" enabled="true" height="5"/>
 </metadata>
 <g id="id_4" atv:refpx="256.009" atv:refpy="121.509" transform="matrix(0.5606,0,0,0.5606,112.5021,-22.0066)">
  <g fill="#647A8F" id="icomoon-ignore" atv:refpx="0" atv:refpy="0"/>
  <path fill="#647A8F" id="id_0" atv:refpx="170.112" atv:refpy="256" d="M114.016,326.464C102.464,319.04 88.768,314.688 74.08,314.688C33.248,314.688 0,347.904 0,388.736C0,429.568 33.248,462.816 74.08,462.816C102.784,462.816 127.712,446.335 139.968,422.4L169.024,426.655L169.024,410.463L291.296,422.815L291.296,436.383L340.224,441.759L340.224,49.183L114.016,105.983ZM217.952,392.448L148,385.695C147.776,379.936 146.88,374.368 145.408,369.056L217.952,373.376ZM224.064,101.216L315.776,79.136L315.776,107.872L224.064,126.4ZM224.064,136.512L315.776,118.016L315.776,155.328L224.064,169.472ZM224.064,179.488L315.776,165.312L315.776,191.776L224.064,202.624ZM224.064,212.576L315.776,201.76L315.776,230.591L224.064,237.856ZM224.064,247.776L315.776,240.512L315.776,267.072L224.064,271.008ZM224.064,280.928L315.776,277.024L315.776,301.184L224.064,301.952ZM224.064,311.84L315.776,311.072L315.776,335.232L224.064,332.896ZM224.064,342.784L315.776,345.12L315.776,369.248L224.064,363.776ZM224.064,373.728L315.776,379.2L315.776,401.919L224.064,393.056ZM138.464,121.856L217.952,102.72L217.952,127.648L138.464,143.68ZM138.464,153.792L217.952,137.76L217.952,170.432L138.464,182.688ZM138.464,192.704L217.952,180.416L217.952,203.296L138.464,212.703ZM138.464,222.656L217.952,213.28L217.952,238.304L138.464,244.608ZM138.464,254.56L217.952,248.256L217.952,271.264L138.464,274.656ZM138.464,284.576L217.952,281.184L217.952,301.984L138.464,302.656ZM138.464,312.576L217.952,311.904L217.952,332.704L138.464,330.688ZM138.464,340.576L217.952,342.592L217.952,363.392L141.824,358.848C140.832,356.576 139.68,354.368 138.464,352.224ZM136.96,388.736C136.96,397.056 135.296,404.991 132.352,412.288C123.008,435.328 100.448,451.616 74.08,451.616C39.392,451.616 11.2,423.424 11.2,388.736C11.2,354.048 39.392,325.856 74.08,325.856C89.216,325.856 103.136,331.232 114.016,340.192C128,351.744 136.96,369.216 136.96,388.736"/>
  <path fill="#647A8F" id="id_1" atv:refpx="429.152" atv:refpy="254.912" d="M437.92,309.792C424.608,309.792 412.16,313.376 401.376,319.52L401.376,105.119L346.336,51.871L346.336,440.671L364.672,432.544L364.672,417.695L370.656,414.719C372.448,418.592 374.496,422.304 376.896,425.792L377.312,426.368C390.72,445.44 412.864,457.952 437.888,457.952C478.72,457.952 511.968,424.704 511.968,383.872C511.968,343.04 478.752,309.792 437.92,309.792M437.92,446.752C418.144,446.752 400.512,437.568 388.96,423.232C380.256,412.448 375.04,398.752 375.04,383.84C375.04,362.816 385.472,344.192 401.376,332.768C411.68,325.376 424.288,320.96 437.92,320.96C472.608,320.96 500.8,349.152 500.8,383.84C500.8,418.528 472.608,446.752 437.92,446.752"/>
  <path fill="#647A8F" id="id_2" atv:refpx="74.544" atv:refpy="389.616" d="M86.784,352.928L62.304,352.928L62.304,377.408L37.856,377.408L37.856,401.856L62.304,401.856L62.304,426.304L86.784,426.304L86.784,401.856L111.232,401.856L111.232,377.408L86.783,377.408Z"/>
  <path fill="#647A8F" id="id_3" atv:refpx="438.064" atv:refpy="383.488" d="M401.376,371.264L474.751,371.264L474.751,395.712L401.376,395.712Z"/>
 </g>
</svg>
